%TF.GenerationSoftware,KiCad,Pcbnew,(5.1.6)-1*%
%TF.CreationDate,2020-09-18T09:58:32+02:00*%
%TF.ProjectId,rainbow-ledbar-CMS,7261696e-626f-4772-9d6c-65646261722d,rev?*%
%TF.SameCoordinates,Original*%
%TF.FileFunction,Legend,Top*%
%TF.FilePolarity,Positive*%
%FSLAX46Y46*%
G04 Gerber Fmt 4.6, Leading zero omitted, Abs format (unit mm)*
G04 Created by KiCad (PCBNEW (5.1.6)-1) date 2020-09-18 09:58:32*
%MOMM*%
%LPD*%
G01*
G04 APERTURE LIST*
%TA.AperFunction,Profile*%
%ADD10C,0.050000*%
%TD*%
%ADD11C,0.120000*%
%ADD12C,0.150000*%
G04 APERTURE END LIST*
D10*
X140000000Y-91000000D02*
X140000000Y-72000000D01*
X175000000Y-91000000D02*
X140000000Y-91000000D01*
X175000000Y-72000000D02*
X175000000Y-91000000D01*
X140000000Y-72000000D02*
X175000000Y-72000000D01*
D11*
%TO.C,R1*%
X161031422Y-80085000D02*
X161548578Y-80085000D01*
X161031422Y-78665000D02*
X161548578Y-78665000D01*
%TO.C,R2*%
X161031422Y-81840000D02*
X161548578Y-81840000D01*
X161031422Y-83260000D02*
X161548578Y-83260000D01*
%TO.C,R3*%
X161031422Y-76910000D02*
X161548578Y-76910000D01*
X161031422Y-75490000D02*
X161548578Y-75490000D01*
%TO.C,J1*%
X172399000Y-76350000D02*
X169739000Y-76350000D01*
X172399000Y-84030000D02*
X172399000Y-76350000D01*
X169739000Y-84030000D02*
X169739000Y-76350000D01*
X172399000Y-84030000D02*
X169739000Y-84030000D01*
X172399000Y-85300000D02*
X172399000Y-86630000D01*
X172399000Y-86630000D02*
X171069000Y-86630000D01*
%TO.C,J2*%
X152460000Y-88325000D02*
X152460000Y-85665000D01*
X149860000Y-88325000D02*
X152460000Y-88325000D01*
X149860000Y-85665000D02*
X152460000Y-85665000D01*
X149860000Y-88325000D02*
X149860000Y-85665000D01*
X148590000Y-88325000D02*
X147260000Y-88325000D01*
X147260000Y-88325000D02*
X147260000Y-86995000D01*
%TO.C,J3*%
X142180000Y-83125000D02*
X143510000Y-83125000D01*
X142180000Y-84455000D02*
X142180000Y-83125000D01*
X142180000Y-85725000D02*
X144840000Y-85725000D01*
X144840000Y-85725000D02*
X144840000Y-88325000D01*
X142180000Y-85725000D02*
X142180000Y-88325000D01*
X142180000Y-88325000D02*
X144840000Y-88325000D01*
%TO.C,J5*%
X142180000Y-81975000D02*
X144840000Y-81975000D01*
X142180000Y-76835000D02*
X142180000Y-81975000D01*
X144840000Y-76835000D02*
X144840000Y-81975000D01*
X142180000Y-76835000D02*
X144840000Y-76835000D01*
X142180000Y-75565000D02*
X142180000Y-74235000D01*
X142180000Y-74235000D02*
X143510000Y-74235000D01*
%TO.C,U1*%
X156905000Y-77740000D02*
X156905000Y-76090000D01*
X156905000Y-76090000D02*
X146625000Y-76090000D01*
X146625000Y-76090000D02*
X146625000Y-81390000D01*
X146625000Y-81390000D02*
X156905000Y-81390000D01*
X156905000Y-81390000D02*
X156905000Y-79740000D01*
X156965000Y-73600000D02*
X146565000Y-73600000D01*
X146565000Y-73600000D02*
X146565000Y-83880000D01*
X146565000Y-83880000D02*
X156965000Y-83880000D01*
X156965000Y-83880000D02*
X156965000Y-73600000D01*
X156905000Y-79740000D02*
G75*
G02*
X156905000Y-77740000I0J1000000D01*
G01*
%TD*%
%TO.C,R1*%
D12*
X161123333Y-78177380D02*
X160790000Y-77701190D01*
X160551904Y-78177380D02*
X160551904Y-77177380D01*
X160932857Y-77177380D01*
X161028095Y-77225000D01*
X161075714Y-77272619D01*
X161123333Y-77367857D01*
X161123333Y-77510714D01*
X161075714Y-77605952D01*
X161028095Y-77653571D01*
X160932857Y-77701190D01*
X160551904Y-77701190D01*
X162075714Y-78177380D02*
X161504285Y-78177380D01*
X161790000Y-78177380D02*
X161790000Y-77177380D01*
X161694761Y-77320238D01*
X161599523Y-77415476D01*
X161504285Y-77463095D01*
%TO.C,R2*%
X161123333Y-81352380D02*
X160790000Y-80876190D01*
X160551904Y-81352380D02*
X160551904Y-80352380D01*
X160932857Y-80352380D01*
X161028095Y-80400000D01*
X161075714Y-80447619D01*
X161123333Y-80542857D01*
X161123333Y-80685714D01*
X161075714Y-80780952D01*
X161028095Y-80828571D01*
X160932857Y-80876190D01*
X160551904Y-80876190D01*
X161504285Y-80447619D02*
X161551904Y-80400000D01*
X161647142Y-80352380D01*
X161885238Y-80352380D01*
X161980476Y-80400000D01*
X162028095Y-80447619D01*
X162075714Y-80542857D01*
X162075714Y-80638095D01*
X162028095Y-80780952D01*
X161456666Y-81352380D01*
X162075714Y-81352380D01*
%TO.C,R3*%
X161123333Y-75002380D02*
X160790000Y-74526190D01*
X160551904Y-75002380D02*
X160551904Y-74002380D01*
X160932857Y-74002380D01*
X161028095Y-74050000D01*
X161075714Y-74097619D01*
X161123333Y-74192857D01*
X161123333Y-74335714D01*
X161075714Y-74430952D01*
X161028095Y-74478571D01*
X160932857Y-74526190D01*
X160551904Y-74526190D01*
X161456666Y-74002380D02*
X162075714Y-74002380D01*
X161742380Y-74383333D01*
X161885238Y-74383333D01*
X161980476Y-74430952D01*
X162028095Y-74478571D01*
X162075714Y-74573809D01*
X162075714Y-74811904D01*
X162028095Y-74907142D01*
X161980476Y-74954761D01*
X161885238Y-75002380D01*
X161599523Y-75002380D01*
X161504285Y-74954761D01*
X161456666Y-74907142D01*
%TO.C,J1*%
X170735666Y-87082380D02*
X170735666Y-87796666D01*
X170688047Y-87939523D01*
X170592809Y-88034761D01*
X170449952Y-88082380D01*
X170354714Y-88082380D01*
X171735666Y-88082380D02*
X171164238Y-88082380D01*
X171449952Y-88082380D02*
X171449952Y-87082380D01*
X171354714Y-87225238D01*
X171259476Y-87320476D01*
X171164238Y-87368095D01*
%TO.C,J2*%
X145712380Y-87328333D02*
X146426666Y-87328333D01*
X146569523Y-87375952D01*
X146664761Y-87471190D01*
X146712380Y-87614047D01*
X146712380Y-87709285D01*
X145807619Y-86899761D02*
X145760000Y-86852142D01*
X145712380Y-86756904D01*
X145712380Y-86518809D01*
X145760000Y-86423571D01*
X145807619Y-86375952D01*
X145902857Y-86328333D01*
X145998095Y-86328333D01*
X146140952Y-86375952D01*
X146712380Y-86947380D01*
X146712380Y-86328333D01*
%TO.C,J3*%
X143176666Y-81577380D02*
X143176666Y-82291666D01*
X143129047Y-82434523D01*
X143033809Y-82529761D01*
X142890952Y-82577380D01*
X142795714Y-82577380D01*
X143557619Y-81577380D02*
X144176666Y-81577380D01*
X143843333Y-81958333D01*
X143986190Y-81958333D01*
X144081428Y-82005952D01*
X144129047Y-82053571D01*
X144176666Y-82148809D01*
X144176666Y-82386904D01*
X144129047Y-82482142D01*
X144081428Y-82529761D01*
X143986190Y-82577380D01*
X143700476Y-82577380D01*
X143605238Y-82529761D01*
X143557619Y-82482142D01*
%TO.C,J5*%
X143176666Y-72687380D02*
X143176666Y-73401666D01*
X143129047Y-73544523D01*
X143033809Y-73639761D01*
X142890952Y-73687380D01*
X142795714Y-73687380D01*
X144129047Y-72687380D02*
X143652857Y-72687380D01*
X143605238Y-73163571D01*
X143652857Y-73115952D01*
X143748095Y-73068333D01*
X143986190Y-73068333D01*
X144081428Y-73115952D01*
X144129047Y-73163571D01*
X144176666Y-73258809D01*
X144176666Y-73496904D01*
X144129047Y-73592142D01*
X144081428Y-73639761D01*
X143986190Y-73687380D01*
X143748095Y-73687380D01*
X143652857Y-73639761D01*
X143605238Y-73592142D01*
%TO.C,U1*%
X157357380Y-79501904D02*
X158166904Y-79501904D01*
X158262142Y-79454285D01*
X158309761Y-79406666D01*
X158357380Y-79311428D01*
X158357380Y-79120952D01*
X158309761Y-79025714D01*
X158262142Y-78978095D01*
X158166904Y-78930476D01*
X157357380Y-78930476D01*
X158357380Y-77930476D02*
X158357380Y-78501904D01*
X158357380Y-78216190D02*
X157357380Y-78216190D01*
X157500238Y-78311428D01*
X157595476Y-78406666D01*
X157643095Y-78501904D01*
%TD*%
M02*
