M48
; DRILL file {KiCad (5.1.6)-1} date 09/18/20 10:00:36
; FORMAT={-:-/ absolute / inch / decimal}
; #@! TF.CreationDate,2020-09-18T10:00:36+02:00
; #@! TF.GenerationSoftware,Kicad,Pcbnew,(5.1.6)-1
FMAT,2
INCH
T1C0.0157
T2C0.0315
T3C0.0394
%
G90
G05
T1
X5.75Y-3.5
X6.0236Y-3.0709
X6.15Y-3.325
X6.275Y-2.9
X6.45Y-3.5
X6.475Y-3.1
X6.475Y-3.325
X6.811Y-2.9134
X6.811Y-3.5039
T2
X5.825Y-2.95
X5.825Y-3.25
X5.925Y-2.95
X5.925Y-3.25
X6.025Y-2.95
X6.025Y-3.25
X6.125Y-2.95
X6.125Y-3.25
T3
X5.65Y-3.325
X5.65Y-3.425
X5.65Y-2.975
X5.65Y-3.075
X5.65Y-3.175
X5.85Y-3.425
X5.95Y-3.425
X6.735Y-3.0583
X6.735Y-3.1583
X6.735Y-3.2583
X6.735Y-3.3583
T0
M30
