%TF.GenerationSoftware,KiCad,Pcbnew,(5.1.6)-1*%
%TF.CreationDate,2020-09-25T08:59:50+02:00*%
%TF.ProjectId,rainbow-ledbar-CMS,7261696e-626f-4772-9d6c-65646261722d,rev?*%
%TF.SameCoordinates,PX8583b00PY44aa200*%
%TF.FileFunction,Copper,L2,Bot*%
%TF.FilePolarity,Positive*%
%FSLAX46Y46*%
G04 Gerber Fmt 4.6, Leading zero omitted, Abs format (unit mm)*
G04 Created by KiCad (PCBNEW (5.1.6)-1) date 2020-09-25 08:59:50*
%MOMM*%
%LPD*%
G01*
G04 APERTURE LIST*
%TA.AperFunction,SMDPad,CuDef*%
%ADD10R,0.900000X0.800000*%
%TD*%
%TA.AperFunction,SMDPad,CuDef*%
%ADD11R,2.500000X1.800000*%
%TD*%
%TA.AperFunction,ComponentPad*%
%ADD12R,1.700000X1.700000*%
%TD*%
%TA.AperFunction,ComponentPad*%
%ADD13O,1.700000X1.700000*%
%TD*%
%TA.AperFunction,ComponentPad*%
%ADD14R,1.600000X1.600000*%
%TD*%
%TA.AperFunction,ComponentPad*%
%ADD15O,1.600000X1.600000*%
%TD*%
%TA.AperFunction,ViaPad*%
%ADD16C,0.800000*%
%TD*%
%TA.AperFunction,Conductor*%
%ADD17C,0.800000*%
%TD*%
%TA.AperFunction,Conductor*%
%ADD18C,0.250000*%
%TD*%
%TA.AperFunction,Conductor*%
%ADD19C,0.254000*%
%TD*%
G04 APERTURE END LIST*
D10*
%TO.P,Q1,1*%
%TO.N,Net-(J1-Pad3)*%
X27624000Y-8546000D03*
%TO.P,Q1,2*%
%TO.N,Net-(Q1-Pad2)*%
X27624000Y-10446000D03*
%TO.P,Q1,3*%
%TO.N,VCC*%
X25624000Y-9496000D03*
%TD*%
%TO.P,Q2,3*%
%TO.N,VCC*%
X25624000Y-15251000D03*
%TO.P,Q2,2*%
%TO.N,Net-(Q2-Pad2)*%
X27624000Y-16201000D03*
%TO.P,Q2,1*%
%TO.N,Net-(J1-Pad2)*%
X27624000Y-14301000D03*
%TD*%
%TO.P,Q3,1*%
%TO.N,Net-(J1-Pad4)*%
X27624000Y-2796000D03*
%TO.P,Q3,2*%
%TO.N,Net-(Q3-Pad2)*%
X27624000Y-4696000D03*
%TO.P,Q3,3*%
%TO.N,VCC*%
X25624000Y-3746000D03*
%TD*%
D11*
%TO.P,D1,1*%
%TO.N,VCC*%
X19480000Y-14995000D03*
%TO.P,D1,2*%
%TO.N,Net-(D1-Pad2)*%
X15480000Y-14995000D03*
%TD*%
D12*
%TO.P,J1,1*%
%TO.N,GNDREF*%
X31069000Y-13300000D03*
D13*
%TO.P,J1,2*%
%TO.N,Net-(J1-Pad2)*%
X31069000Y-10760000D03*
%TO.P,J1,3*%
%TO.N,Net-(J1-Pad3)*%
X31069000Y-8220000D03*
%TO.P,J1,4*%
%TO.N,Net-(J1-Pad4)*%
X31069000Y-5680000D03*
%TD*%
D12*
%TO.P,J2,1*%
%TO.N,GNDREF*%
X8590000Y-14995000D03*
D13*
%TO.P,J2,2*%
%TO.N,Net-(D1-Pad2)*%
X11130000Y-14995000D03*
%TD*%
%TO.P,J3,2*%
%TO.N,PushButton*%
X3510000Y-14995000D03*
D12*
%TO.P,J3,1*%
%TO.N,GNDREF*%
X3510000Y-12455000D03*
%TD*%
%TO.P,J5,1*%
%TO.N,GNDREF*%
X3510000Y-3565000D03*
D13*
%TO.P,J5,2*%
%TO.N,Potentiom\u00E8tre*%
X3510000Y-6105000D03*
%TO.P,J5,3*%
%TO.N,VCC*%
X3510000Y-8645000D03*
%TD*%
D14*
%TO.P,U1,1*%
%TO.N,Net-(U1-Pad1)*%
X15575000Y-2930000D03*
D15*
%TO.P,U1,5*%
%TO.N,B*%
X7955000Y-10550000D03*
%TO.P,U1,2*%
%TO.N,R*%
X13035000Y-2930000D03*
%TO.P,U1,6*%
%TO.N,G*%
X10495000Y-10550000D03*
%TO.P,U1,3*%
%TO.N,Potentiom\u00E8tre*%
X10495000Y-2930000D03*
%TO.P,U1,7*%
%TO.N,PushButton*%
X13035000Y-10550000D03*
%TO.P,U1,4*%
%TO.N,GNDREF*%
X7955000Y-2930000D03*
%TO.P,U1,8*%
%TO.N,VCC*%
X15575000Y-10550000D03*
%TD*%
D16*
%TO.N,GNDREF*%
X13000000Y-6000000D03*
X33000000Y-2000000D03*
X33000000Y-17000000D03*
X16210000Y-12455000D03*
X6050000Y-16900000D03*
X19385000Y-1660000D03*
%TO.N,Net-(Q1-Pad2)*%
X24465000Y-12455000D03*
%TO.N,Net-(Q2-Pad2)*%
X23830000Y-16900000D03*
%TO.N,Net-(Q3-Pad2)*%
X24465000Y-6740000D03*
%TD*%
D17*
%TO.N,Net-(J1-Pad4)*%
X27624000Y-2796000D02*
X30046000Y-2796000D01*
X31069000Y-3819000D02*
X31069000Y-5680000D01*
X30046000Y-2796000D02*
X31069000Y-3819000D01*
%TO.N,Net-(J1-Pad3)*%
X27624000Y-8546000D02*
X27624000Y-8026000D01*
X27624000Y-8026000D02*
X28275000Y-7375000D01*
X30224000Y-7375000D02*
X31069000Y-8220000D01*
X28275000Y-7375000D02*
X30224000Y-7375000D01*
%TO.N,Net-(J1-Pad2)*%
X27624000Y-14301000D02*
X28216000Y-14301000D01*
X28910000Y-13607000D02*
X28910000Y-11716919D01*
X28910000Y-11716919D02*
X29866919Y-10760000D01*
X29866919Y-10760000D02*
X31069000Y-10760000D01*
X28216000Y-14301000D02*
X28910000Y-13607000D01*
%TO.N,VCC*%
X15575000Y-10550000D02*
X16845000Y-10550000D01*
X19480000Y-13185000D02*
X19480000Y-14995000D01*
X16845000Y-10550000D02*
X19480000Y-13185000D01*
X15575000Y-9280000D02*
X15575000Y-10550000D01*
X3510000Y-8645000D02*
X14940000Y-8645000D01*
X14940000Y-8645000D02*
X15575000Y-9280000D01*
X25368000Y-14995000D02*
X25624000Y-15251000D01*
X19480000Y-14995000D02*
X25368000Y-14995000D01*
X19480000Y-14995000D02*
X20020000Y-14995000D01*
X20020000Y-14995000D02*
X21925000Y-13090000D01*
X21925000Y-13090000D02*
X21925000Y-11185000D01*
X23614000Y-9496000D02*
X25624000Y-9496000D01*
X21925000Y-11185000D02*
X23614000Y-9496000D01*
X23014000Y-3746000D02*
X25624000Y-3746000D01*
X21925000Y-11185000D02*
X21925000Y-4835000D01*
X21925000Y-4835000D02*
X23014000Y-3746000D01*
D18*
%TO.N,PushButton*%
X13035000Y-11947000D02*
X13035000Y-10550000D01*
X12400000Y-12582000D02*
X13035000Y-11947000D01*
X7320000Y-12582000D02*
X12400000Y-12582000D01*
X3510000Y-14995000D02*
X4907000Y-14995000D01*
X4907000Y-14995000D02*
X7320000Y-12582000D01*
%TO.N,Net-(Q1-Pad2)*%
X24465000Y-12455000D02*
X27005000Y-12455000D01*
X27624000Y-11836000D02*
X27624000Y-10446000D01*
X27005000Y-12455000D02*
X27624000Y-11836000D01*
%TO.N,Net-(Q2-Pad2)*%
X27560000Y-16265000D02*
X27624000Y-16201000D01*
X27624000Y-16201000D02*
X27624000Y-16281000D01*
X27005000Y-16900000D02*
X23830000Y-16900000D01*
X27624000Y-16281000D02*
X27005000Y-16900000D01*
%TO.N,Net-(Q3-Pad2)*%
X24465000Y-6740000D02*
X27005000Y-6740000D01*
X27624000Y-6121000D02*
X27624000Y-4696000D01*
X27005000Y-6740000D02*
X27624000Y-6121000D01*
D17*
%TO.N,Net-(D1-Pad2)*%
X11130000Y-14995000D02*
X15480000Y-14995000D01*
%TD*%
D19*
%TO.N,GNDREF*%
G36*
X34340001Y-18340000D02*
G01*
X660000Y-18340000D01*
X660000Y-11605000D01*
X2021928Y-11605000D01*
X2025000Y-12169250D01*
X2183750Y-12328000D01*
X3383000Y-12328000D01*
X3383000Y-11128750D01*
X3637000Y-11128750D01*
X3637000Y-12328000D01*
X4836250Y-12328000D01*
X4995000Y-12169250D01*
X4998072Y-11605000D01*
X4985812Y-11480518D01*
X4949502Y-11360820D01*
X4890537Y-11250506D01*
X4811185Y-11153815D01*
X4714494Y-11074463D01*
X4604180Y-11015498D01*
X4484482Y-10979188D01*
X4360000Y-10966928D01*
X3795750Y-10970000D01*
X3637000Y-11128750D01*
X3383000Y-11128750D01*
X3224250Y-10970000D01*
X2660000Y-10966928D01*
X2535518Y-10979188D01*
X2415820Y-11015498D01*
X2305506Y-11074463D01*
X2208815Y-11153815D01*
X2129463Y-11250506D01*
X2070498Y-11360820D01*
X2034188Y-11480518D01*
X2021928Y-11605000D01*
X660000Y-11605000D01*
X660000Y-4415000D01*
X2021928Y-4415000D01*
X2034188Y-4539482D01*
X2070498Y-4659180D01*
X2129463Y-4769494D01*
X2208815Y-4866185D01*
X2305506Y-4945537D01*
X2415820Y-5004502D01*
X2488380Y-5026513D01*
X2356525Y-5158368D01*
X2194010Y-5401589D01*
X2082068Y-5671842D01*
X2025000Y-5958740D01*
X2025000Y-6251260D01*
X2082068Y-6538158D01*
X2194010Y-6808411D01*
X2356525Y-7051632D01*
X2563368Y-7258475D01*
X2737760Y-7375000D01*
X2563368Y-7491525D01*
X2356525Y-7698368D01*
X2194010Y-7941589D01*
X2082068Y-8211842D01*
X2025000Y-8498740D01*
X2025000Y-8791260D01*
X2082068Y-9078158D01*
X2194010Y-9348411D01*
X2356525Y-9591632D01*
X2563368Y-9798475D01*
X2806589Y-9960990D01*
X3076842Y-10072932D01*
X3363740Y-10130000D01*
X3656260Y-10130000D01*
X3943158Y-10072932D01*
X4213411Y-9960990D01*
X4456632Y-9798475D01*
X4575107Y-9680000D01*
X6810456Y-9680000D01*
X6683320Y-9870273D01*
X6575147Y-10131426D01*
X6520000Y-10408665D01*
X6520000Y-10691335D01*
X6575147Y-10968574D01*
X6683320Y-11229727D01*
X6840363Y-11464759D01*
X7040241Y-11664637D01*
X7275273Y-11821680D01*
X7277318Y-11822527D01*
X7171014Y-11832997D01*
X7027753Y-11876454D01*
X6895724Y-11947026D01*
X6779999Y-12041999D01*
X6756201Y-12070997D01*
X4709680Y-14117519D01*
X4663475Y-14048368D01*
X4531620Y-13916513D01*
X4604180Y-13894502D01*
X4714494Y-13835537D01*
X4811185Y-13756185D01*
X4890537Y-13659494D01*
X4949502Y-13549180D01*
X4985812Y-13429482D01*
X4998072Y-13305000D01*
X4995000Y-12740750D01*
X4836250Y-12582000D01*
X3637000Y-12582000D01*
X3637000Y-12602000D01*
X3383000Y-12602000D01*
X3383000Y-12582000D01*
X2183750Y-12582000D01*
X2025000Y-12740750D01*
X2021928Y-13305000D01*
X2034188Y-13429482D01*
X2070498Y-13549180D01*
X2129463Y-13659494D01*
X2208815Y-13756185D01*
X2305506Y-13835537D01*
X2415820Y-13894502D01*
X2488380Y-13916513D01*
X2356525Y-14048368D01*
X2194010Y-14291589D01*
X2082068Y-14561842D01*
X2025000Y-14848740D01*
X2025000Y-15141260D01*
X2082068Y-15428158D01*
X2194010Y-15698411D01*
X2356525Y-15941632D01*
X2563368Y-16148475D01*
X2806589Y-16310990D01*
X3076842Y-16422932D01*
X3363740Y-16480000D01*
X3656260Y-16480000D01*
X3943158Y-16422932D01*
X4213411Y-16310990D01*
X4456632Y-16148475D01*
X4663475Y-15941632D01*
X4728042Y-15845000D01*
X7101928Y-15845000D01*
X7114188Y-15969482D01*
X7150498Y-16089180D01*
X7209463Y-16199494D01*
X7288815Y-16296185D01*
X7385506Y-16375537D01*
X7495820Y-16434502D01*
X7615518Y-16470812D01*
X7740000Y-16483072D01*
X8304250Y-16480000D01*
X8463000Y-16321250D01*
X8463000Y-15122000D01*
X7263750Y-15122000D01*
X7105000Y-15280750D01*
X7101928Y-15845000D01*
X4728042Y-15845000D01*
X4788178Y-15755000D01*
X4869678Y-15755000D01*
X4907000Y-15758676D01*
X4944322Y-15755000D01*
X4944333Y-15755000D01*
X5055986Y-15744003D01*
X5199247Y-15700546D01*
X5331276Y-15629974D01*
X5447001Y-15535001D01*
X5470804Y-15505997D01*
X6831801Y-14145000D01*
X7101928Y-14145000D01*
X7105000Y-14709250D01*
X7263750Y-14868000D01*
X8463000Y-14868000D01*
X8463000Y-13668750D01*
X8717000Y-13668750D01*
X8717000Y-14868000D01*
X8737000Y-14868000D01*
X8737000Y-15122000D01*
X8717000Y-15122000D01*
X8717000Y-16321250D01*
X8875750Y-16480000D01*
X9440000Y-16483072D01*
X9564482Y-16470812D01*
X9684180Y-16434502D01*
X9794494Y-16375537D01*
X9891185Y-16296185D01*
X9970537Y-16199494D01*
X10029502Y-16089180D01*
X10051513Y-16016620D01*
X10183368Y-16148475D01*
X10426589Y-16310990D01*
X10696842Y-16422932D01*
X10983740Y-16480000D01*
X11276260Y-16480000D01*
X11563158Y-16422932D01*
X11833411Y-16310990D01*
X12076632Y-16148475D01*
X12195107Y-16030000D01*
X13607379Y-16030000D01*
X13640498Y-16139180D01*
X13699463Y-16249494D01*
X13778815Y-16346185D01*
X13875506Y-16425537D01*
X13985820Y-16484502D01*
X14105518Y-16520812D01*
X14230000Y-16533072D01*
X16730000Y-16533072D01*
X16854482Y-16520812D01*
X16974180Y-16484502D01*
X17084494Y-16425537D01*
X17181185Y-16346185D01*
X17260537Y-16249494D01*
X17319502Y-16139180D01*
X17355812Y-16019482D01*
X17368072Y-15895000D01*
X17368072Y-14095000D01*
X17355812Y-13970518D01*
X17319502Y-13850820D01*
X17260537Y-13740506D01*
X17181185Y-13643815D01*
X17084494Y-13564463D01*
X16974180Y-13505498D01*
X16854482Y-13469188D01*
X16730000Y-13456928D01*
X14230000Y-13456928D01*
X14105518Y-13469188D01*
X13985820Y-13505498D01*
X13875506Y-13564463D01*
X13778815Y-13643815D01*
X13699463Y-13740506D01*
X13640498Y-13850820D01*
X13607379Y-13960000D01*
X12195107Y-13960000D01*
X12076632Y-13841525D01*
X11833411Y-13679010D01*
X11563158Y-13567068D01*
X11276260Y-13510000D01*
X10983740Y-13510000D01*
X10696842Y-13567068D01*
X10426589Y-13679010D01*
X10183368Y-13841525D01*
X10051513Y-13973380D01*
X10029502Y-13900820D01*
X9970537Y-13790506D01*
X9891185Y-13693815D01*
X9794494Y-13614463D01*
X9684180Y-13555498D01*
X9564482Y-13519188D01*
X9440000Y-13506928D01*
X8875750Y-13510000D01*
X8717000Y-13668750D01*
X8463000Y-13668750D01*
X8304250Y-13510000D01*
X7740000Y-13506928D01*
X7615518Y-13519188D01*
X7495820Y-13555498D01*
X7385506Y-13614463D01*
X7288815Y-13693815D01*
X7209463Y-13790506D01*
X7150498Y-13900820D01*
X7114188Y-14020518D01*
X7101928Y-14145000D01*
X6831801Y-14145000D01*
X7634802Y-13342000D01*
X12362678Y-13342000D01*
X12400000Y-13345676D01*
X12437322Y-13342000D01*
X12437333Y-13342000D01*
X12548986Y-13331003D01*
X12692247Y-13287546D01*
X12824276Y-13216974D01*
X12940001Y-13122001D01*
X12963803Y-13092998D01*
X13546004Y-12510798D01*
X13575001Y-12487001D01*
X13669974Y-12371276D01*
X13740546Y-12239247D01*
X13784003Y-12095986D01*
X13795000Y-11984333D01*
X13795000Y-11984332D01*
X13798677Y-11947000D01*
X13795000Y-11909667D01*
X13795000Y-11768043D01*
X13949759Y-11664637D01*
X14149637Y-11464759D01*
X14305000Y-11232241D01*
X14460363Y-11464759D01*
X14660241Y-11664637D01*
X14895273Y-11821680D01*
X15156426Y-11929853D01*
X15433665Y-11985000D01*
X15716335Y-11985000D01*
X15993574Y-11929853D01*
X16254727Y-11821680D01*
X16489759Y-11664637D01*
X16492843Y-11661553D01*
X18288217Y-13456928D01*
X18230000Y-13456928D01*
X18105518Y-13469188D01*
X17985820Y-13505498D01*
X17875506Y-13564463D01*
X17778815Y-13643815D01*
X17699463Y-13740506D01*
X17640498Y-13850820D01*
X17604188Y-13970518D01*
X17591928Y-14095000D01*
X17591928Y-15895000D01*
X17604188Y-16019482D01*
X17640498Y-16139180D01*
X17699463Y-16249494D01*
X17778815Y-16346185D01*
X17875506Y-16425537D01*
X17985820Y-16484502D01*
X18105518Y-16520812D01*
X18230000Y-16533072D01*
X20730000Y-16533072D01*
X20854482Y-16520812D01*
X20974180Y-16484502D01*
X21084494Y-16425537D01*
X21181185Y-16346185D01*
X21260537Y-16249494D01*
X21319502Y-16139180D01*
X21352621Y-16030000D01*
X23269097Y-16030000D01*
X23170226Y-16096063D01*
X23026063Y-16240226D01*
X22912795Y-16409744D01*
X22834774Y-16598102D01*
X22795000Y-16798061D01*
X22795000Y-17001939D01*
X22834774Y-17201898D01*
X22912795Y-17390256D01*
X23026063Y-17559774D01*
X23170226Y-17703937D01*
X23339744Y-17817205D01*
X23528102Y-17895226D01*
X23728061Y-17935000D01*
X23931939Y-17935000D01*
X24131898Y-17895226D01*
X24320256Y-17817205D01*
X24489774Y-17703937D01*
X24533711Y-17660000D01*
X26967678Y-17660000D01*
X27005000Y-17663676D01*
X27042322Y-17660000D01*
X27042333Y-17660000D01*
X27153986Y-17649003D01*
X27297247Y-17605546D01*
X27429276Y-17534974D01*
X27545001Y-17440001D01*
X27568803Y-17410998D01*
X27740729Y-17239072D01*
X28074000Y-17239072D01*
X28198482Y-17226812D01*
X28318180Y-17190502D01*
X28428494Y-17131537D01*
X28525185Y-17052185D01*
X28604537Y-16955494D01*
X28663502Y-16845180D01*
X28699812Y-16725482D01*
X28712072Y-16601000D01*
X28712072Y-15801000D01*
X28699812Y-15676518D01*
X28663502Y-15556820D01*
X28604537Y-15446506D01*
X28525185Y-15349815D01*
X28470885Y-15305253D01*
X28613993Y-15261841D01*
X28793797Y-15165734D01*
X28951396Y-15036396D01*
X28983807Y-14996903D01*
X29605903Y-14374807D01*
X29620090Y-14363164D01*
X29629498Y-14394180D01*
X29688463Y-14504494D01*
X29767815Y-14601185D01*
X29864506Y-14680537D01*
X29974820Y-14739502D01*
X30094518Y-14775812D01*
X30219000Y-14788072D01*
X30783250Y-14785000D01*
X30942000Y-14626250D01*
X30942000Y-13427000D01*
X31196000Y-13427000D01*
X31196000Y-14626250D01*
X31354750Y-14785000D01*
X31919000Y-14788072D01*
X32043482Y-14775812D01*
X32163180Y-14739502D01*
X32273494Y-14680537D01*
X32370185Y-14601185D01*
X32449537Y-14504494D01*
X32508502Y-14394180D01*
X32544812Y-14274482D01*
X32557072Y-14150000D01*
X32554000Y-13585750D01*
X32395250Y-13427000D01*
X31196000Y-13427000D01*
X30942000Y-13427000D01*
X30922000Y-13427000D01*
X30922000Y-13173000D01*
X30942000Y-13173000D01*
X30942000Y-13153000D01*
X31196000Y-13153000D01*
X31196000Y-13173000D01*
X32395250Y-13173000D01*
X32554000Y-13014250D01*
X32557072Y-12450000D01*
X32544812Y-12325518D01*
X32508502Y-12205820D01*
X32449537Y-12095506D01*
X32370185Y-11998815D01*
X32273494Y-11919463D01*
X32163180Y-11860498D01*
X32090620Y-11838487D01*
X32222475Y-11706632D01*
X32384990Y-11463411D01*
X32496932Y-11193158D01*
X32554000Y-10906260D01*
X32554000Y-10613740D01*
X32496932Y-10326842D01*
X32384990Y-10056589D01*
X32222475Y-9813368D01*
X32015632Y-9606525D01*
X31841240Y-9490000D01*
X32015632Y-9373475D01*
X32222475Y-9166632D01*
X32384990Y-8923411D01*
X32496932Y-8653158D01*
X32554000Y-8366260D01*
X32554000Y-8073740D01*
X32496932Y-7786842D01*
X32384990Y-7516589D01*
X32222475Y-7273368D01*
X32015632Y-7066525D01*
X31841240Y-6950000D01*
X32015632Y-6833475D01*
X32222475Y-6626632D01*
X32384990Y-6383411D01*
X32496932Y-6113158D01*
X32554000Y-5826260D01*
X32554000Y-5533740D01*
X32496932Y-5246842D01*
X32384990Y-4976589D01*
X32222475Y-4733368D01*
X32104000Y-4614893D01*
X32104000Y-3869827D01*
X32109006Y-3818999D01*
X32104000Y-3768171D01*
X32104000Y-3768162D01*
X32089024Y-3616105D01*
X32029841Y-3421007D01*
X31933734Y-3241203D01*
X31804396Y-3083604D01*
X31764908Y-3051197D01*
X30813807Y-2100097D01*
X30781396Y-2060604D01*
X30623797Y-1931266D01*
X30443993Y-1835159D01*
X30248895Y-1775976D01*
X30096838Y-1761000D01*
X30096828Y-1761000D01*
X30046000Y-1755994D01*
X29995172Y-1761000D01*
X28105192Y-1761000D01*
X28074000Y-1757928D01*
X27174000Y-1757928D01*
X27049518Y-1770188D01*
X26929820Y-1806498D01*
X26819506Y-1865463D01*
X26722815Y-1944815D01*
X26643463Y-2041506D01*
X26584498Y-2151820D01*
X26548188Y-2271518D01*
X26535928Y-2396000D01*
X26535928Y-2907905D01*
X26525185Y-2894815D01*
X26428494Y-2815463D01*
X26318180Y-2756498D01*
X26198482Y-2720188D01*
X26074000Y-2707928D01*
X25174000Y-2707928D01*
X25142808Y-2711000D01*
X23064835Y-2711000D01*
X23014000Y-2705993D01*
X22963165Y-2711000D01*
X22963162Y-2711000D01*
X22811105Y-2725976D01*
X22661415Y-2771385D01*
X22616006Y-2785159D01*
X22436202Y-2881266D01*
X22419693Y-2894815D01*
X22278604Y-3010604D01*
X22246197Y-3050092D01*
X21229092Y-4067198D01*
X21189605Y-4099604D01*
X21157198Y-4139092D01*
X21157197Y-4139093D01*
X21060266Y-4257203D01*
X20964160Y-4437007D01*
X20904977Y-4632105D01*
X20884994Y-4835000D01*
X20890001Y-4885838D01*
X20890000Y-11134172D01*
X20884994Y-11185000D01*
X20890000Y-11235828D01*
X20890000Y-11235837D01*
X20890001Y-11235847D01*
X20890000Y-12661289D01*
X20506225Y-13045065D01*
X20500024Y-12982105D01*
X20440841Y-12787007D01*
X20396104Y-12703309D01*
X20344734Y-12607202D01*
X20247803Y-12489092D01*
X20215396Y-12449604D01*
X20175908Y-12417197D01*
X17612807Y-9854097D01*
X17580396Y-9814604D01*
X17422797Y-9685266D01*
X17242993Y-9589159D01*
X17047895Y-9529976D01*
X16895838Y-9515000D01*
X16895828Y-9515000D01*
X16845000Y-9509994D01*
X16794172Y-9515000D01*
X16610000Y-9515000D01*
X16610000Y-9330835D01*
X16615007Y-9280000D01*
X16609373Y-9222797D01*
X16595024Y-9077105D01*
X16546821Y-8918203D01*
X16535841Y-8882006D01*
X16439734Y-8702202D01*
X16388942Y-8640313D01*
X16310396Y-8544604D01*
X16270903Y-8512193D01*
X15707807Y-7949097D01*
X15675396Y-7909604D01*
X15517797Y-7780266D01*
X15337993Y-7684159D01*
X15142895Y-7624976D01*
X14990838Y-7610000D01*
X14990828Y-7610000D01*
X14940000Y-7604994D01*
X14889172Y-7610000D01*
X4575107Y-7610000D01*
X4456632Y-7491525D01*
X4282240Y-7375000D01*
X4456632Y-7258475D01*
X4663475Y-7051632D01*
X4825990Y-6808411D01*
X4937932Y-6538158D01*
X4995000Y-6251260D01*
X4995000Y-5958740D01*
X4937932Y-5671842D01*
X4825990Y-5401589D01*
X4663475Y-5158368D01*
X4531620Y-5026513D01*
X4604180Y-5004502D01*
X4714494Y-4945537D01*
X4811185Y-4866185D01*
X4890537Y-4769494D01*
X4949502Y-4659180D01*
X4985812Y-4539482D01*
X4998072Y-4415000D01*
X4995000Y-3850750D01*
X4836250Y-3692000D01*
X3637000Y-3692000D01*
X3637000Y-3712000D01*
X3383000Y-3712000D01*
X3383000Y-3692000D01*
X2183750Y-3692000D01*
X2025000Y-3850750D01*
X2021928Y-4415000D01*
X660000Y-4415000D01*
X660000Y-2715000D01*
X2021928Y-2715000D01*
X2025000Y-3279250D01*
X2183750Y-3438000D01*
X3383000Y-3438000D01*
X3383000Y-2238750D01*
X3637000Y-2238750D01*
X3637000Y-3438000D01*
X4836250Y-3438000D01*
X4995000Y-3279250D01*
X4995001Y-3279040D01*
X6563091Y-3279040D01*
X6657930Y-3543881D01*
X6802615Y-3785131D01*
X6991586Y-3993519D01*
X7217580Y-4161037D01*
X7471913Y-4281246D01*
X7605961Y-4321904D01*
X7828000Y-4199915D01*
X7828000Y-3057000D01*
X6684376Y-3057000D01*
X6563091Y-3279040D01*
X4995001Y-3279040D01*
X4998072Y-2715000D01*
X4985812Y-2590518D01*
X4982913Y-2580960D01*
X6563091Y-2580960D01*
X6684376Y-2803000D01*
X7828000Y-2803000D01*
X7828000Y-1660085D01*
X8082000Y-1660085D01*
X8082000Y-2803000D01*
X8102000Y-2803000D01*
X8102000Y-3057000D01*
X8082000Y-3057000D01*
X8082000Y-4199915D01*
X8304039Y-4321904D01*
X8438087Y-4281246D01*
X8692420Y-4161037D01*
X8918414Y-3993519D01*
X9107385Y-3785131D01*
X9218933Y-3599135D01*
X9223320Y-3609727D01*
X9380363Y-3844759D01*
X9580241Y-4044637D01*
X9815273Y-4201680D01*
X10076426Y-4309853D01*
X10353665Y-4365000D01*
X10636335Y-4365000D01*
X10913574Y-4309853D01*
X11174727Y-4201680D01*
X11409759Y-4044637D01*
X11609637Y-3844759D01*
X11765000Y-3612241D01*
X11920363Y-3844759D01*
X12120241Y-4044637D01*
X12355273Y-4201680D01*
X12616426Y-4309853D01*
X12893665Y-4365000D01*
X13176335Y-4365000D01*
X13453574Y-4309853D01*
X13714727Y-4201680D01*
X13949759Y-4044637D01*
X14148357Y-3846039D01*
X14149188Y-3854482D01*
X14185498Y-3974180D01*
X14244463Y-4084494D01*
X14323815Y-4181185D01*
X14420506Y-4260537D01*
X14530820Y-4319502D01*
X14650518Y-4355812D01*
X14775000Y-4368072D01*
X16375000Y-4368072D01*
X16499482Y-4355812D01*
X16619180Y-4319502D01*
X16729494Y-4260537D01*
X16826185Y-4181185D01*
X16905537Y-4084494D01*
X16964502Y-3974180D01*
X17000812Y-3854482D01*
X17013072Y-3730000D01*
X17013072Y-2130000D01*
X17000812Y-2005518D01*
X16964502Y-1885820D01*
X16905537Y-1775506D01*
X16826185Y-1678815D01*
X16729494Y-1599463D01*
X16619180Y-1540498D01*
X16499482Y-1504188D01*
X16375000Y-1491928D01*
X14775000Y-1491928D01*
X14650518Y-1504188D01*
X14530820Y-1540498D01*
X14420506Y-1599463D01*
X14323815Y-1678815D01*
X14244463Y-1775506D01*
X14185498Y-1885820D01*
X14149188Y-2005518D01*
X14148357Y-2013961D01*
X13949759Y-1815363D01*
X13714727Y-1658320D01*
X13453574Y-1550147D01*
X13176335Y-1495000D01*
X12893665Y-1495000D01*
X12616426Y-1550147D01*
X12355273Y-1658320D01*
X12120241Y-1815363D01*
X11920363Y-2015241D01*
X11765000Y-2247759D01*
X11609637Y-2015241D01*
X11409759Y-1815363D01*
X11174727Y-1658320D01*
X10913574Y-1550147D01*
X10636335Y-1495000D01*
X10353665Y-1495000D01*
X10076426Y-1550147D01*
X9815273Y-1658320D01*
X9580241Y-1815363D01*
X9380363Y-2015241D01*
X9223320Y-2250273D01*
X9218933Y-2260865D01*
X9107385Y-2074869D01*
X8918414Y-1866481D01*
X8692420Y-1698963D01*
X8438087Y-1578754D01*
X8304039Y-1538096D01*
X8082000Y-1660085D01*
X7828000Y-1660085D01*
X7605961Y-1538096D01*
X7471913Y-1578754D01*
X7217580Y-1698963D01*
X6991586Y-1866481D01*
X6802615Y-2074869D01*
X6657930Y-2316119D01*
X6563091Y-2580960D01*
X4982913Y-2580960D01*
X4949502Y-2470820D01*
X4890537Y-2360506D01*
X4811185Y-2263815D01*
X4714494Y-2184463D01*
X4604180Y-2125498D01*
X4484482Y-2089188D01*
X4360000Y-2076928D01*
X3795750Y-2080000D01*
X3637000Y-2238750D01*
X3383000Y-2238750D01*
X3224250Y-2080000D01*
X2660000Y-2076928D01*
X2535518Y-2089188D01*
X2415820Y-2125498D01*
X2305506Y-2184463D01*
X2208815Y-2263815D01*
X2129463Y-2360506D01*
X2070498Y-2470820D01*
X2034188Y-2590518D01*
X2021928Y-2715000D01*
X660000Y-2715000D01*
X660000Y-660000D01*
X34340000Y-660000D01*
X34340001Y-18340000D01*
G37*
X34340001Y-18340000D02*
X660000Y-18340000D01*
X660000Y-11605000D01*
X2021928Y-11605000D01*
X2025000Y-12169250D01*
X2183750Y-12328000D01*
X3383000Y-12328000D01*
X3383000Y-11128750D01*
X3637000Y-11128750D01*
X3637000Y-12328000D01*
X4836250Y-12328000D01*
X4995000Y-12169250D01*
X4998072Y-11605000D01*
X4985812Y-11480518D01*
X4949502Y-11360820D01*
X4890537Y-11250506D01*
X4811185Y-11153815D01*
X4714494Y-11074463D01*
X4604180Y-11015498D01*
X4484482Y-10979188D01*
X4360000Y-10966928D01*
X3795750Y-10970000D01*
X3637000Y-11128750D01*
X3383000Y-11128750D01*
X3224250Y-10970000D01*
X2660000Y-10966928D01*
X2535518Y-10979188D01*
X2415820Y-11015498D01*
X2305506Y-11074463D01*
X2208815Y-11153815D01*
X2129463Y-11250506D01*
X2070498Y-11360820D01*
X2034188Y-11480518D01*
X2021928Y-11605000D01*
X660000Y-11605000D01*
X660000Y-4415000D01*
X2021928Y-4415000D01*
X2034188Y-4539482D01*
X2070498Y-4659180D01*
X2129463Y-4769494D01*
X2208815Y-4866185D01*
X2305506Y-4945537D01*
X2415820Y-5004502D01*
X2488380Y-5026513D01*
X2356525Y-5158368D01*
X2194010Y-5401589D01*
X2082068Y-5671842D01*
X2025000Y-5958740D01*
X2025000Y-6251260D01*
X2082068Y-6538158D01*
X2194010Y-6808411D01*
X2356525Y-7051632D01*
X2563368Y-7258475D01*
X2737760Y-7375000D01*
X2563368Y-7491525D01*
X2356525Y-7698368D01*
X2194010Y-7941589D01*
X2082068Y-8211842D01*
X2025000Y-8498740D01*
X2025000Y-8791260D01*
X2082068Y-9078158D01*
X2194010Y-9348411D01*
X2356525Y-9591632D01*
X2563368Y-9798475D01*
X2806589Y-9960990D01*
X3076842Y-10072932D01*
X3363740Y-10130000D01*
X3656260Y-10130000D01*
X3943158Y-10072932D01*
X4213411Y-9960990D01*
X4456632Y-9798475D01*
X4575107Y-9680000D01*
X6810456Y-9680000D01*
X6683320Y-9870273D01*
X6575147Y-10131426D01*
X6520000Y-10408665D01*
X6520000Y-10691335D01*
X6575147Y-10968574D01*
X6683320Y-11229727D01*
X6840363Y-11464759D01*
X7040241Y-11664637D01*
X7275273Y-11821680D01*
X7277318Y-11822527D01*
X7171014Y-11832997D01*
X7027753Y-11876454D01*
X6895724Y-11947026D01*
X6779999Y-12041999D01*
X6756201Y-12070997D01*
X4709680Y-14117519D01*
X4663475Y-14048368D01*
X4531620Y-13916513D01*
X4604180Y-13894502D01*
X4714494Y-13835537D01*
X4811185Y-13756185D01*
X4890537Y-13659494D01*
X4949502Y-13549180D01*
X4985812Y-13429482D01*
X4998072Y-13305000D01*
X4995000Y-12740750D01*
X4836250Y-12582000D01*
X3637000Y-12582000D01*
X3637000Y-12602000D01*
X3383000Y-12602000D01*
X3383000Y-12582000D01*
X2183750Y-12582000D01*
X2025000Y-12740750D01*
X2021928Y-13305000D01*
X2034188Y-13429482D01*
X2070498Y-13549180D01*
X2129463Y-13659494D01*
X2208815Y-13756185D01*
X2305506Y-13835537D01*
X2415820Y-13894502D01*
X2488380Y-13916513D01*
X2356525Y-14048368D01*
X2194010Y-14291589D01*
X2082068Y-14561842D01*
X2025000Y-14848740D01*
X2025000Y-15141260D01*
X2082068Y-15428158D01*
X2194010Y-15698411D01*
X2356525Y-15941632D01*
X2563368Y-16148475D01*
X2806589Y-16310990D01*
X3076842Y-16422932D01*
X3363740Y-16480000D01*
X3656260Y-16480000D01*
X3943158Y-16422932D01*
X4213411Y-16310990D01*
X4456632Y-16148475D01*
X4663475Y-15941632D01*
X4728042Y-15845000D01*
X7101928Y-15845000D01*
X7114188Y-15969482D01*
X7150498Y-16089180D01*
X7209463Y-16199494D01*
X7288815Y-16296185D01*
X7385506Y-16375537D01*
X7495820Y-16434502D01*
X7615518Y-16470812D01*
X7740000Y-16483072D01*
X8304250Y-16480000D01*
X8463000Y-16321250D01*
X8463000Y-15122000D01*
X7263750Y-15122000D01*
X7105000Y-15280750D01*
X7101928Y-15845000D01*
X4728042Y-15845000D01*
X4788178Y-15755000D01*
X4869678Y-15755000D01*
X4907000Y-15758676D01*
X4944322Y-15755000D01*
X4944333Y-15755000D01*
X5055986Y-15744003D01*
X5199247Y-15700546D01*
X5331276Y-15629974D01*
X5447001Y-15535001D01*
X5470804Y-15505997D01*
X6831801Y-14145000D01*
X7101928Y-14145000D01*
X7105000Y-14709250D01*
X7263750Y-14868000D01*
X8463000Y-14868000D01*
X8463000Y-13668750D01*
X8717000Y-13668750D01*
X8717000Y-14868000D01*
X8737000Y-14868000D01*
X8737000Y-15122000D01*
X8717000Y-15122000D01*
X8717000Y-16321250D01*
X8875750Y-16480000D01*
X9440000Y-16483072D01*
X9564482Y-16470812D01*
X9684180Y-16434502D01*
X9794494Y-16375537D01*
X9891185Y-16296185D01*
X9970537Y-16199494D01*
X10029502Y-16089180D01*
X10051513Y-16016620D01*
X10183368Y-16148475D01*
X10426589Y-16310990D01*
X10696842Y-16422932D01*
X10983740Y-16480000D01*
X11276260Y-16480000D01*
X11563158Y-16422932D01*
X11833411Y-16310990D01*
X12076632Y-16148475D01*
X12195107Y-16030000D01*
X13607379Y-16030000D01*
X13640498Y-16139180D01*
X13699463Y-16249494D01*
X13778815Y-16346185D01*
X13875506Y-16425537D01*
X13985820Y-16484502D01*
X14105518Y-16520812D01*
X14230000Y-16533072D01*
X16730000Y-16533072D01*
X16854482Y-16520812D01*
X16974180Y-16484502D01*
X17084494Y-16425537D01*
X17181185Y-16346185D01*
X17260537Y-16249494D01*
X17319502Y-16139180D01*
X17355812Y-16019482D01*
X17368072Y-15895000D01*
X17368072Y-14095000D01*
X17355812Y-13970518D01*
X17319502Y-13850820D01*
X17260537Y-13740506D01*
X17181185Y-13643815D01*
X17084494Y-13564463D01*
X16974180Y-13505498D01*
X16854482Y-13469188D01*
X16730000Y-13456928D01*
X14230000Y-13456928D01*
X14105518Y-13469188D01*
X13985820Y-13505498D01*
X13875506Y-13564463D01*
X13778815Y-13643815D01*
X13699463Y-13740506D01*
X13640498Y-13850820D01*
X13607379Y-13960000D01*
X12195107Y-13960000D01*
X12076632Y-13841525D01*
X11833411Y-13679010D01*
X11563158Y-13567068D01*
X11276260Y-13510000D01*
X10983740Y-13510000D01*
X10696842Y-13567068D01*
X10426589Y-13679010D01*
X10183368Y-13841525D01*
X10051513Y-13973380D01*
X10029502Y-13900820D01*
X9970537Y-13790506D01*
X9891185Y-13693815D01*
X9794494Y-13614463D01*
X9684180Y-13555498D01*
X9564482Y-13519188D01*
X9440000Y-13506928D01*
X8875750Y-13510000D01*
X8717000Y-13668750D01*
X8463000Y-13668750D01*
X8304250Y-13510000D01*
X7740000Y-13506928D01*
X7615518Y-13519188D01*
X7495820Y-13555498D01*
X7385506Y-13614463D01*
X7288815Y-13693815D01*
X7209463Y-13790506D01*
X7150498Y-13900820D01*
X7114188Y-14020518D01*
X7101928Y-14145000D01*
X6831801Y-14145000D01*
X7634802Y-13342000D01*
X12362678Y-13342000D01*
X12400000Y-13345676D01*
X12437322Y-13342000D01*
X12437333Y-13342000D01*
X12548986Y-13331003D01*
X12692247Y-13287546D01*
X12824276Y-13216974D01*
X12940001Y-13122001D01*
X12963803Y-13092998D01*
X13546004Y-12510798D01*
X13575001Y-12487001D01*
X13669974Y-12371276D01*
X13740546Y-12239247D01*
X13784003Y-12095986D01*
X13795000Y-11984333D01*
X13795000Y-11984332D01*
X13798677Y-11947000D01*
X13795000Y-11909667D01*
X13795000Y-11768043D01*
X13949759Y-11664637D01*
X14149637Y-11464759D01*
X14305000Y-11232241D01*
X14460363Y-11464759D01*
X14660241Y-11664637D01*
X14895273Y-11821680D01*
X15156426Y-11929853D01*
X15433665Y-11985000D01*
X15716335Y-11985000D01*
X15993574Y-11929853D01*
X16254727Y-11821680D01*
X16489759Y-11664637D01*
X16492843Y-11661553D01*
X18288217Y-13456928D01*
X18230000Y-13456928D01*
X18105518Y-13469188D01*
X17985820Y-13505498D01*
X17875506Y-13564463D01*
X17778815Y-13643815D01*
X17699463Y-13740506D01*
X17640498Y-13850820D01*
X17604188Y-13970518D01*
X17591928Y-14095000D01*
X17591928Y-15895000D01*
X17604188Y-16019482D01*
X17640498Y-16139180D01*
X17699463Y-16249494D01*
X17778815Y-16346185D01*
X17875506Y-16425537D01*
X17985820Y-16484502D01*
X18105518Y-16520812D01*
X18230000Y-16533072D01*
X20730000Y-16533072D01*
X20854482Y-16520812D01*
X20974180Y-16484502D01*
X21084494Y-16425537D01*
X21181185Y-16346185D01*
X21260537Y-16249494D01*
X21319502Y-16139180D01*
X21352621Y-16030000D01*
X23269097Y-16030000D01*
X23170226Y-16096063D01*
X23026063Y-16240226D01*
X22912795Y-16409744D01*
X22834774Y-16598102D01*
X22795000Y-16798061D01*
X22795000Y-17001939D01*
X22834774Y-17201898D01*
X22912795Y-17390256D01*
X23026063Y-17559774D01*
X23170226Y-17703937D01*
X23339744Y-17817205D01*
X23528102Y-17895226D01*
X23728061Y-17935000D01*
X23931939Y-17935000D01*
X24131898Y-17895226D01*
X24320256Y-17817205D01*
X24489774Y-17703937D01*
X24533711Y-17660000D01*
X26967678Y-17660000D01*
X27005000Y-17663676D01*
X27042322Y-17660000D01*
X27042333Y-17660000D01*
X27153986Y-17649003D01*
X27297247Y-17605546D01*
X27429276Y-17534974D01*
X27545001Y-17440001D01*
X27568803Y-17410998D01*
X27740729Y-17239072D01*
X28074000Y-17239072D01*
X28198482Y-17226812D01*
X28318180Y-17190502D01*
X28428494Y-17131537D01*
X28525185Y-17052185D01*
X28604537Y-16955494D01*
X28663502Y-16845180D01*
X28699812Y-16725482D01*
X28712072Y-16601000D01*
X28712072Y-15801000D01*
X28699812Y-15676518D01*
X28663502Y-15556820D01*
X28604537Y-15446506D01*
X28525185Y-15349815D01*
X28470885Y-15305253D01*
X28613993Y-15261841D01*
X28793797Y-15165734D01*
X28951396Y-15036396D01*
X28983807Y-14996903D01*
X29605903Y-14374807D01*
X29620090Y-14363164D01*
X29629498Y-14394180D01*
X29688463Y-14504494D01*
X29767815Y-14601185D01*
X29864506Y-14680537D01*
X29974820Y-14739502D01*
X30094518Y-14775812D01*
X30219000Y-14788072D01*
X30783250Y-14785000D01*
X30942000Y-14626250D01*
X30942000Y-13427000D01*
X31196000Y-13427000D01*
X31196000Y-14626250D01*
X31354750Y-14785000D01*
X31919000Y-14788072D01*
X32043482Y-14775812D01*
X32163180Y-14739502D01*
X32273494Y-14680537D01*
X32370185Y-14601185D01*
X32449537Y-14504494D01*
X32508502Y-14394180D01*
X32544812Y-14274482D01*
X32557072Y-14150000D01*
X32554000Y-13585750D01*
X32395250Y-13427000D01*
X31196000Y-13427000D01*
X30942000Y-13427000D01*
X30922000Y-13427000D01*
X30922000Y-13173000D01*
X30942000Y-13173000D01*
X30942000Y-13153000D01*
X31196000Y-13153000D01*
X31196000Y-13173000D01*
X32395250Y-13173000D01*
X32554000Y-13014250D01*
X32557072Y-12450000D01*
X32544812Y-12325518D01*
X32508502Y-12205820D01*
X32449537Y-12095506D01*
X32370185Y-11998815D01*
X32273494Y-11919463D01*
X32163180Y-11860498D01*
X32090620Y-11838487D01*
X32222475Y-11706632D01*
X32384990Y-11463411D01*
X32496932Y-11193158D01*
X32554000Y-10906260D01*
X32554000Y-10613740D01*
X32496932Y-10326842D01*
X32384990Y-10056589D01*
X32222475Y-9813368D01*
X32015632Y-9606525D01*
X31841240Y-9490000D01*
X32015632Y-9373475D01*
X32222475Y-9166632D01*
X32384990Y-8923411D01*
X32496932Y-8653158D01*
X32554000Y-8366260D01*
X32554000Y-8073740D01*
X32496932Y-7786842D01*
X32384990Y-7516589D01*
X32222475Y-7273368D01*
X32015632Y-7066525D01*
X31841240Y-6950000D01*
X32015632Y-6833475D01*
X32222475Y-6626632D01*
X32384990Y-6383411D01*
X32496932Y-6113158D01*
X32554000Y-5826260D01*
X32554000Y-5533740D01*
X32496932Y-5246842D01*
X32384990Y-4976589D01*
X32222475Y-4733368D01*
X32104000Y-4614893D01*
X32104000Y-3869827D01*
X32109006Y-3818999D01*
X32104000Y-3768171D01*
X32104000Y-3768162D01*
X32089024Y-3616105D01*
X32029841Y-3421007D01*
X31933734Y-3241203D01*
X31804396Y-3083604D01*
X31764908Y-3051197D01*
X30813807Y-2100097D01*
X30781396Y-2060604D01*
X30623797Y-1931266D01*
X30443993Y-1835159D01*
X30248895Y-1775976D01*
X30096838Y-1761000D01*
X30096828Y-1761000D01*
X30046000Y-1755994D01*
X29995172Y-1761000D01*
X28105192Y-1761000D01*
X28074000Y-1757928D01*
X27174000Y-1757928D01*
X27049518Y-1770188D01*
X26929820Y-1806498D01*
X26819506Y-1865463D01*
X26722815Y-1944815D01*
X26643463Y-2041506D01*
X26584498Y-2151820D01*
X26548188Y-2271518D01*
X26535928Y-2396000D01*
X26535928Y-2907905D01*
X26525185Y-2894815D01*
X26428494Y-2815463D01*
X26318180Y-2756498D01*
X26198482Y-2720188D01*
X26074000Y-2707928D01*
X25174000Y-2707928D01*
X25142808Y-2711000D01*
X23064835Y-2711000D01*
X23014000Y-2705993D01*
X22963165Y-2711000D01*
X22963162Y-2711000D01*
X22811105Y-2725976D01*
X22661415Y-2771385D01*
X22616006Y-2785159D01*
X22436202Y-2881266D01*
X22419693Y-2894815D01*
X22278604Y-3010604D01*
X22246197Y-3050092D01*
X21229092Y-4067198D01*
X21189605Y-4099604D01*
X21157198Y-4139092D01*
X21157197Y-4139093D01*
X21060266Y-4257203D01*
X20964160Y-4437007D01*
X20904977Y-4632105D01*
X20884994Y-4835000D01*
X20890001Y-4885838D01*
X20890000Y-11134172D01*
X20884994Y-11185000D01*
X20890000Y-11235828D01*
X20890000Y-11235837D01*
X20890001Y-11235847D01*
X20890000Y-12661289D01*
X20506225Y-13045065D01*
X20500024Y-12982105D01*
X20440841Y-12787007D01*
X20396104Y-12703309D01*
X20344734Y-12607202D01*
X20247803Y-12489092D01*
X20215396Y-12449604D01*
X20175908Y-12417197D01*
X17612807Y-9854097D01*
X17580396Y-9814604D01*
X17422797Y-9685266D01*
X17242993Y-9589159D01*
X17047895Y-9529976D01*
X16895838Y-9515000D01*
X16895828Y-9515000D01*
X16845000Y-9509994D01*
X16794172Y-9515000D01*
X16610000Y-9515000D01*
X16610000Y-9330835D01*
X16615007Y-9280000D01*
X16609373Y-9222797D01*
X16595024Y-9077105D01*
X16546821Y-8918203D01*
X16535841Y-8882006D01*
X16439734Y-8702202D01*
X16388942Y-8640313D01*
X16310396Y-8544604D01*
X16270903Y-8512193D01*
X15707807Y-7949097D01*
X15675396Y-7909604D01*
X15517797Y-7780266D01*
X15337993Y-7684159D01*
X15142895Y-7624976D01*
X14990838Y-7610000D01*
X14990828Y-7610000D01*
X14940000Y-7604994D01*
X14889172Y-7610000D01*
X4575107Y-7610000D01*
X4456632Y-7491525D01*
X4282240Y-7375000D01*
X4456632Y-7258475D01*
X4663475Y-7051632D01*
X4825990Y-6808411D01*
X4937932Y-6538158D01*
X4995000Y-6251260D01*
X4995000Y-5958740D01*
X4937932Y-5671842D01*
X4825990Y-5401589D01*
X4663475Y-5158368D01*
X4531620Y-5026513D01*
X4604180Y-5004502D01*
X4714494Y-4945537D01*
X4811185Y-4866185D01*
X4890537Y-4769494D01*
X4949502Y-4659180D01*
X4985812Y-4539482D01*
X4998072Y-4415000D01*
X4995000Y-3850750D01*
X4836250Y-3692000D01*
X3637000Y-3692000D01*
X3637000Y-3712000D01*
X3383000Y-3712000D01*
X3383000Y-3692000D01*
X2183750Y-3692000D01*
X2025000Y-3850750D01*
X2021928Y-4415000D01*
X660000Y-4415000D01*
X660000Y-2715000D01*
X2021928Y-2715000D01*
X2025000Y-3279250D01*
X2183750Y-3438000D01*
X3383000Y-3438000D01*
X3383000Y-2238750D01*
X3637000Y-2238750D01*
X3637000Y-3438000D01*
X4836250Y-3438000D01*
X4995000Y-3279250D01*
X4995001Y-3279040D01*
X6563091Y-3279040D01*
X6657930Y-3543881D01*
X6802615Y-3785131D01*
X6991586Y-3993519D01*
X7217580Y-4161037D01*
X7471913Y-4281246D01*
X7605961Y-4321904D01*
X7828000Y-4199915D01*
X7828000Y-3057000D01*
X6684376Y-3057000D01*
X6563091Y-3279040D01*
X4995001Y-3279040D01*
X4998072Y-2715000D01*
X4985812Y-2590518D01*
X4982913Y-2580960D01*
X6563091Y-2580960D01*
X6684376Y-2803000D01*
X7828000Y-2803000D01*
X7828000Y-1660085D01*
X8082000Y-1660085D01*
X8082000Y-2803000D01*
X8102000Y-2803000D01*
X8102000Y-3057000D01*
X8082000Y-3057000D01*
X8082000Y-4199915D01*
X8304039Y-4321904D01*
X8438087Y-4281246D01*
X8692420Y-4161037D01*
X8918414Y-3993519D01*
X9107385Y-3785131D01*
X9218933Y-3599135D01*
X9223320Y-3609727D01*
X9380363Y-3844759D01*
X9580241Y-4044637D01*
X9815273Y-4201680D01*
X10076426Y-4309853D01*
X10353665Y-4365000D01*
X10636335Y-4365000D01*
X10913574Y-4309853D01*
X11174727Y-4201680D01*
X11409759Y-4044637D01*
X11609637Y-3844759D01*
X11765000Y-3612241D01*
X11920363Y-3844759D01*
X12120241Y-4044637D01*
X12355273Y-4201680D01*
X12616426Y-4309853D01*
X12893665Y-4365000D01*
X13176335Y-4365000D01*
X13453574Y-4309853D01*
X13714727Y-4201680D01*
X13949759Y-4044637D01*
X14148357Y-3846039D01*
X14149188Y-3854482D01*
X14185498Y-3974180D01*
X14244463Y-4084494D01*
X14323815Y-4181185D01*
X14420506Y-4260537D01*
X14530820Y-4319502D01*
X14650518Y-4355812D01*
X14775000Y-4368072D01*
X16375000Y-4368072D01*
X16499482Y-4355812D01*
X16619180Y-4319502D01*
X16729494Y-4260537D01*
X16826185Y-4181185D01*
X16905537Y-4084494D01*
X16964502Y-3974180D01*
X17000812Y-3854482D01*
X17013072Y-3730000D01*
X17013072Y-2130000D01*
X17000812Y-2005518D01*
X16964502Y-1885820D01*
X16905537Y-1775506D01*
X16826185Y-1678815D01*
X16729494Y-1599463D01*
X16619180Y-1540498D01*
X16499482Y-1504188D01*
X16375000Y-1491928D01*
X14775000Y-1491928D01*
X14650518Y-1504188D01*
X14530820Y-1540498D01*
X14420506Y-1599463D01*
X14323815Y-1678815D01*
X14244463Y-1775506D01*
X14185498Y-1885820D01*
X14149188Y-2005518D01*
X14148357Y-2013961D01*
X13949759Y-1815363D01*
X13714727Y-1658320D01*
X13453574Y-1550147D01*
X13176335Y-1495000D01*
X12893665Y-1495000D01*
X12616426Y-1550147D01*
X12355273Y-1658320D01*
X12120241Y-1815363D01*
X11920363Y-2015241D01*
X11765000Y-2247759D01*
X11609637Y-2015241D01*
X11409759Y-1815363D01*
X11174727Y-1658320D01*
X10913574Y-1550147D01*
X10636335Y-1495000D01*
X10353665Y-1495000D01*
X10076426Y-1550147D01*
X9815273Y-1658320D01*
X9580241Y-1815363D01*
X9380363Y-2015241D01*
X9223320Y-2250273D01*
X9218933Y-2260865D01*
X9107385Y-2074869D01*
X8918414Y-1866481D01*
X8692420Y-1698963D01*
X8438087Y-1578754D01*
X8304039Y-1538096D01*
X8082000Y-1660085D01*
X7828000Y-1660085D01*
X7605961Y-1538096D01*
X7471913Y-1578754D01*
X7217580Y-1698963D01*
X6991586Y-1866481D01*
X6802615Y-2074869D01*
X6657930Y-2316119D01*
X6563091Y-2580960D01*
X4982913Y-2580960D01*
X4949502Y-2470820D01*
X4890537Y-2360506D01*
X4811185Y-2263815D01*
X4714494Y-2184463D01*
X4604180Y-2125498D01*
X4484482Y-2089188D01*
X4360000Y-2076928D01*
X3795750Y-2080000D01*
X3637000Y-2238750D01*
X3383000Y-2238750D01*
X3224250Y-2080000D01*
X2660000Y-2076928D01*
X2535518Y-2089188D01*
X2415820Y-2125498D01*
X2305506Y-2184463D01*
X2208815Y-2263815D01*
X2129463Y-2360506D01*
X2070498Y-2470820D01*
X2034188Y-2590518D01*
X2021928Y-2715000D01*
X660000Y-2715000D01*
X660000Y-660000D01*
X34340000Y-660000D01*
X34340001Y-18340000D01*
%TD*%
M02*
