M48
; DRILL file {KiCad (5.1.6)-1} date 09/25/20 08:59:56
; FORMAT={-:-/ absolute / inch / decimal}
; #@! TF.CreationDate,2020-09-25T08:59:56+02:00
; #@! TF.GenerationSoftware,Kicad,Pcbnew,(5.1.6)-1
FMAT,2
INCH
T1C0.0157
T2C0.0315
T3C0.0394
%
G90
G05
T1
X0.2382Y-0.6654
X0.5118Y-0.2362
X0.6382Y-0.4904
X0.7632Y-0.0654
X0.9382Y-0.6654
X0.9632Y-0.2654
X0.9632Y-0.4904
X1.2992Y-0.0787
X1.2992Y-0.6693
T2
X0.3132Y-0.1154
X0.3132Y-0.4154
X0.4132Y-0.1154
X0.4132Y-0.4154
X0.5132Y-0.1154
X0.5132Y-0.4154
X0.6132Y-0.1154
X0.6132Y-0.4154
T3
X1.2232Y-0.2236
X1.2232Y-0.3236
X1.2232Y-0.4236
X1.2232Y-0.5236
X0.3382Y-0.5904
X0.4382Y-0.5904
X0.1382Y-0.1404
X0.1382Y-0.2404
X0.1382Y-0.3404
X0.1382Y-0.4904
X0.1382Y-0.5904
T0
M30
