%TF.GenerationSoftware,KiCad,Pcbnew,(5.1.6)-1*%
%TF.CreationDate,2020-09-24T16:39:52+02:00*%
%TF.ProjectId,rainbow-ledbar-CMS,7261696e-626f-4772-9d6c-65646261722d,rev?*%
%TF.SameCoordinates,Original*%
%TF.FileFunction,Legend,Top*%
%TF.FilePolarity,Positive*%
%FSLAX46Y46*%
G04 Gerber Fmt 4.6, Leading zero omitted, Abs format (unit mm)*
G04 Created by KiCad (PCBNEW (5.1.6)-1) date 2020-09-24 16:39:52*
%MOMM*%
%LPD*%
G01*
G04 APERTURE LIST*
%ADD10C,0.150000*%
%ADD11C,0.010000*%
%ADD12C,0.120000*%
G04 APERTURE END LIST*
D10*
X167613095Y-77159523D02*
X167994047Y-76892857D01*
X167613095Y-76702380D02*
X168413095Y-76702380D01*
X168413095Y-77007142D01*
X168375000Y-77083333D01*
X168336904Y-77121428D01*
X168260714Y-77159523D01*
X168146428Y-77159523D01*
X168070238Y-77121428D01*
X168032142Y-77083333D01*
X167994047Y-77007142D01*
X167994047Y-76702380D01*
X167613095Y-77845238D02*
X168032142Y-77845238D01*
X168108333Y-77807142D01*
X168146428Y-77730952D01*
X168146428Y-77578571D01*
X168108333Y-77502380D01*
X167651190Y-77845238D02*
X167613095Y-77769047D01*
X167613095Y-77578571D01*
X167651190Y-77502380D01*
X167727380Y-77464285D01*
X167803571Y-77464285D01*
X167879761Y-77502380D01*
X167917857Y-77578571D01*
X167917857Y-77769047D01*
X167955952Y-77845238D01*
X167613095Y-78226190D02*
X168146428Y-78226190D01*
X168413095Y-78226190D02*
X168375000Y-78188095D01*
X168336904Y-78226190D01*
X168375000Y-78264285D01*
X168413095Y-78226190D01*
X168336904Y-78226190D01*
X168146428Y-78607142D02*
X167613095Y-78607142D01*
X168070238Y-78607142D02*
X168108333Y-78645238D01*
X168146428Y-78721428D01*
X168146428Y-78835714D01*
X168108333Y-78911904D01*
X168032142Y-78950000D01*
X167613095Y-78950000D01*
X167613095Y-79330952D02*
X168413095Y-79330952D01*
X168108333Y-79330952D02*
X168146428Y-79407142D01*
X168146428Y-79559523D01*
X168108333Y-79635714D01*
X168070238Y-79673809D01*
X167994047Y-79711904D01*
X167765476Y-79711904D01*
X167689285Y-79673809D01*
X167651190Y-79635714D01*
X167613095Y-79559523D01*
X167613095Y-79407142D01*
X167651190Y-79330952D01*
X167613095Y-80169047D02*
X167651190Y-80092857D01*
X167689285Y-80054761D01*
X167765476Y-80016666D01*
X167994047Y-80016666D01*
X168070238Y-80054761D01*
X168108333Y-80092857D01*
X168146428Y-80169047D01*
X168146428Y-80283333D01*
X168108333Y-80359523D01*
X168070238Y-80397619D01*
X167994047Y-80435714D01*
X167765476Y-80435714D01*
X167689285Y-80397619D01*
X167651190Y-80359523D01*
X167613095Y-80283333D01*
X167613095Y-80169047D01*
X168146428Y-80702380D02*
X167613095Y-80854761D01*
X167994047Y-81007142D01*
X167613095Y-81159523D01*
X168146428Y-81311904D01*
X167917857Y-81616666D02*
X167917857Y-82226190D01*
X167613095Y-82721428D02*
X167651190Y-82645238D01*
X167727380Y-82607142D01*
X168413095Y-82607142D01*
X167651190Y-83330952D02*
X167613095Y-83254761D01*
X167613095Y-83102380D01*
X167651190Y-83026190D01*
X167727380Y-82988095D01*
X168032142Y-82988095D01*
X168108333Y-83026190D01*
X168146428Y-83102380D01*
X168146428Y-83254761D01*
X168108333Y-83330952D01*
X168032142Y-83369047D01*
X167955952Y-83369047D01*
X167879761Y-82988095D01*
X167613095Y-84054761D02*
X168413095Y-84054761D01*
X167651190Y-84054761D02*
X167613095Y-83978571D01*
X167613095Y-83826190D01*
X167651190Y-83750000D01*
X167689285Y-83711904D01*
X167765476Y-83673809D01*
X167994047Y-83673809D01*
X168070238Y-83711904D01*
X168108333Y-83750000D01*
X168146428Y-83826190D01*
X168146428Y-83978571D01*
X168108333Y-84054761D01*
X167613095Y-84435714D02*
X168413095Y-84435714D01*
X168108333Y-84435714D02*
X168146428Y-84511904D01*
X168146428Y-84664285D01*
X168108333Y-84740476D01*
X168070238Y-84778571D01*
X167994047Y-84816666D01*
X167765476Y-84816666D01*
X167689285Y-84778571D01*
X167651190Y-84740476D01*
X167613095Y-84664285D01*
X167613095Y-84511904D01*
X167651190Y-84435714D01*
X167613095Y-85502380D02*
X168032142Y-85502380D01*
X168108333Y-85464285D01*
X168146428Y-85388095D01*
X168146428Y-85235714D01*
X168108333Y-85159523D01*
X167651190Y-85502380D02*
X167613095Y-85426190D01*
X167613095Y-85235714D01*
X167651190Y-85159523D01*
X167727380Y-85121428D01*
X167803571Y-85121428D01*
X167879761Y-85159523D01*
X167917857Y-85235714D01*
X167917857Y-85426190D01*
X167955952Y-85502380D01*
X167613095Y-85883333D02*
X168146428Y-85883333D01*
X167994047Y-85883333D02*
X168070238Y-85921428D01*
X168108333Y-85959523D01*
X168146428Y-86035714D01*
X168146428Y-86111904D01*
X166263095Y-74759523D02*
X166644047Y-74492857D01*
X166263095Y-74302380D02*
X167063095Y-74302380D01*
X167063095Y-74607142D01*
X167025000Y-74683333D01*
X166986904Y-74721428D01*
X166910714Y-74759523D01*
X166796428Y-74759523D01*
X166720238Y-74721428D01*
X166682142Y-74683333D01*
X166644047Y-74607142D01*
X166644047Y-74302380D01*
X166263095Y-75102380D02*
X166796428Y-75102380D01*
X167063095Y-75102380D02*
X167025000Y-75064285D01*
X166986904Y-75102380D01*
X167025000Y-75140476D01*
X167063095Y-75102380D01*
X166986904Y-75102380D01*
X166301190Y-75826190D02*
X166263095Y-75750000D01*
X166263095Y-75597619D01*
X166301190Y-75521428D01*
X166339285Y-75483333D01*
X166415476Y-75445238D01*
X166644047Y-75445238D01*
X166720238Y-75483333D01*
X166758333Y-75521428D01*
X166796428Y-75597619D01*
X166796428Y-75750000D01*
X166758333Y-75826190D01*
X166263095Y-76169047D02*
X167063095Y-76169047D01*
X166263095Y-76511904D02*
X166682142Y-76511904D01*
X166758333Y-76473809D01*
X166796428Y-76397619D01*
X166796428Y-76283333D01*
X166758333Y-76207142D01*
X166720238Y-76169047D01*
X166263095Y-77235714D02*
X166682142Y-77235714D01*
X166758333Y-77197619D01*
X166796428Y-77121428D01*
X166796428Y-76969047D01*
X166758333Y-76892857D01*
X166301190Y-77235714D02*
X166263095Y-77159523D01*
X166263095Y-76969047D01*
X166301190Y-76892857D01*
X166377380Y-76854761D01*
X166453571Y-76854761D01*
X166529761Y-76892857D01*
X166567857Y-76969047D01*
X166567857Y-77159523D01*
X166605952Y-77235714D01*
X166263095Y-77616666D02*
X166796428Y-77616666D01*
X166644047Y-77616666D02*
X166720238Y-77654761D01*
X166758333Y-77692857D01*
X166796428Y-77769047D01*
X166796428Y-77845238D01*
X166263095Y-78454761D02*
X167063095Y-78454761D01*
X166301190Y-78454761D02*
X166263095Y-78378571D01*
X166263095Y-78226190D01*
X166301190Y-78150000D01*
X166339285Y-78111904D01*
X166415476Y-78073809D01*
X166644047Y-78073809D01*
X166720238Y-78111904D01*
X166758333Y-78150000D01*
X166796428Y-78226190D01*
X166796428Y-78378571D01*
X166758333Y-78454761D01*
X166682142Y-79711904D02*
X166682142Y-79445238D01*
X166263095Y-79445238D02*
X167063095Y-79445238D01*
X167063095Y-79826190D01*
X166263095Y-80473809D02*
X166682142Y-80473809D01*
X166758333Y-80435714D01*
X166796428Y-80359523D01*
X166796428Y-80207142D01*
X166758333Y-80130952D01*
X166301190Y-80473809D02*
X166263095Y-80397619D01*
X166263095Y-80207142D01*
X166301190Y-80130952D01*
X166377380Y-80092857D01*
X166453571Y-80092857D01*
X166529761Y-80130952D01*
X166567857Y-80207142D01*
X166567857Y-80397619D01*
X166605952Y-80473809D01*
X166796428Y-81197619D02*
X166148809Y-81197619D01*
X166072619Y-81159523D01*
X166034523Y-81121428D01*
X165996428Y-81045238D01*
X165996428Y-80930952D01*
X166034523Y-80854761D01*
X166301190Y-81197619D02*
X166263095Y-81121428D01*
X166263095Y-80969047D01*
X166301190Y-80892857D01*
X166339285Y-80854761D01*
X166415476Y-80816666D01*
X166644047Y-80816666D01*
X166720238Y-80854761D01*
X166758333Y-80892857D01*
X166796428Y-80969047D01*
X166796428Y-81121428D01*
X166758333Y-81197619D01*
X166263095Y-81692857D02*
X166301190Y-81616666D01*
X166339285Y-81578571D01*
X166415476Y-81540476D01*
X166644047Y-81540476D01*
X166720238Y-81578571D01*
X166758333Y-81616666D01*
X166796428Y-81692857D01*
X166796428Y-81807142D01*
X166758333Y-81883333D01*
X166720238Y-81921428D01*
X166644047Y-81959523D01*
X166415476Y-81959523D01*
X166339285Y-81921428D01*
X166301190Y-81883333D01*
X166263095Y-81807142D01*
X166263095Y-81692857D01*
X166796428Y-82188095D02*
X166796428Y-82492857D01*
X167063095Y-82302380D02*
X166377380Y-82302380D01*
X166301190Y-82340476D01*
X166263095Y-82416666D01*
X166263095Y-82492857D01*
X167063095Y-83521428D02*
X167063095Y-83597619D01*
X167025000Y-83673809D01*
X166986904Y-83711904D01*
X166910714Y-83750000D01*
X166758333Y-83788095D01*
X166567857Y-83788095D01*
X166415476Y-83750000D01*
X166339285Y-83711904D01*
X166301190Y-83673809D01*
X166263095Y-83597619D01*
X166263095Y-83521428D01*
X166301190Y-83445238D01*
X166339285Y-83407142D01*
X166415476Y-83369047D01*
X166567857Y-83330952D01*
X166758333Y-83330952D01*
X166910714Y-83369047D01*
X166986904Y-83407142D01*
X167025000Y-83445238D01*
X167063095Y-83521428D01*
X167063095Y-84473809D02*
X167063095Y-84321428D01*
X167025000Y-84245238D01*
X166986904Y-84207142D01*
X166872619Y-84130952D01*
X166720238Y-84092857D01*
X166415476Y-84092857D01*
X166339285Y-84130952D01*
X166301190Y-84169047D01*
X166263095Y-84245238D01*
X166263095Y-84397619D01*
X166301190Y-84473809D01*
X166339285Y-84511904D01*
X166415476Y-84550000D01*
X166605952Y-84550000D01*
X166682142Y-84511904D01*
X166720238Y-84473809D01*
X166758333Y-84397619D01*
X166758333Y-84245238D01*
X166720238Y-84169047D01*
X166682142Y-84130952D01*
X166605952Y-84092857D01*
X167101190Y-85464285D02*
X166072619Y-84778571D01*
X166986904Y-85692857D02*
X167025000Y-85730952D01*
X167063095Y-85807142D01*
X167063095Y-85997619D01*
X167025000Y-86073809D01*
X166986904Y-86111904D01*
X166910714Y-86150000D01*
X166834523Y-86150000D01*
X166720238Y-86111904D01*
X166263095Y-85654761D01*
X166263095Y-86150000D01*
X167063095Y-86645238D02*
X167063095Y-86721428D01*
X167025000Y-86797619D01*
X166986904Y-86835714D01*
X166910714Y-86873809D01*
X166758333Y-86911904D01*
X166567857Y-86911904D01*
X166415476Y-86873809D01*
X166339285Y-86835714D01*
X166301190Y-86797619D01*
X166263095Y-86721428D01*
X166263095Y-86645238D01*
X166301190Y-86569047D01*
X166339285Y-86530952D01*
X166415476Y-86492857D01*
X166567857Y-86454761D01*
X166758333Y-86454761D01*
X166910714Y-86492857D01*
X166986904Y-86530952D01*
X167025000Y-86569047D01*
X167063095Y-86645238D01*
X166986904Y-87216666D02*
X167025000Y-87254761D01*
X167063095Y-87330952D01*
X167063095Y-87521428D01*
X167025000Y-87597619D01*
X166986904Y-87635714D01*
X166910714Y-87673809D01*
X166834523Y-87673809D01*
X166720238Y-87635714D01*
X166263095Y-87178571D01*
X166263095Y-87673809D01*
X167063095Y-88169047D02*
X167063095Y-88245238D01*
X167025000Y-88321428D01*
X166986904Y-88359523D01*
X166910714Y-88397619D01*
X166758333Y-88435714D01*
X166567857Y-88435714D01*
X166415476Y-88397619D01*
X166339285Y-88359523D01*
X166301190Y-88321428D01*
X166263095Y-88245238D01*
X166263095Y-88169047D01*
X166301190Y-88092857D01*
X166339285Y-88054761D01*
X166415476Y-88016666D01*
X166567857Y-87978571D01*
X166758333Y-87978571D01*
X166910714Y-88016666D01*
X166986904Y-88054761D01*
X167025000Y-88092857D01*
X167063095Y-88169047D01*
D11*
%TO.C,REF\u002A\u002A*%
G36*
X163007652Y-86953910D02*
G01*
X163007222Y-87032454D01*
X163006058Y-87089298D01*
X163003793Y-87128105D01*
X163000060Y-87152538D01*
X162994494Y-87166262D01*
X162986727Y-87172940D01*
X162976395Y-87176236D01*
X162975057Y-87176556D01*
X162950921Y-87181562D01*
X162903299Y-87190829D01*
X162837259Y-87203392D01*
X162757872Y-87218287D01*
X162670204Y-87234551D01*
X162667125Y-87235119D01*
X162581211Y-87251410D01*
X162505304Y-87266652D01*
X162443955Y-87279861D01*
X162401718Y-87290054D01*
X162383145Y-87296248D01*
X162382816Y-87296543D01*
X162373747Y-87314788D01*
X162358633Y-87352405D01*
X162340738Y-87401271D01*
X162340642Y-87401543D01*
X162317507Y-87463093D01*
X162288035Y-87535657D01*
X162258403Y-87604057D01*
X162256938Y-87607294D01*
X162206374Y-87718702D01*
X162374840Y-87965399D01*
X162426197Y-88041077D01*
X162472111Y-88109631D01*
X162509970Y-88167088D01*
X162537163Y-88209476D01*
X162551079Y-88232825D01*
X162552111Y-88235042D01*
X162547516Y-88252010D01*
X162525345Y-88283701D01*
X162484553Y-88331352D01*
X162424095Y-88396198D01*
X162359773Y-88462397D01*
X162296388Y-88526214D01*
X162238549Y-88583329D01*
X162189825Y-88630305D01*
X162153790Y-88663703D01*
X162134016Y-88680085D01*
X162132998Y-88680694D01*
X162119428Y-88682505D01*
X162097267Y-88675683D01*
X162063522Y-88658540D01*
X162015200Y-88629393D01*
X161949308Y-88586555D01*
X161864483Y-88529448D01*
X161789823Y-88478766D01*
X161722860Y-88433461D01*
X161667484Y-88396150D01*
X161627580Y-88369452D01*
X161607038Y-88355985D01*
X161605644Y-88355137D01*
X161585962Y-88356781D01*
X161547707Y-88369245D01*
X161498111Y-88390048D01*
X161482272Y-88397462D01*
X161411710Y-88429814D01*
X161331647Y-88464328D01*
X161262371Y-88492365D01*
X161210955Y-88512568D01*
X161171881Y-88528615D01*
X161151459Y-88537888D01*
X161149886Y-88539041D01*
X161147279Y-88556096D01*
X161140137Y-88596298D01*
X161129477Y-88654302D01*
X161116315Y-88724763D01*
X161101667Y-88802335D01*
X161086551Y-88881672D01*
X161071982Y-88957431D01*
X161058978Y-89024264D01*
X161048555Y-89076828D01*
X161041730Y-89109776D01*
X161039801Y-89117857D01*
X161035038Y-89126205D01*
X161024282Y-89132506D01*
X161003902Y-89137045D01*
X160970266Y-89140104D01*
X160919745Y-89141967D01*
X160848708Y-89142918D01*
X160753524Y-89143240D01*
X160714508Y-89143257D01*
X160397201Y-89143257D01*
X160382161Y-89067057D01*
X160374005Y-89024663D01*
X160362101Y-88961400D01*
X160347884Y-88884962D01*
X160332790Y-88803043D01*
X160328645Y-88780400D01*
X160313947Y-88704806D01*
X160299495Y-88638953D01*
X160286625Y-88588366D01*
X160276678Y-88558574D01*
X160273713Y-88553612D01*
X160252717Y-88541426D01*
X160212033Y-88523953D01*
X160159678Y-88504577D01*
X160148400Y-88500734D01*
X160078477Y-88475339D01*
X159999582Y-88443817D01*
X159928734Y-88412969D01*
X159928405Y-88412817D01*
X159817267Y-88361447D01*
X159568747Y-88530399D01*
X159320228Y-88699352D01*
X159102942Y-88482429D01*
X159038274Y-88416819D01*
X158981267Y-88356979D01*
X158934967Y-88306267D01*
X158902416Y-88268046D01*
X158886657Y-88245675D01*
X158885657Y-88242466D01*
X158893531Y-88223626D01*
X158915422Y-88185180D01*
X158948733Y-88131330D01*
X158990869Y-88066276D01*
X159038057Y-87995940D01*
X159086190Y-87924555D01*
X159128072Y-87860908D01*
X159161129Y-87809041D01*
X159182782Y-87772995D01*
X159190457Y-87756867D01*
X159183963Y-87737189D01*
X159166850Y-87699875D01*
X159142674Y-87652621D01*
X159139987Y-87647612D01*
X159108073Y-87583977D01*
X159092421Y-87540341D01*
X159092255Y-87513202D01*
X159106796Y-87499057D01*
X159107000Y-87498975D01*
X159124221Y-87491905D01*
X159165101Y-87475042D01*
X159226475Y-87449695D01*
X159305181Y-87417171D01*
X159398053Y-87378778D01*
X159501928Y-87335822D01*
X159602498Y-87294222D01*
X159713484Y-87248504D01*
X159816297Y-87206526D01*
X159907785Y-87169548D01*
X159984799Y-87138827D01*
X160044185Y-87115622D01*
X160082791Y-87101190D01*
X160097200Y-87096743D01*
X160113728Y-87107896D01*
X160140070Y-87137069D01*
X160169113Y-87175971D01*
X160260961Y-87286757D01*
X160366241Y-87373351D01*
X160482734Y-87434716D01*
X160608224Y-87469815D01*
X160740493Y-87477608D01*
X160801543Y-87471943D01*
X160928205Y-87441078D01*
X161040059Y-87387920D01*
X161135999Y-87315767D01*
X161214924Y-87227917D01*
X161275730Y-87127665D01*
X161317313Y-87018310D01*
X161338572Y-86903147D01*
X161338401Y-86785475D01*
X161315699Y-86668590D01*
X161269362Y-86555789D01*
X161198287Y-86450369D01*
X161158089Y-86406368D01*
X161054871Y-86321979D01*
X160942075Y-86263222D01*
X160822990Y-86229704D01*
X160700905Y-86221035D01*
X160579107Y-86236823D01*
X160460884Y-86276678D01*
X160349525Y-86340207D01*
X160248316Y-86427021D01*
X160169113Y-86524029D01*
X160138838Y-86564437D01*
X160112781Y-86592982D01*
X160097175Y-86603257D01*
X160080157Y-86597877D01*
X160039500Y-86582575D01*
X159978358Y-86558612D01*
X159899881Y-86527244D01*
X159807220Y-86489732D01*
X159703528Y-86447333D01*
X159602474Y-86405663D01*
X159491393Y-86359690D01*
X159388459Y-86317107D01*
X159296835Y-86279221D01*
X159219684Y-86247340D01*
X159160169Y-86222771D01*
X159121456Y-86206820D01*
X159107000Y-86200910D01*
X159092315Y-86186948D01*
X159092358Y-86159940D01*
X159107901Y-86116413D01*
X159139716Y-86052890D01*
X159139987Y-86052388D01*
X159164677Y-86004560D01*
X159182662Y-85965897D01*
X159190386Y-85944095D01*
X159190457Y-85943133D01*
X159182622Y-85926721D01*
X159160835Y-85890487D01*
X159127672Y-85838474D01*
X159085709Y-85774725D01*
X159038057Y-85704060D01*
X158989809Y-85632116D01*
X158947849Y-85567274D01*
X158914773Y-85513735D01*
X158893179Y-85475697D01*
X158885657Y-85457533D01*
X158895543Y-85440808D01*
X158923174Y-85407180D01*
X158965505Y-85360010D01*
X159019495Y-85302658D01*
X159082101Y-85238484D01*
X159103017Y-85217497D01*
X159320377Y-85000499D01*
X159562780Y-85165668D01*
X159637219Y-85215864D01*
X159704028Y-85259919D01*
X159759335Y-85295362D01*
X159799271Y-85319719D01*
X159819964Y-85330522D01*
X159821437Y-85330838D01*
X159840942Y-85325143D01*
X159880178Y-85309826D01*
X159932570Y-85287537D01*
X159967645Y-85271893D01*
X160034799Y-85242641D01*
X160102642Y-85215094D01*
X160159966Y-85193737D01*
X160177428Y-85187935D01*
X160224062Y-85171452D01*
X160260095Y-85155340D01*
X160273713Y-85146490D01*
X160282048Y-85126960D01*
X160293863Y-85084334D01*
X160307819Y-85024145D01*
X160322578Y-84951922D01*
X160328645Y-84919600D01*
X160343727Y-84837522D01*
X160358331Y-84758795D01*
X160371020Y-84691109D01*
X160380358Y-84642160D01*
X160382161Y-84632943D01*
X160397201Y-84556743D01*
X160714508Y-84556743D01*
X160818846Y-84556914D01*
X160897787Y-84557616D01*
X160954962Y-84559134D01*
X160994001Y-84561749D01*
X161018535Y-84565746D01*
X161032195Y-84571409D01*
X161038611Y-84579020D01*
X161039801Y-84582143D01*
X161044020Y-84600978D01*
X161052438Y-84642588D01*
X161064039Y-84701630D01*
X161077805Y-84772757D01*
X161092720Y-84850625D01*
X161107768Y-84929887D01*
X161121931Y-85005198D01*
X161134194Y-85071213D01*
X161143539Y-85122587D01*
X161148950Y-85153975D01*
X161149886Y-85160959D01*
X161162404Y-85167285D01*
X161195754Y-85181290D01*
X161243623Y-85200355D01*
X161262371Y-85207634D01*
X161334805Y-85236996D01*
X161414830Y-85271571D01*
X161482272Y-85302537D01*
X161533841Y-85325323D01*
X161576215Y-85340482D01*
X161602166Y-85345542D01*
X161605644Y-85344736D01*
X161622064Y-85334041D01*
X161658583Y-85309620D01*
X161711313Y-85274095D01*
X161776365Y-85230087D01*
X161849849Y-85180217D01*
X161864355Y-85170356D01*
X161950296Y-85112492D01*
X162015739Y-85069956D01*
X162063696Y-85041054D01*
X162097180Y-85024090D01*
X162119205Y-85017367D01*
X162132783Y-85019190D01*
X162132869Y-85019236D01*
X162150703Y-85033586D01*
X162185183Y-85065323D01*
X162232732Y-85111010D01*
X162289778Y-85167204D01*
X162352745Y-85230468D01*
X162359773Y-85237602D01*
X162436980Y-85317330D01*
X162493670Y-85378857D01*
X162530890Y-85423421D01*
X162549685Y-85452257D01*
X162552111Y-85464958D01*
X162541529Y-85483494D01*
X162517084Y-85521961D01*
X162481388Y-85576386D01*
X162437053Y-85642798D01*
X162386689Y-85717225D01*
X162374840Y-85734601D01*
X162206374Y-85981297D01*
X162256938Y-86092706D01*
X162286405Y-86160457D01*
X162316041Y-86233183D01*
X162339670Y-86295703D01*
X162340642Y-86298457D01*
X162358543Y-86347360D01*
X162373680Y-86385057D01*
X162382790Y-86403425D01*
X162382816Y-86403456D01*
X162399283Y-86409285D01*
X162439781Y-86419192D01*
X162499758Y-86432195D01*
X162574660Y-86447309D01*
X162659936Y-86463552D01*
X162667125Y-86464881D01*
X162754986Y-86481175D01*
X162834740Y-86496133D01*
X162901319Y-86508791D01*
X162949653Y-86518186D01*
X162974675Y-86523354D01*
X162975057Y-86523444D01*
X162985701Y-86526589D01*
X162993738Y-86532704D01*
X162999533Y-86545453D01*
X163003453Y-86568500D01*
X163005865Y-86605509D01*
X163007135Y-86660144D01*
X163007629Y-86736067D01*
X163007714Y-86836944D01*
X163007714Y-86850000D01*
X163007652Y-86953910D01*
G37*
X163007652Y-86953910D02*
X163007222Y-87032454D01*
X163006058Y-87089298D01*
X163003793Y-87128105D01*
X163000060Y-87152538D01*
X162994494Y-87166262D01*
X162986727Y-87172940D01*
X162976395Y-87176236D01*
X162975057Y-87176556D01*
X162950921Y-87181562D01*
X162903299Y-87190829D01*
X162837259Y-87203392D01*
X162757872Y-87218287D01*
X162670204Y-87234551D01*
X162667125Y-87235119D01*
X162581211Y-87251410D01*
X162505304Y-87266652D01*
X162443955Y-87279861D01*
X162401718Y-87290054D01*
X162383145Y-87296248D01*
X162382816Y-87296543D01*
X162373747Y-87314788D01*
X162358633Y-87352405D01*
X162340738Y-87401271D01*
X162340642Y-87401543D01*
X162317507Y-87463093D01*
X162288035Y-87535657D01*
X162258403Y-87604057D01*
X162256938Y-87607294D01*
X162206374Y-87718702D01*
X162374840Y-87965399D01*
X162426197Y-88041077D01*
X162472111Y-88109631D01*
X162509970Y-88167088D01*
X162537163Y-88209476D01*
X162551079Y-88232825D01*
X162552111Y-88235042D01*
X162547516Y-88252010D01*
X162525345Y-88283701D01*
X162484553Y-88331352D01*
X162424095Y-88396198D01*
X162359773Y-88462397D01*
X162296388Y-88526214D01*
X162238549Y-88583329D01*
X162189825Y-88630305D01*
X162153790Y-88663703D01*
X162134016Y-88680085D01*
X162132998Y-88680694D01*
X162119428Y-88682505D01*
X162097267Y-88675683D01*
X162063522Y-88658540D01*
X162015200Y-88629393D01*
X161949308Y-88586555D01*
X161864483Y-88529448D01*
X161789823Y-88478766D01*
X161722860Y-88433461D01*
X161667484Y-88396150D01*
X161627580Y-88369452D01*
X161607038Y-88355985D01*
X161605644Y-88355137D01*
X161585962Y-88356781D01*
X161547707Y-88369245D01*
X161498111Y-88390048D01*
X161482272Y-88397462D01*
X161411710Y-88429814D01*
X161331647Y-88464328D01*
X161262371Y-88492365D01*
X161210955Y-88512568D01*
X161171881Y-88528615D01*
X161151459Y-88537888D01*
X161149886Y-88539041D01*
X161147279Y-88556096D01*
X161140137Y-88596298D01*
X161129477Y-88654302D01*
X161116315Y-88724763D01*
X161101667Y-88802335D01*
X161086551Y-88881672D01*
X161071982Y-88957431D01*
X161058978Y-89024264D01*
X161048555Y-89076828D01*
X161041730Y-89109776D01*
X161039801Y-89117857D01*
X161035038Y-89126205D01*
X161024282Y-89132506D01*
X161003902Y-89137045D01*
X160970266Y-89140104D01*
X160919745Y-89141967D01*
X160848708Y-89142918D01*
X160753524Y-89143240D01*
X160714508Y-89143257D01*
X160397201Y-89143257D01*
X160382161Y-89067057D01*
X160374005Y-89024663D01*
X160362101Y-88961400D01*
X160347884Y-88884962D01*
X160332790Y-88803043D01*
X160328645Y-88780400D01*
X160313947Y-88704806D01*
X160299495Y-88638953D01*
X160286625Y-88588366D01*
X160276678Y-88558574D01*
X160273713Y-88553612D01*
X160252717Y-88541426D01*
X160212033Y-88523953D01*
X160159678Y-88504577D01*
X160148400Y-88500734D01*
X160078477Y-88475339D01*
X159999582Y-88443817D01*
X159928734Y-88412969D01*
X159928405Y-88412817D01*
X159817267Y-88361447D01*
X159568747Y-88530399D01*
X159320228Y-88699352D01*
X159102942Y-88482429D01*
X159038274Y-88416819D01*
X158981267Y-88356979D01*
X158934967Y-88306267D01*
X158902416Y-88268046D01*
X158886657Y-88245675D01*
X158885657Y-88242466D01*
X158893531Y-88223626D01*
X158915422Y-88185180D01*
X158948733Y-88131330D01*
X158990869Y-88066276D01*
X159038057Y-87995940D01*
X159086190Y-87924555D01*
X159128072Y-87860908D01*
X159161129Y-87809041D01*
X159182782Y-87772995D01*
X159190457Y-87756867D01*
X159183963Y-87737189D01*
X159166850Y-87699875D01*
X159142674Y-87652621D01*
X159139987Y-87647612D01*
X159108073Y-87583977D01*
X159092421Y-87540341D01*
X159092255Y-87513202D01*
X159106796Y-87499057D01*
X159107000Y-87498975D01*
X159124221Y-87491905D01*
X159165101Y-87475042D01*
X159226475Y-87449695D01*
X159305181Y-87417171D01*
X159398053Y-87378778D01*
X159501928Y-87335822D01*
X159602498Y-87294222D01*
X159713484Y-87248504D01*
X159816297Y-87206526D01*
X159907785Y-87169548D01*
X159984799Y-87138827D01*
X160044185Y-87115622D01*
X160082791Y-87101190D01*
X160097200Y-87096743D01*
X160113728Y-87107896D01*
X160140070Y-87137069D01*
X160169113Y-87175971D01*
X160260961Y-87286757D01*
X160366241Y-87373351D01*
X160482734Y-87434716D01*
X160608224Y-87469815D01*
X160740493Y-87477608D01*
X160801543Y-87471943D01*
X160928205Y-87441078D01*
X161040059Y-87387920D01*
X161135999Y-87315767D01*
X161214924Y-87227917D01*
X161275730Y-87127665D01*
X161317313Y-87018310D01*
X161338572Y-86903147D01*
X161338401Y-86785475D01*
X161315699Y-86668590D01*
X161269362Y-86555789D01*
X161198287Y-86450369D01*
X161158089Y-86406368D01*
X161054871Y-86321979D01*
X160942075Y-86263222D01*
X160822990Y-86229704D01*
X160700905Y-86221035D01*
X160579107Y-86236823D01*
X160460884Y-86276678D01*
X160349525Y-86340207D01*
X160248316Y-86427021D01*
X160169113Y-86524029D01*
X160138838Y-86564437D01*
X160112781Y-86592982D01*
X160097175Y-86603257D01*
X160080157Y-86597877D01*
X160039500Y-86582575D01*
X159978358Y-86558612D01*
X159899881Y-86527244D01*
X159807220Y-86489732D01*
X159703528Y-86447333D01*
X159602474Y-86405663D01*
X159491393Y-86359690D01*
X159388459Y-86317107D01*
X159296835Y-86279221D01*
X159219684Y-86247340D01*
X159160169Y-86222771D01*
X159121456Y-86206820D01*
X159107000Y-86200910D01*
X159092315Y-86186948D01*
X159092358Y-86159940D01*
X159107901Y-86116413D01*
X159139716Y-86052890D01*
X159139987Y-86052388D01*
X159164677Y-86004560D01*
X159182662Y-85965897D01*
X159190386Y-85944095D01*
X159190457Y-85943133D01*
X159182622Y-85926721D01*
X159160835Y-85890487D01*
X159127672Y-85838474D01*
X159085709Y-85774725D01*
X159038057Y-85704060D01*
X158989809Y-85632116D01*
X158947849Y-85567274D01*
X158914773Y-85513735D01*
X158893179Y-85475697D01*
X158885657Y-85457533D01*
X158895543Y-85440808D01*
X158923174Y-85407180D01*
X158965505Y-85360010D01*
X159019495Y-85302658D01*
X159082101Y-85238484D01*
X159103017Y-85217497D01*
X159320377Y-85000499D01*
X159562780Y-85165668D01*
X159637219Y-85215864D01*
X159704028Y-85259919D01*
X159759335Y-85295362D01*
X159799271Y-85319719D01*
X159819964Y-85330522D01*
X159821437Y-85330838D01*
X159840942Y-85325143D01*
X159880178Y-85309826D01*
X159932570Y-85287537D01*
X159967645Y-85271893D01*
X160034799Y-85242641D01*
X160102642Y-85215094D01*
X160159966Y-85193737D01*
X160177428Y-85187935D01*
X160224062Y-85171452D01*
X160260095Y-85155340D01*
X160273713Y-85146490D01*
X160282048Y-85126960D01*
X160293863Y-85084334D01*
X160307819Y-85024145D01*
X160322578Y-84951922D01*
X160328645Y-84919600D01*
X160343727Y-84837522D01*
X160358331Y-84758795D01*
X160371020Y-84691109D01*
X160380358Y-84642160D01*
X160382161Y-84632943D01*
X160397201Y-84556743D01*
X160714508Y-84556743D01*
X160818846Y-84556914D01*
X160897787Y-84557616D01*
X160954962Y-84559134D01*
X160994001Y-84561749D01*
X161018535Y-84565746D01*
X161032195Y-84571409D01*
X161038611Y-84579020D01*
X161039801Y-84582143D01*
X161044020Y-84600978D01*
X161052438Y-84642588D01*
X161064039Y-84701630D01*
X161077805Y-84772757D01*
X161092720Y-84850625D01*
X161107768Y-84929887D01*
X161121931Y-85005198D01*
X161134194Y-85071213D01*
X161143539Y-85122587D01*
X161148950Y-85153975D01*
X161149886Y-85160959D01*
X161162404Y-85167285D01*
X161195754Y-85181290D01*
X161243623Y-85200355D01*
X161262371Y-85207634D01*
X161334805Y-85236996D01*
X161414830Y-85271571D01*
X161482272Y-85302537D01*
X161533841Y-85325323D01*
X161576215Y-85340482D01*
X161602166Y-85345542D01*
X161605644Y-85344736D01*
X161622064Y-85334041D01*
X161658583Y-85309620D01*
X161711313Y-85274095D01*
X161776365Y-85230087D01*
X161849849Y-85180217D01*
X161864355Y-85170356D01*
X161950296Y-85112492D01*
X162015739Y-85069956D01*
X162063696Y-85041054D01*
X162097180Y-85024090D01*
X162119205Y-85017367D01*
X162132783Y-85019190D01*
X162132869Y-85019236D01*
X162150703Y-85033586D01*
X162185183Y-85065323D01*
X162232732Y-85111010D01*
X162289778Y-85167204D01*
X162352745Y-85230468D01*
X162359773Y-85237602D01*
X162436980Y-85317330D01*
X162493670Y-85378857D01*
X162530890Y-85423421D01*
X162549685Y-85452257D01*
X162552111Y-85464958D01*
X162541529Y-85483494D01*
X162517084Y-85521961D01*
X162481388Y-85576386D01*
X162437053Y-85642798D01*
X162386689Y-85717225D01*
X162374840Y-85734601D01*
X162206374Y-85981297D01*
X162256938Y-86092706D01*
X162286405Y-86160457D01*
X162316041Y-86233183D01*
X162339670Y-86295703D01*
X162340642Y-86298457D01*
X162358543Y-86347360D01*
X162373680Y-86385057D01*
X162382790Y-86403425D01*
X162382816Y-86403456D01*
X162399283Y-86409285D01*
X162439781Y-86419192D01*
X162499758Y-86432195D01*
X162574660Y-86447309D01*
X162659936Y-86463552D01*
X162667125Y-86464881D01*
X162754986Y-86481175D01*
X162834740Y-86496133D01*
X162901319Y-86508791D01*
X162949653Y-86518186D01*
X162974675Y-86523354D01*
X162975057Y-86523444D01*
X162985701Y-86526589D01*
X162993738Y-86532704D01*
X162999533Y-86545453D01*
X163003453Y-86568500D01*
X163005865Y-86605509D01*
X163007135Y-86660144D01*
X163007629Y-86736067D01*
X163007714Y-86836944D01*
X163007714Y-86850000D01*
X163007652Y-86953910D01*
G36*
X158283034Y-90003595D02*
G01*
X158245503Y-90061021D01*
X158211904Y-90088719D01*
X158150936Y-90110662D01*
X158102692Y-90112405D01*
X158038184Y-90108457D01*
X157973066Y-89959686D01*
X157939798Y-89887349D01*
X157913036Y-89840084D01*
X157889856Y-89815507D01*
X157867333Y-89811237D01*
X157842545Y-89824889D01*
X157826114Y-89839943D01*
X157799765Y-89883746D01*
X157797919Y-89931389D01*
X157818454Y-89975145D01*
X157859248Y-90007289D01*
X157873653Y-90013038D01*
X157918644Y-90040576D01*
X157937818Y-90072258D01*
X157954221Y-90115714D01*
X157892034Y-90115714D01*
X157849717Y-90111872D01*
X157814031Y-90096823D01*
X157773057Y-90065280D01*
X157767733Y-90060592D01*
X157731280Y-90025506D01*
X157711717Y-89995347D01*
X157702717Y-89957615D01*
X157699770Y-89926335D01*
X157699035Y-89870385D01*
X157708340Y-89830555D01*
X157722154Y-89805708D01*
X157752533Y-89766656D01*
X157785387Y-89739625D01*
X157826706Y-89722517D01*
X157882479Y-89713238D01*
X157958695Y-89709693D01*
X157997378Y-89709410D01*
X158043753Y-89710372D01*
X158043753Y-89798007D01*
X158018874Y-89799023D01*
X158014800Y-89801556D01*
X158020335Y-89818274D01*
X158034983Y-89854249D01*
X158055810Y-89902331D01*
X158060286Y-89912386D01*
X158091186Y-89973152D01*
X158118343Y-90006632D01*
X158143780Y-90013990D01*
X158169519Y-89996391D01*
X158180891Y-89981856D01*
X158203636Y-89929410D01*
X158199878Y-89880322D01*
X158172116Y-89839227D01*
X158122848Y-89810758D01*
X158083743Y-89801631D01*
X158043753Y-89798007D01*
X158043753Y-89710372D01*
X158087751Y-89711285D01*
X158154616Y-89718196D01*
X158203305Y-89731884D01*
X158239151Y-89754096D01*
X158267487Y-89786574D01*
X158276645Y-89800733D01*
X158300493Y-89865053D01*
X158301994Y-89935473D01*
X158283034Y-90003595D01*
G37*
X158283034Y-90003595D02*
X158245503Y-90061021D01*
X158211904Y-90088719D01*
X158150936Y-90110662D01*
X158102692Y-90112405D01*
X158038184Y-90108457D01*
X157973066Y-89959686D01*
X157939798Y-89887349D01*
X157913036Y-89840084D01*
X157889856Y-89815507D01*
X157867333Y-89811237D01*
X157842545Y-89824889D01*
X157826114Y-89839943D01*
X157799765Y-89883746D01*
X157797919Y-89931389D01*
X157818454Y-89975145D01*
X157859248Y-90007289D01*
X157873653Y-90013038D01*
X157918644Y-90040576D01*
X157937818Y-90072258D01*
X157954221Y-90115714D01*
X157892034Y-90115714D01*
X157849717Y-90111872D01*
X157814031Y-90096823D01*
X157773057Y-90065280D01*
X157767733Y-90060592D01*
X157731280Y-90025506D01*
X157711717Y-89995347D01*
X157702717Y-89957615D01*
X157699770Y-89926335D01*
X157699035Y-89870385D01*
X157708340Y-89830555D01*
X157722154Y-89805708D01*
X157752533Y-89766656D01*
X157785387Y-89739625D01*
X157826706Y-89722517D01*
X157882479Y-89713238D01*
X157958695Y-89709693D01*
X157997378Y-89709410D01*
X158043753Y-89710372D01*
X158043753Y-89798007D01*
X158018874Y-89799023D01*
X158014800Y-89801556D01*
X158020335Y-89818274D01*
X158034983Y-89854249D01*
X158055810Y-89902331D01*
X158060286Y-89912386D01*
X158091186Y-89973152D01*
X158118343Y-90006632D01*
X158143780Y-90013990D01*
X158169519Y-89996391D01*
X158180891Y-89981856D01*
X158203636Y-89929410D01*
X158199878Y-89880322D01*
X158172116Y-89839227D01*
X158122848Y-89810758D01*
X158083743Y-89801631D01*
X158043753Y-89798007D01*
X158043753Y-89710372D01*
X158087751Y-89711285D01*
X158154616Y-89718196D01*
X158203305Y-89731884D01*
X158239151Y-89754096D01*
X158267487Y-89786574D01*
X158276645Y-89800733D01*
X158300493Y-89865053D01*
X158301994Y-89935473D01*
X158283034Y-90003595D01*
G36*
X158291248Y-89502600D02*
G01*
X158283666Y-89519948D01*
X158250872Y-89561356D01*
X158203453Y-89596765D01*
X158152849Y-89618664D01*
X158127902Y-89622229D01*
X158093073Y-89610279D01*
X158074643Y-89584067D01*
X158063484Y-89555964D01*
X158061428Y-89543095D01*
X158076351Y-89536829D01*
X158108825Y-89524456D01*
X158123498Y-89519028D01*
X158174256Y-89488590D01*
X158199573Y-89444520D01*
X158198794Y-89388010D01*
X158197797Y-89383825D01*
X158183493Y-89353655D01*
X158155607Y-89331476D01*
X158110713Y-89316327D01*
X158045385Y-89307250D01*
X157956196Y-89303286D01*
X157908739Y-89302914D01*
X157833929Y-89302730D01*
X157782931Y-89301522D01*
X157750529Y-89298309D01*
X157731505Y-89292109D01*
X157720644Y-89281940D01*
X157712728Y-89266819D01*
X157712330Y-89265946D01*
X157700019Y-89236828D01*
X157695486Y-89222403D01*
X157709191Y-89220186D01*
X157747075Y-89218289D01*
X157804285Y-89216847D01*
X157875973Y-89215998D01*
X157928435Y-89215829D01*
X158029953Y-89216692D01*
X158106968Y-89220070D01*
X158163977Y-89227142D01*
X158205474Y-89239088D01*
X158235957Y-89257090D01*
X158259920Y-89282327D01*
X158276645Y-89307247D01*
X158298903Y-89367171D01*
X158303924Y-89436911D01*
X158291248Y-89502600D01*
G37*
X158291248Y-89502600D02*
X158283666Y-89519948D01*
X158250872Y-89561356D01*
X158203453Y-89596765D01*
X158152849Y-89618664D01*
X158127902Y-89622229D01*
X158093073Y-89610279D01*
X158074643Y-89584067D01*
X158063484Y-89555964D01*
X158061428Y-89543095D01*
X158076351Y-89536829D01*
X158108825Y-89524456D01*
X158123498Y-89519028D01*
X158174256Y-89488590D01*
X158199573Y-89444520D01*
X158198794Y-89388010D01*
X158197797Y-89383825D01*
X158183493Y-89353655D01*
X158155607Y-89331476D01*
X158110713Y-89316327D01*
X158045385Y-89307250D01*
X157956196Y-89303286D01*
X157908739Y-89302914D01*
X157833929Y-89302730D01*
X157782931Y-89301522D01*
X157750529Y-89298309D01*
X157731505Y-89292109D01*
X157720644Y-89281940D01*
X157712728Y-89266819D01*
X157712330Y-89265946D01*
X157700019Y-89236828D01*
X157695486Y-89222403D01*
X157709191Y-89220186D01*
X157747075Y-89218289D01*
X157804285Y-89216847D01*
X157875973Y-89215998D01*
X157928435Y-89215829D01*
X158029953Y-89216692D01*
X158106968Y-89220070D01*
X158163977Y-89227142D01*
X158205474Y-89239088D01*
X158235957Y-89257090D01*
X158259920Y-89282327D01*
X158276645Y-89307247D01*
X158298903Y-89367171D01*
X158303924Y-89436911D01*
X158291248Y-89502600D01*
G36*
X158293665Y-88994876D02*
G01*
X158274656Y-89036667D01*
X158251622Y-89069469D01*
X158225867Y-89093503D01*
X158192642Y-89110097D01*
X158147200Y-89120577D01*
X158084793Y-89126271D01*
X158000673Y-89128507D01*
X157945279Y-89128743D01*
X157729174Y-89128743D01*
X157712330Y-89091774D01*
X157700019Y-89062656D01*
X157695486Y-89048231D01*
X157708975Y-89045472D01*
X157745347Y-89043282D01*
X157798458Y-89041942D01*
X157840628Y-89041657D01*
X157901553Y-89040434D01*
X157949885Y-89037136D01*
X157979482Y-89032321D01*
X157985771Y-89028496D01*
X157979348Y-89002783D01*
X157962875Y-88962418D01*
X157940542Y-88915679D01*
X157916543Y-88870845D01*
X157895070Y-88836193D01*
X157880315Y-88820002D01*
X157880155Y-88819938D01*
X157852848Y-88821330D01*
X157826781Y-88833818D01*
X157805608Y-88855743D01*
X157798526Y-88887743D01*
X157799351Y-88915092D01*
X157799958Y-88953826D01*
X157790884Y-88974158D01*
X157766908Y-88986369D01*
X157762387Y-88987909D01*
X157728194Y-88993203D01*
X157707432Y-88979047D01*
X157697538Y-88942148D01*
X157695708Y-88902289D01*
X157709273Y-88830562D01*
X157728645Y-88793432D01*
X157774155Y-88747576D01*
X157830017Y-88723256D01*
X157889043Y-88721073D01*
X157944047Y-88741629D01*
X157978514Y-88772549D01*
X157997811Y-88803420D01*
X158022241Y-88851942D01*
X158047015Y-88908485D01*
X158050801Y-88917910D01*
X158078209Y-88980019D01*
X158102366Y-89015822D01*
X158126381Y-89027337D01*
X158153365Y-89016580D01*
X158174457Y-88998114D01*
X158200428Y-88954469D01*
X158202376Y-88906446D01*
X158182363Y-88862406D01*
X158142449Y-88830709D01*
X158132152Y-88826549D01*
X158094276Y-88802327D01*
X158066158Y-88766965D01*
X158043083Y-88722343D01*
X158108515Y-88722343D01*
X158148494Y-88724969D01*
X158180003Y-88736230D01*
X158213622Y-88761199D01*
X158239516Y-88785169D01*
X158276183Y-88822441D01*
X158295879Y-88851401D01*
X158303780Y-88882505D01*
X158305086Y-88917713D01*
X158293665Y-88994876D01*
G37*
X158293665Y-88994876D02*
X158274656Y-89036667D01*
X158251622Y-89069469D01*
X158225867Y-89093503D01*
X158192642Y-89110097D01*
X158147200Y-89120577D01*
X158084793Y-89126271D01*
X158000673Y-89128507D01*
X157945279Y-89128743D01*
X157729174Y-89128743D01*
X157712330Y-89091774D01*
X157700019Y-89062656D01*
X157695486Y-89048231D01*
X157708975Y-89045472D01*
X157745347Y-89043282D01*
X157798458Y-89041942D01*
X157840628Y-89041657D01*
X157901553Y-89040434D01*
X157949885Y-89037136D01*
X157979482Y-89032321D01*
X157985771Y-89028496D01*
X157979348Y-89002783D01*
X157962875Y-88962418D01*
X157940542Y-88915679D01*
X157916543Y-88870845D01*
X157895070Y-88836193D01*
X157880315Y-88820002D01*
X157880155Y-88819938D01*
X157852848Y-88821330D01*
X157826781Y-88833818D01*
X157805608Y-88855743D01*
X157798526Y-88887743D01*
X157799351Y-88915092D01*
X157799958Y-88953826D01*
X157790884Y-88974158D01*
X157766908Y-88986369D01*
X157762387Y-88987909D01*
X157728194Y-88993203D01*
X157707432Y-88979047D01*
X157697538Y-88942148D01*
X157695708Y-88902289D01*
X157709273Y-88830562D01*
X157728645Y-88793432D01*
X157774155Y-88747576D01*
X157830017Y-88723256D01*
X157889043Y-88721073D01*
X157944047Y-88741629D01*
X157978514Y-88772549D01*
X157997811Y-88803420D01*
X158022241Y-88851942D01*
X158047015Y-88908485D01*
X158050801Y-88917910D01*
X158078209Y-88980019D01*
X158102366Y-89015822D01*
X158126381Y-89027337D01*
X158153365Y-89016580D01*
X158174457Y-88998114D01*
X158200428Y-88954469D01*
X158202376Y-88906446D01*
X158182363Y-88862406D01*
X158142449Y-88830709D01*
X158132152Y-88826549D01*
X158094276Y-88802327D01*
X158066158Y-88766965D01*
X158043083Y-88722343D01*
X158108515Y-88722343D01*
X158148494Y-88724969D01*
X158180003Y-88736230D01*
X158213622Y-88761199D01*
X158239516Y-88785169D01*
X158276183Y-88822441D01*
X158295879Y-88851401D01*
X158303780Y-88882505D01*
X158305086Y-88917713D01*
X158293665Y-88994876D01*
G36*
X158291337Y-88629833D02*
G01*
X158253150Y-88632048D01*
X158195114Y-88633784D01*
X158121820Y-88634899D01*
X158044945Y-88635257D01*
X157784804Y-88635257D01*
X157738873Y-88589326D01*
X157710571Y-88557675D01*
X157699107Y-88529890D01*
X157699832Y-88491915D01*
X157701679Y-88476840D01*
X157707052Y-88429726D01*
X157710131Y-88390756D01*
X157710415Y-88381257D01*
X157708555Y-88349233D01*
X157703886Y-88303432D01*
X157701679Y-88285674D01*
X157698265Y-88242057D01*
X157705680Y-88212745D01*
X157728573Y-88183680D01*
X157738873Y-88173188D01*
X157784804Y-88127257D01*
X158271398Y-88127257D01*
X158288242Y-88164226D01*
X158300718Y-88196059D01*
X158305086Y-88214683D01*
X158291282Y-88219458D01*
X158252714Y-88223921D01*
X158193644Y-88227775D01*
X158118337Y-88230722D01*
X158054714Y-88232143D01*
X157804343Y-88236114D01*
X157799444Y-88270759D01*
X157802869Y-88302268D01*
X157813959Y-88317708D01*
X157834692Y-88322023D01*
X157878855Y-88325708D01*
X157940854Y-88328469D01*
X158015091Y-88330012D01*
X158053294Y-88330235D01*
X158273217Y-88330457D01*
X158289151Y-88376166D01*
X158299985Y-88408518D01*
X158305038Y-88426115D01*
X158305086Y-88426623D01*
X158291352Y-88428388D01*
X158253270Y-88430329D01*
X158195518Y-88432282D01*
X158122773Y-88434084D01*
X158054714Y-88435343D01*
X157804343Y-88439314D01*
X157804343Y-88526400D01*
X158032760Y-88530396D01*
X158261178Y-88534392D01*
X158283132Y-88576847D01*
X158298207Y-88608192D01*
X158305049Y-88626744D01*
X158305086Y-88627279D01*
X158291337Y-88629833D01*
G37*
X158291337Y-88629833D02*
X158253150Y-88632048D01*
X158195114Y-88633784D01*
X158121820Y-88634899D01*
X158044945Y-88635257D01*
X157784804Y-88635257D01*
X157738873Y-88589326D01*
X157710571Y-88557675D01*
X157699107Y-88529890D01*
X157699832Y-88491915D01*
X157701679Y-88476840D01*
X157707052Y-88429726D01*
X157710131Y-88390756D01*
X157710415Y-88381257D01*
X157708555Y-88349233D01*
X157703886Y-88303432D01*
X157701679Y-88285674D01*
X157698265Y-88242057D01*
X157705680Y-88212745D01*
X157728573Y-88183680D01*
X157738873Y-88173188D01*
X157784804Y-88127257D01*
X158271398Y-88127257D01*
X158288242Y-88164226D01*
X158300718Y-88196059D01*
X158305086Y-88214683D01*
X158291282Y-88219458D01*
X158252714Y-88223921D01*
X158193644Y-88227775D01*
X158118337Y-88230722D01*
X158054714Y-88232143D01*
X157804343Y-88236114D01*
X157799444Y-88270759D01*
X157802869Y-88302268D01*
X157813959Y-88317708D01*
X157834692Y-88322023D01*
X157878855Y-88325708D01*
X157940854Y-88328469D01*
X158015091Y-88330012D01*
X158053294Y-88330235D01*
X158273217Y-88330457D01*
X158289151Y-88376166D01*
X158299985Y-88408518D01*
X158305038Y-88426115D01*
X158305086Y-88426623D01*
X158291352Y-88428388D01*
X158253270Y-88430329D01*
X158195518Y-88432282D01*
X158122773Y-88434084D01*
X158054714Y-88435343D01*
X157804343Y-88439314D01*
X157804343Y-88526400D01*
X158032760Y-88530396D01*
X158261178Y-88534392D01*
X158283132Y-88576847D01*
X158298207Y-88608192D01*
X158305049Y-88626744D01*
X158305086Y-88627279D01*
X158291337Y-88629833D01*
G36*
X158184642Y-88040117D02*
G01*
X158076163Y-88039933D01*
X157992713Y-88039219D01*
X157930296Y-88037675D01*
X157884915Y-88035001D01*
X157852571Y-88030894D01*
X157829267Y-88025055D01*
X157811005Y-88017182D01*
X157800582Y-88011221D01*
X157744055Y-87961855D01*
X157708623Y-87899264D01*
X157695910Y-87830013D01*
X157707537Y-87760668D01*
X157728432Y-87719375D01*
X157764578Y-87676025D01*
X157808724Y-87646481D01*
X157866538Y-87628655D01*
X157943687Y-87620463D01*
X158000286Y-87619302D01*
X158004353Y-87619458D01*
X158004353Y-87720857D01*
X157939450Y-87721476D01*
X157896486Y-87724314D01*
X157868378Y-87730840D01*
X157848047Y-87742523D01*
X157832712Y-87756483D01*
X157803110Y-87803365D01*
X157800581Y-87853701D01*
X157825295Y-87901276D01*
X157828644Y-87904979D01*
X157846065Y-87920783D01*
X157866791Y-87930693D01*
X157897638Y-87936058D01*
X157945423Y-87938228D01*
X157998252Y-87938571D01*
X158064619Y-87937827D01*
X158108894Y-87934748D01*
X158137991Y-87928061D01*
X158158827Y-87916496D01*
X158169893Y-87907013D01*
X158197802Y-87862960D01*
X158201157Y-87812224D01*
X158179841Y-87763796D01*
X158171927Y-87754450D01*
X158154353Y-87738540D01*
X158133413Y-87728610D01*
X158102218Y-87723278D01*
X158053878Y-87721163D01*
X158004353Y-87720857D01*
X158004353Y-87619458D01*
X158091432Y-87622810D01*
X158159914Y-87634726D01*
X158211400Y-87657135D01*
X158251557Y-87692124D01*
X158272139Y-87719375D01*
X158294375Y-87768907D01*
X158304696Y-87826316D01*
X158301933Y-87879682D01*
X158290788Y-87909543D01*
X158287617Y-87921261D01*
X158299443Y-87929037D01*
X158331134Y-87934465D01*
X158379407Y-87938571D01*
X158433171Y-87943067D01*
X158465518Y-87949313D01*
X158484015Y-87960676D01*
X158496230Y-87980528D01*
X158501638Y-87993000D01*
X158521399Y-88040171D01*
X158184642Y-88040117D01*
G37*
X158184642Y-88040117D02*
X158076163Y-88039933D01*
X157992713Y-88039219D01*
X157930296Y-88037675D01*
X157884915Y-88035001D01*
X157852571Y-88030894D01*
X157829267Y-88025055D01*
X157811005Y-88017182D01*
X157800582Y-88011221D01*
X157744055Y-87961855D01*
X157708623Y-87899264D01*
X157695910Y-87830013D01*
X157707537Y-87760668D01*
X157728432Y-87719375D01*
X157764578Y-87676025D01*
X157808724Y-87646481D01*
X157866538Y-87628655D01*
X157943687Y-87620463D01*
X158000286Y-87619302D01*
X158004353Y-87619458D01*
X158004353Y-87720857D01*
X157939450Y-87721476D01*
X157896486Y-87724314D01*
X157868378Y-87730840D01*
X157848047Y-87742523D01*
X157832712Y-87756483D01*
X157803110Y-87803365D01*
X157800581Y-87853701D01*
X157825295Y-87901276D01*
X157828644Y-87904979D01*
X157846065Y-87920783D01*
X157866791Y-87930693D01*
X157897638Y-87936058D01*
X157945423Y-87938228D01*
X157998252Y-87938571D01*
X158064619Y-87937827D01*
X158108894Y-87934748D01*
X158137991Y-87928061D01*
X158158827Y-87916496D01*
X158169893Y-87907013D01*
X158197802Y-87862960D01*
X158201157Y-87812224D01*
X158179841Y-87763796D01*
X158171927Y-87754450D01*
X158154353Y-87738540D01*
X158133413Y-87728610D01*
X158102218Y-87723278D01*
X158053878Y-87721163D01*
X158004353Y-87720857D01*
X158004353Y-87619458D01*
X158091432Y-87622810D01*
X158159914Y-87634726D01*
X158211400Y-87657135D01*
X158251557Y-87692124D01*
X158272139Y-87719375D01*
X158294375Y-87768907D01*
X158304696Y-87826316D01*
X158301933Y-87879682D01*
X158290788Y-87909543D01*
X158287617Y-87921261D01*
X158299443Y-87929037D01*
X158331134Y-87934465D01*
X158379407Y-87938571D01*
X158433171Y-87943067D01*
X158465518Y-87949313D01*
X158484015Y-87960676D01*
X158496230Y-87980528D01*
X158501638Y-87993000D01*
X158521399Y-88040171D01*
X158184642Y-88040117D01*
G36*
X158300245Y-87379926D02*
G01*
X158275916Y-87445858D01*
X158232883Y-87499273D01*
X158202591Y-87520164D01*
X158147006Y-87542939D01*
X158106814Y-87542466D01*
X158079783Y-87518562D01*
X158075187Y-87509717D01*
X158060856Y-87471530D01*
X158064528Y-87452028D01*
X158088593Y-87445422D01*
X158101886Y-87445086D01*
X158150790Y-87432992D01*
X158185001Y-87401471D01*
X158201524Y-87357659D01*
X158197366Y-87308695D01*
X158175773Y-87268894D01*
X158163456Y-87255450D01*
X158148513Y-87245921D01*
X158125925Y-87239485D01*
X158090672Y-87235317D01*
X158037734Y-87232597D01*
X157962093Y-87230502D01*
X157938143Y-87229960D01*
X157856210Y-87227981D01*
X157798545Y-87225731D01*
X157760392Y-87222357D01*
X157736996Y-87217006D01*
X157723602Y-87208824D01*
X157715455Y-87196959D01*
X157711856Y-87189362D01*
X157699548Y-87157102D01*
X157695486Y-87138111D01*
X157709052Y-87131836D01*
X157750066Y-87128006D01*
X157819001Y-87126600D01*
X157916331Y-87127598D01*
X157931343Y-87127908D01*
X158020141Y-87130101D01*
X158084981Y-87132693D01*
X158130933Y-87136382D01*
X158163065Y-87141864D01*
X158186447Y-87149835D01*
X158206148Y-87160993D01*
X158214590Y-87166830D01*
X158251943Y-87200296D01*
X158280997Y-87237727D01*
X158283533Y-87242309D01*
X158303557Y-87309426D01*
X158300245Y-87379926D01*
G37*
X158300245Y-87379926D02*
X158275916Y-87445858D01*
X158232883Y-87499273D01*
X158202591Y-87520164D01*
X158147006Y-87542939D01*
X158106814Y-87542466D01*
X158079783Y-87518562D01*
X158075187Y-87509717D01*
X158060856Y-87471530D01*
X158064528Y-87452028D01*
X158088593Y-87445422D01*
X158101886Y-87445086D01*
X158150790Y-87432992D01*
X158185001Y-87401471D01*
X158201524Y-87357659D01*
X158197366Y-87308695D01*
X158175773Y-87268894D01*
X158163456Y-87255450D01*
X158148513Y-87245921D01*
X158125925Y-87239485D01*
X158090672Y-87235317D01*
X158037734Y-87232597D01*
X157962093Y-87230502D01*
X157938143Y-87229960D01*
X157856210Y-87227981D01*
X157798545Y-87225731D01*
X157760392Y-87222357D01*
X157736996Y-87217006D01*
X157723602Y-87208824D01*
X157715455Y-87196959D01*
X157711856Y-87189362D01*
X157699548Y-87157102D01*
X157695486Y-87138111D01*
X157709052Y-87131836D01*
X157750066Y-87128006D01*
X157819001Y-87126600D01*
X157916331Y-87127598D01*
X157931343Y-87127908D01*
X158020141Y-87130101D01*
X158084981Y-87132693D01*
X158130933Y-87136382D01*
X158163065Y-87141864D01*
X158186447Y-87149835D01*
X158206148Y-87160993D01*
X158214590Y-87166830D01*
X158251943Y-87200296D01*
X158280997Y-87237727D01*
X158283533Y-87242309D01*
X158303557Y-87309426D01*
X158300245Y-87379926D01*
G36*
X158299032Y-86889744D02*
G01*
X158277913Y-86946616D01*
X158277507Y-86947267D01*
X158251620Y-86982440D01*
X158221367Y-87008407D01*
X158181942Y-87026670D01*
X158128538Y-87038732D01*
X158056349Y-87046096D01*
X157960568Y-87050264D01*
X157946922Y-87050629D01*
X157741158Y-87055876D01*
X157718322Y-87011716D01*
X157702890Y-86979763D01*
X157695577Y-86960470D01*
X157695486Y-86959578D01*
X157708978Y-86956239D01*
X157745374Y-86953587D01*
X157798548Y-86951956D01*
X157841607Y-86951600D01*
X157911359Y-86951592D01*
X157955163Y-86948403D01*
X157976056Y-86937288D01*
X157977075Y-86913501D01*
X157961259Y-86872296D01*
X157932185Y-86810086D01*
X157908037Y-86764341D01*
X157887087Y-86740813D01*
X157864253Y-86733896D01*
X157863123Y-86733886D01*
X157823788Y-86745299D01*
X157802538Y-86779092D01*
X157799461Y-86830809D01*
X157799994Y-86868061D01*
X157789265Y-86887703D01*
X157763495Y-86899952D01*
X157730663Y-86907002D01*
X157712034Y-86896842D01*
X157709368Y-86893017D01*
X157698660Y-86857001D01*
X157697144Y-86806566D01*
X157704241Y-86754626D01*
X157717212Y-86717822D01*
X157760415Y-86666938D01*
X157820554Y-86638014D01*
X157867538Y-86632286D01*
X157909918Y-86636657D01*
X157944512Y-86652475D01*
X157975237Y-86683797D01*
X158006010Y-86734678D01*
X158040748Y-86809176D01*
X158042712Y-86813714D01*
X158073713Y-86880821D01*
X158099138Y-86922232D01*
X158121986Y-86939981D01*
X158145255Y-86936107D01*
X158171944Y-86912643D01*
X158178086Y-86905627D01*
X158201900Y-86858630D01*
X158200897Y-86809933D01*
X158177549Y-86767522D01*
X158134325Y-86739384D01*
X158125840Y-86736769D01*
X158084692Y-86711308D01*
X158064872Y-86679001D01*
X158045230Y-86632286D01*
X158096050Y-86632286D01*
X158169918Y-86646496D01*
X158237673Y-86688675D01*
X158260339Y-86710624D01*
X158289431Y-86760517D01*
X158302600Y-86823967D01*
X158299032Y-86889744D01*
G37*
X158299032Y-86889744D02*
X158277913Y-86946616D01*
X158277507Y-86947267D01*
X158251620Y-86982440D01*
X158221367Y-87008407D01*
X158181942Y-87026670D01*
X158128538Y-87038732D01*
X158056349Y-87046096D01*
X157960568Y-87050264D01*
X157946922Y-87050629D01*
X157741158Y-87055876D01*
X157718322Y-87011716D01*
X157702890Y-86979763D01*
X157695577Y-86960470D01*
X157695486Y-86959578D01*
X157708978Y-86956239D01*
X157745374Y-86953587D01*
X157798548Y-86951956D01*
X157841607Y-86951600D01*
X157911359Y-86951592D01*
X157955163Y-86948403D01*
X157976056Y-86937288D01*
X157977075Y-86913501D01*
X157961259Y-86872296D01*
X157932185Y-86810086D01*
X157908037Y-86764341D01*
X157887087Y-86740813D01*
X157864253Y-86733896D01*
X157863123Y-86733886D01*
X157823788Y-86745299D01*
X157802538Y-86779092D01*
X157799461Y-86830809D01*
X157799994Y-86868061D01*
X157789265Y-86887703D01*
X157763495Y-86899952D01*
X157730663Y-86907002D01*
X157712034Y-86896842D01*
X157709368Y-86893017D01*
X157698660Y-86857001D01*
X157697144Y-86806566D01*
X157704241Y-86754626D01*
X157717212Y-86717822D01*
X157760415Y-86666938D01*
X157820554Y-86638014D01*
X157867538Y-86632286D01*
X157909918Y-86636657D01*
X157944512Y-86652475D01*
X157975237Y-86683797D01*
X158006010Y-86734678D01*
X158040748Y-86809176D01*
X158042712Y-86813714D01*
X158073713Y-86880821D01*
X158099138Y-86922232D01*
X158121986Y-86939981D01*
X158145255Y-86936107D01*
X158171944Y-86912643D01*
X158178086Y-86905627D01*
X158201900Y-86858630D01*
X158200897Y-86809933D01*
X158177549Y-86767522D01*
X158134325Y-86739384D01*
X158125840Y-86736769D01*
X158084692Y-86711308D01*
X158064872Y-86679001D01*
X158045230Y-86632286D01*
X158096050Y-86632286D01*
X158169918Y-86646496D01*
X158237673Y-86688675D01*
X158260339Y-86710624D01*
X158289431Y-86760517D01*
X158302600Y-86823967D01*
X158299032Y-86889744D01*
G36*
X158398711Y-86225886D02*
G01*
X158339387Y-86230139D01*
X158304428Y-86235025D01*
X158289180Y-86241795D01*
X158288985Y-86251702D01*
X158290805Y-86254914D01*
X158303985Y-86297644D01*
X158303215Y-86353227D01*
X158289667Y-86409737D01*
X158272139Y-86445082D01*
X158244139Y-86481321D01*
X158212451Y-86507813D01*
X158172187Y-86525999D01*
X158118457Y-86537322D01*
X158046374Y-86543222D01*
X157951049Y-86545143D01*
X157932763Y-86545177D01*
X157727354Y-86545200D01*
X157711420Y-86499491D01*
X157700580Y-86467027D01*
X157695532Y-86449215D01*
X157695486Y-86448691D01*
X157709172Y-86446937D01*
X157746924Y-86445444D01*
X157803776Y-86444326D01*
X157874766Y-86443697D01*
X157917927Y-86443600D01*
X158003027Y-86443398D01*
X158064019Y-86442358D01*
X158105823Y-86439831D01*
X158133358Y-86435164D01*
X158151544Y-86427707D01*
X158165302Y-86416811D01*
X158171927Y-86410007D01*
X158198625Y-86363272D01*
X158200625Y-86312272D01*
X158178045Y-86266001D01*
X158169893Y-86257444D01*
X158154564Y-86244893D01*
X158136382Y-86236188D01*
X158110091Y-86230631D01*
X158070438Y-86227526D01*
X158012168Y-86226176D01*
X157931827Y-86225886D01*
X157727354Y-86225886D01*
X157711420Y-86180177D01*
X157700580Y-86147713D01*
X157695532Y-86129901D01*
X157695486Y-86129377D01*
X157709377Y-86128037D01*
X157748561Y-86126828D01*
X157809300Y-86125801D01*
X157887859Y-86125002D01*
X157980502Y-86124481D01*
X158083491Y-86124286D01*
X158480658Y-86124286D01*
X158500556Y-86171457D01*
X158520453Y-86218629D01*
X158398711Y-86225886D01*
G37*
X158398711Y-86225886D02*
X158339387Y-86230139D01*
X158304428Y-86235025D01*
X158289180Y-86241795D01*
X158288985Y-86251702D01*
X158290805Y-86254914D01*
X158303985Y-86297644D01*
X158303215Y-86353227D01*
X158289667Y-86409737D01*
X158272139Y-86445082D01*
X158244139Y-86481321D01*
X158212451Y-86507813D01*
X158172187Y-86525999D01*
X158118457Y-86537322D01*
X158046374Y-86543222D01*
X157951049Y-86545143D01*
X157932763Y-86545177D01*
X157727354Y-86545200D01*
X157711420Y-86499491D01*
X157700580Y-86467027D01*
X157695532Y-86449215D01*
X157695486Y-86448691D01*
X157709172Y-86446937D01*
X157746924Y-86445444D01*
X157803776Y-86444326D01*
X157874766Y-86443697D01*
X157917927Y-86443600D01*
X158003027Y-86443398D01*
X158064019Y-86442358D01*
X158105823Y-86439831D01*
X158133358Y-86435164D01*
X158151544Y-86427707D01*
X158165302Y-86416811D01*
X158171927Y-86410007D01*
X158198625Y-86363272D01*
X158200625Y-86312272D01*
X158178045Y-86266001D01*
X158169893Y-86257444D01*
X158154564Y-86244893D01*
X158136382Y-86236188D01*
X158110091Y-86230631D01*
X158070438Y-86227526D01*
X158012168Y-86226176D01*
X157931827Y-86225886D01*
X157727354Y-86225886D01*
X157711420Y-86180177D01*
X157700580Y-86147713D01*
X157695532Y-86129901D01*
X157695486Y-86129377D01*
X157709377Y-86128037D01*
X157748561Y-86126828D01*
X157809300Y-86125801D01*
X157887859Y-86125002D01*
X157980502Y-86124481D01*
X158083491Y-86124286D01*
X158480658Y-86124286D01*
X158500556Y-86171457D01*
X158520453Y-86218629D01*
X158398711Y-86225886D01*
G36*
X158318761Y-85018303D02*
G01*
X158280265Y-85075527D01*
X158224665Y-85119749D01*
X158153914Y-85146167D01*
X158101838Y-85151510D01*
X158080107Y-85150903D01*
X158063469Y-85145822D01*
X158048563Y-85131855D01*
X158032027Y-85104589D01*
X158010502Y-85059612D01*
X157980626Y-84992511D01*
X157980476Y-84992171D01*
X157952187Y-84930407D01*
X157927067Y-84879759D01*
X157907821Y-84845404D01*
X157897152Y-84832518D01*
X157897066Y-84832514D01*
X157873834Y-84843872D01*
X157848226Y-84870431D01*
X157829779Y-84900923D01*
X157826114Y-84916370D01*
X157838788Y-84958515D01*
X157870529Y-84994808D01*
X157905428Y-85012517D01*
X157931155Y-85029552D01*
X157960454Y-85062922D01*
X157985765Y-85102149D01*
X157999529Y-85136756D01*
X158000286Y-85143993D01*
X157987840Y-85152139D01*
X157956028Y-85152630D01*
X157913134Y-85146643D01*
X157867442Y-85135357D01*
X157827239Y-85119950D01*
X157825678Y-85119171D01*
X157760938Y-85072804D01*
X157716903Y-85012711D01*
X157695289Y-84944465D01*
X157697815Y-84873638D01*
X157726196Y-84805804D01*
X157728192Y-84802788D01*
X157776552Y-84749427D01*
X157839648Y-84714340D01*
X157922613Y-84694922D01*
X157945922Y-84692316D01*
X158055945Y-84687701D01*
X158107252Y-84693233D01*
X158107252Y-84832514D01*
X158075247Y-84834324D01*
X158065907Y-84844222D01*
X158072895Y-84868898D01*
X158089413Y-84907795D01*
X158110119Y-84951275D01*
X158110667Y-84952356D01*
X158130051Y-84989209D01*
X158142987Y-85004000D01*
X158156549Y-85000353D01*
X158174368Y-84984995D01*
X158200155Y-84945923D01*
X158202050Y-84903846D01*
X158183283Y-84866103D01*
X158147085Y-84840034D01*
X158107252Y-84832514D01*
X158107252Y-84693233D01*
X158143973Y-84697194D01*
X158213788Y-84721550D01*
X158262698Y-84755456D01*
X158312122Y-84816653D01*
X158336641Y-84884063D01*
X158338203Y-84952880D01*
X158318761Y-85018303D01*
G37*
X158318761Y-85018303D02*
X158280265Y-85075527D01*
X158224665Y-85119749D01*
X158153914Y-85146167D01*
X158101838Y-85151510D01*
X158080107Y-85150903D01*
X158063469Y-85145822D01*
X158048563Y-85131855D01*
X158032027Y-85104589D01*
X158010502Y-85059612D01*
X157980626Y-84992511D01*
X157980476Y-84992171D01*
X157952187Y-84930407D01*
X157927067Y-84879759D01*
X157907821Y-84845404D01*
X157897152Y-84832518D01*
X157897066Y-84832514D01*
X157873834Y-84843872D01*
X157848226Y-84870431D01*
X157829779Y-84900923D01*
X157826114Y-84916370D01*
X157838788Y-84958515D01*
X157870529Y-84994808D01*
X157905428Y-85012517D01*
X157931155Y-85029552D01*
X157960454Y-85062922D01*
X157985765Y-85102149D01*
X157999529Y-85136756D01*
X158000286Y-85143993D01*
X157987840Y-85152139D01*
X157956028Y-85152630D01*
X157913134Y-85146643D01*
X157867442Y-85135357D01*
X157827239Y-85119950D01*
X157825678Y-85119171D01*
X157760938Y-85072804D01*
X157716903Y-85012711D01*
X157695289Y-84944465D01*
X157697815Y-84873638D01*
X157726196Y-84805804D01*
X157728192Y-84802788D01*
X157776552Y-84749427D01*
X157839648Y-84714340D01*
X157922613Y-84694922D01*
X157945922Y-84692316D01*
X158055945Y-84687701D01*
X158107252Y-84693233D01*
X158107252Y-84832514D01*
X158075247Y-84834324D01*
X158065907Y-84844222D01*
X158072895Y-84868898D01*
X158089413Y-84907795D01*
X158110119Y-84951275D01*
X158110667Y-84952356D01*
X158130051Y-84989209D01*
X158142987Y-85004000D01*
X158156549Y-85000353D01*
X158174368Y-84984995D01*
X158200155Y-84945923D01*
X158202050Y-84903846D01*
X158183283Y-84866103D01*
X158147085Y-84840034D01*
X158107252Y-84832514D01*
X158107252Y-84693233D01*
X158143973Y-84697194D01*
X158213788Y-84721550D01*
X158262698Y-84755456D01*
X158312122Y-84816653D01*
X158336641Y-84884063D01*
X158338203Y-84952880D01*
X158318761Y-85018303D01*
G36*
X158328038Y-83891115D02*
G01*
X158292267Y-83959145D01*
X158234699Y-84009351D01*
X158197688Y-84027185D01*
X158142118Y-84041063D01*
X158071904Y-84048167D01*
X157995273Y-84048840D01*
X157920448Y-84043427D01*
X157855658Y-84032270D01*
X157809127Y-84015714D01*
X157801113Y-84010626D01*
X157741293Y-83950355D01*
X157705465Y-83878769D01*
X157694980Y-83801092D01*
X157711190Y-83722548D01*
X157720908Y-83700689D01*
X157750857Y-83658122D01*
X157790567Y-83620763D01*
X157795603Y-83617232D01*
X157819876Y-83602881D01*
X157845822Y-83593394D01*
X157879978Y-83587790D01*
X157928881Y-83585086D01*
X157999065Y-83584299D01*
X158014800Y-83584286D01*
X158019808Y-83584322D01*
X158019808Y-83729429D01*
X157953570Y-83730273D01*
X157909614Y-83733596D01*
X157881221Y-83740583D01*
X157861675Y-83752416D01*
X157855143Y-83758457D01*
X157830320Y-83793186D01*
X157831452Y-83826903D01*
X157852984Y-83860995D01*
X157875971Y-83881329D01*
X157909522Y-83893371D01*
X157962431Y-83900134D01*
X157968601Y-83900598D01*
X158064487Y-83901752D01*
X158135701Y-83889688D01*
X158181806Y-83864570D01*
X158202365Y-83826560D01*
X158203486Y-83812992D01*
X158197848Y-83777364D01*
X158178314Y-83752994D01*
X158140958Y-83738093D01*
X158081850Y-83730875D01*
X158019808Y-83729429D01*
X158019808Y-83584322D01*
X158089587Y-83584826D01*
X158141841Y-83587096D01*
X158178051Y-83592068D01*
X158204701Y-83600713D01*
X158228278Y-83614005D01*
X158232662Y-83616943D01*
X158291751Y-83666313D01*
X158326053Y-83720109D01*
X158339669Y-83785602D01*
X158340335Y-83807842D01*
X158328038Y-83891115D01*
G37*
X158328038Y-83891115D02*
X158292267Y-83959145D01*
X158234699Y-84009351D01*
X158197688Y-84027185D01*
X158142118Y-84041063D01*
X158071904Y-84048167D01*
X157995273Y-84048840D01*
X157920448Y-84043427D01*
X157855658Y-84032270D01*
X157809127Y-84015714D01*
X157801113Y-84010626D01*
X157741293Y-83950355D01*
X157705465Y-83878769D01*
X157694980Y-83801092D01*
X157711190Y-83722548D01*
X157720908Y-83700689D01*
X157750857Y-83658122D01*
X157790567Y-83620763D01*
X157795603Y-83617232D01*
X157819876Y-83602881D01*
X157845822Y-83593394D01*
X157879978Y-83587790D01*
X157928881Y-83585086D01*
X157999065Y-83584299D01*
X158014800Y-83584286D01*
X158019808Y-83584322D01*
X158019808Y-83729429D01*
X157953570Y-83730273D01*
X157909614Y-83733596D01*
X157881221Y-83740583D01*
X157861675Y-83752416D01*
X157855143Y-83758457D01*
X157830320Y-83793186D01*
X157831452Y-83826903D01*
X157852984Y-83860995D01*
X157875971Y-83881329D01*
X157909522Y-83893371D01*
X157962431Y-83900134D01*
X157968601Y-83900598D01*
X158064487Y-83901752D01*
X158135701Y-83889688D01*
X158181806Y-83864570D01*
X158202365Y-83826560D01*
X158203486Y-83812992D01*
X158197848Y-83777364D01*
X158178314Y-83752994D01*
X158140958Y-83738093D01*
X158081850Y-83730875D01*
X158019808Y-83729429D01*
X158019808Y-83584322D01*
X158089587Y-83584826D01*
X158141841Y-83587096D01*
X158178051Y-83592068D01*
X158204701Y-83600713D01*
X158228278Y-83614005D01*
X158232662Y-83616943D01*
X158291751Y-83666313D01*
X158326053Y-83720109D01*
X158339669Y-83785602D01*
X158340335Y-83807842D01*
X158328038Y-83891115D01*
G36*
X158322220Y-85566093D02*
G01*
X158295277Y-85612672D01*
X158268534Y-85645057D01*
X158240516Y-85668742D01*
X158206252Y-85685059D01*
X158160773Y-85695339D01*
X158099108Y-85700914D01*
X158016289Y-85703116D01*
X157956754Y-85703371D01*
X157737609Y-85703371D01*
X157709956Y-85641686D01*
X157682303Y-85580000D01*
X157922330Y-85572743D01*
X158011972Y-85569744D01*
X158077038Y-85566598D01*
X158121974Y-85562701D01*
X158151230Y-85557447D01*
X158169252Y-85550231D01*
X158180489Y-85540450D01*
X158182921Y-85537312D01*
X158201917Y-85489761D01*
X158194400Y-85441697D01*
X158174457Y-85413086D01*
X158160325Y-85401447D01*
X158141780Y-85393391D01*
X158113666Y-85388271D01*
X158070827Y-85385441D01*
X158008105Y-85384256D01*
X157942739Y-85384057D01*
X157860732Y-85384018D01*
X157802684Y-85382614D01*
X157763535Y-85377914D01*
X157738220Y-85367987D01*
X157721677Y-85350903D01*
X157708844Y-85324732D01*
X157695509Y-85289775D01*
X157680993Y-85251596D01*
X157938611Y-85256141D01*
X158031481Y-85257971D01*
X158100111Y-85260112D01*
X158149289Y-85263181D01*
X158183802Y-85267794D01*
X158208438Y-85274568D01*
X158227984Y-85284119D01*
X158245230Y-85295634D01*
X158300320Y-85351190D01*
X158332178Y-85418980D01*
X158339809Y-85492713D01*
X158322220Y-85566093D01*
G37*
X158322220Y-85566093D02*
X158295277Y-85612672D01*
X158268534Y-85645057D01*
X158240516Y-85668742D01*
X158206252Y-85685059D01*
X158160773Y-85695339D01*
X158099108Y-85700914D01*
X158016289Y-85703116D01*
X157956754Y-85703371D01*
X157737609Y-85703371D01*
X157709956Y-85641686D01*
X157682303Y-85580000D01*
X157922330Y-85572743D01*
X158011972Y-85569744D01*
X158077038Y-85566598D01*
X158121974Y-85562701D01*
X158151230Y-85557447D01*
X158169252Y-85550231D01*
X158180489Y-85540450D01*
X158182921Y-85537312D01*
X158201917Y-85489761D01*
X158194400Y-85441697D01*
X158174457Y-85413086D01*
X158160325Y-85401447D01*
X158141780Y-85393391D01*
X158113666Y-85388271D01*
X158070827Y-85385441D01*
X158008105Y-85384256D01*
X157942739Y-85384057D01*
X157860732Y-85384018D01*
X157802684Y-85382614D01*
X157763535Y-85377914D01*
X157738220Y-85367987D01*
X157721677Y-85350903D01*
X157708844Y-85324732D01*
X157695509Y-85289775D01*
X157680993Y-85251596D01*
X157938611Y-85256141D01*
X158031481Y-85257971D01*
X158100111Y-85260112D01*
X158149289Y-85263181D01*
X158183802Y-85267794D01*
X158208438Y-85274568D01*
X158227984Y-85284119D01*
X158245230Y-85295634D01*
X158300320Y-85351190D01*
X158332178Y-85418980D01*
X158339809Y-85492713D01*
X158322220Y-85566093D01*
G36*
X158330082Y-84449744D02*
G01*
X158302432Y-84505201D01*
X158251520Y-84554148D01*
X158232662Y-84567629D01*
X158207985Y-84582314D01*
X158181184Y-84591842D01*
X158145413Y-84597293D01*
X158093831Y-84599747D01*
X158025733Y-84600286D01*
X157932412Y-84597852D01*
X157862343Y-84589394D01*
X157810069Y-84573174D01*
X157770131Y-84547454D01*
X157737071Y-84510497D01*
X157735114Y-84507782D01*
X157715092Y-84471360D01*
X157705185Y-84427502D01*
X157702743Y-84371724D01*
X157702743Y-84281048D01*
X157614717Y-84281010D01*
X157565692Y-84280166D01*
X157536935Y-84275024D01*
X157519689Y-84261587D01*
X157505192Y-84235858D01*
X157502231Y-84229679D01*
X157488352Y-84200764D01*
X157479586Y-84178376D01*
X157478829Y-84161729D01*
X157488977Y-84150036D01*
X157512927Y-84142510D01*
X157553574Y-84138366D01*
X157613814Y-84136815D01*
X157696545Y-84137071D01*
X157804661Y-84138349D01*
X157837000Y-84138748D01*
X157948476Y-84140185D01*
X158021397Y-84141472D01*
X158021397Y-84280971D01*
X157959501Y-84281755D01*
X157919003Y-84285240D01*
X157892292Y-84293124D01*
X157871756Y-84307105D01*
X157861740Y-84316597D01*
X157832433Y-84355404D01*
X157830048Y-84389763D01*
X157854250Y-84425216D01*
X157855143Y-84426114D01*
X157873847Y-84440539D01*
X157899268Y-84449313D01*
X157938416Y-84453739D01*
X157998303Y-84455118D01*
X158011570Y-84455143D01*
X158094099Y-84451812D01*
X158151309Y-84440969D01*
X158186234Y-84421340D01*
X158201906Y-84391650D01*
X158203486Y-84374491D01*
X158196074Y-84333766D01*
X158171670Y-84305832D01*
X158127020Y-84289017D01*
X158058870Y-84281650D01*
X158021397Y-84280971D01*
X158021397Y-84141472D01*
X158034755Y-84141708D01*
X158099667Y-84143677D01*
X158147042Y-84146450D01*
X158180710Y-84150388D01*
X158204502Y-84155849D01*
X158222247Y-84163192D01*
X158237776Y-84172777D01*
X158243619Y-84176887D01*
X158298815Y-84231405D01*
X158330110Y-84300336D01*
X158338835Y-84380072D01*
X158330082Y-84449744D01*
G37*
X158330082Y-84449744D02*
X158302432Y-84505201D01*
X158251520Y-84554148D01*
X158232662Y-84567629D01*
X158207985Y-84582314D01*
X158181184Y-84591842D01*
X158145413Y-84597293D01*
X158093831Y-84599747D01*
X158025733Y-84600286D01*
X157932412Y-84597852D01*
X157862343Y-84589394D01*
X157810069Y-84573174D01*
X157770131Y-84547454D01*
X157737071Y-84510497D01*
X157735114Y-84507782D01*
X157715092Y-84471360D01*
X157705185Y-84427502D01*
X157702743Y-84371724D01*
X157702743Y-84281048D01*
X157614717Y-84281010D01*
X157565692Y-84280166D01*
X157536935Y-84275024D01*
X157519689Y-84261587D01*
X157505192Y-84235858D01*
X157502231Y-84229679D01*
X157488352Y-84200764D01*
X157479586Y-84178376D01*
X157478829Y-84161729D01*
X157488977Y-84150036D01*
X157512927Y-84142510D01*
X157553574Y-84138366D01*
X157613814Y-84136815D01*
X157696545Y-84137071D01*
X157804661Y-84138349D01*
X157837000Y-84138748D01*
X157948476Y-84140185D01*
X158021397Y-84141472D01*
X158021397Y-84280971D01*
X157959501Y-84281755D01*
X157919003Y-84285240D01*
X157892292Y-84293124D01*
X157871756Y-84307105D01*
X157861740Y-84316597D01*
X157832433Y-84355404D01*
X157830048Y-84389763D01*
X157854250Y-84425216D01*
X157855143Y-84426114D01*
X157873847Y-84440539D01*
X157899268Y-84449313D01*
X157938416Y-84453739D01*
X157998303Y-84455118D01*
X158011570Y-84455143D01*
X158094099Y-84451812D01*
X158151309Y-84440969D01*
X158186234Y-84421340D01*
X158201906Y-84391650D01*
X158203486Y-84374491D01*
X158196074Y-84333766D01*
X158171670Y-84305832D01*
X158127020Y-84289017D01*
X158058870Y-84281650D01*
X158021397Y-84280971D01*
X158021397Y-84141472D01*
X158034755Y-84141708D01*
X158099667Y-84143677D01*
X158147042Y-84146450D01*
X158180710Y-84150388D01*
X158204502Y-84155849D01*
X158222247Y-84163192D01*
X158237776Y-84172777D01*
X158243619Y-84176887D01*
X158298815Y-84231405D01*
X158330110Y-84300336D01*
X158338835Y-84380072D01*
X158330082Y-84449744D01*
D12*
%TO.C,R1*%
X161031422Y-78665000D02*
X161548578Y-78665000D01*
X161031422Y-80085000D02*
X161548578Y-80085000D01*
%TO.C,R2*%
X161031422Y-83260000D02*
X161548578Y-83260000D01*
X161031422Y-81840000D02*
X161548578Y-81840000D01*
%TO.C,R3*%
X161031422Y-75490000D02*
X161548578Y-75490000D01*
X161031422Y-76910000D02*
X161548578Y-76910000D01*
%TO.C,J1*%
X172399000Y-86630000D02*
X171069000Y-86630000D01*
X172399000Y-85300000D02*
X172399000Y-86630000D01*
X172399000Y-84030000D02*
X169739000Y-84030000D01*
X169739000Y-84030000D02*
X169739000Y-76350000D01*
X172399000Y-84030000D02*
X172399000Y-76350000D01*
X172399000Y-76350000D02*
X169739000Y-76350000D01*
%TO.C,J2*%
X147260000Y-88325000D02*
X147260000Y-86995000D01*
X148590000Y-88325000D02*
X147260000Y-88325000D01*
X149860000Y-88325000D02*
X149860000Y-85665000D01*
X149860000Y-85665000D02*
X152460000Y-85665000D01*
X149860000Y-88325000D02*
X152460000Y-88325000D01*
X152460000Y-88325000D02*
X152460000Y-85665000D01*
%TO.C,J3*%
X142180000Y-88325000D02*
X144840000Y-88325000D01*
X142180000Y-85725000D02*
X142180000Y-88325000D01*
X144840000Y-85725000D02*
X144840000Y-88325000D01*
X142180000Y-85725000D02*
X144840000Y-85725000D01*
X142180000Y-84455000D02*
X142180000Y-83125000D01*
X142180000Y-83125000D02*
X143510000Y-83125000D01*
%TO.C,J5*%
X142180000Y-74235000D02*
X143510000Y-74235000D01*
X142180000Y-75565000D02*
X142180000Y-74235000D01*
X142180000Y-76835000D02*
X144840000Y-76835000D01*
X144840000Y-76835000D02*
X144840000Y-81975000D01*
X142180000Y-76835000D02*
X142180000Y-81975000D01*
X142180000Y-81975000D02*
X144840000Y-81975000D01*
%TO.C,U1*%
X156965000Y-83880000D02*
X156965000Y-73600000D01*
X146565000Y-83880000D02*
X156965000Y-83880000D01*
X146565000Y-73600000D02*
X146565000Y-83880000D01*
X156965000Y-73600000D02*
X146565000Y-73600000D01*
X156905000Y-81390000D02*
X156905000Y-79740000D01*
X146625000Y-81390000D02*
X156905000Y-81390000D01*
X146625000Y-76090000D02*
X146625000Y-81390000D01*
X156905000Y-76090000D02*
X146625000Y-76090000D01*
X156905000Y-77740000D02*
X156905000Y-76090000D01*
X156905000Y-79740000D02*
G75*
G02*
X156905000Y-77740000I0J1000000D01*
G01*
%TO.C,R1*%
D10*
X158333333Y-79802380D02*
X158000000Y-79326190D01*
X157761904Y-79802380D02*
X157761904Y-78802380D01*
X158142857Y-78802380D01*
X158238095Y-78850000D01*
X158285714Y-78897619D01*
X158333333Y-78992857D01*
X158333333Y-79135714D01*
X158285714Y-79230952D01*
X158238095Y-79278571D01*
X158142857Y-79326190D01*
X157761904Y-79326190D01*
X159285714Y-79802380D02*
X158714285Y-79802380D01*
X159000000Y-79802380D02*
X159000000Y-78802380D01*
X158904761Y-78945238D01*
X158809523Y-79040476D01*
X158714285Y-79088095D01*
%TO.C,R2*%
X158333333Y-82952380D02*
X158000000Y-82476190D01*
X157761904Y-82952380D02*
X157761904Y-81952380D01*
X158142857Y-81952380D01*
X158238095Y-82000000D01*
X158285714Y-82047619D01*
X158333333Y-82142857D01*
X158333333Y-82285714D01*
X158285714Y-82380952D01*
X158238095Y-82428571D01*
X158142857Y-82476190D01*
X157761904Y-82476190D01*
X158714285Y-82047619D02*
X158761904Y-82000000D01*
X158857142Y-81952380D01*
X159095238Y-81952380D01*
X159190476Y-82000000D01*
X159238095Y-82047619D01*
X159285714Y-82142857D01*
X159285714Y-82238095D01*
X159238095Y-82380952D01*
X158666666Y-82952380D01*
X159285714Y-82952380D01*
%TO.C,R3*%
X158333333Y-76652380D02*
X158000000Y-76176190D01*
X157761904Y-76652380D02*
X157761904Y-75652380D01*
X158142857Y-75652380D01*
X158238095Y-75700000D01*
X158285714Y-75747619D01*
X158333333Y-75842857D01*
X158333333Y-75985714D01*
X158285714Y-76080952D01*
X158238095Y-76128571D01*
X158142857Y-76176190D01*
X157761904Y-76176190D01*
X158666666Y-75652380D02*
X159285714Y-75652380D01*
X158952380Y-76033333D01*
X159095238Y-76033333D01*
X159190476Y-76080952D01*
X159238095Y-76128571D01*
X159285714Y-76223809D01*
X159285714Y-76461904D01*
X159238095Y-76557142D01*
X159190476Y-76604761D01*
X159095238Y-76652380D01*
X158809523Y-76652380D01*
X158714285Y-76604761D01*
X158666666Y-76557142D01*
%TO.C,J1*%
X170735666Y-87452380D02*
X170735666Y-88166666D01*
X170688047Y-88309523D01*
X170592809Y-88404761D01*
X170449952Y-88452380D01*
X170354714Y-88452380D01*
X171735666Y-88452380D02*
X171164238Y-88452380D01*
X171449952Y-88452380D02*
X171449952Y-87452380D01*
X171354714Y-87595238D01*
X171259476Y-87690476D01*
X171164238Y-87738095D01*
%TO.C,J2*%
X149516666Y-88952380D02*
X149516666Y-89666666D01*
X149469047Y-89809523D01*
X149373809Y-89904761D01*
X149230952Y-89952380D01*
X149135714Y-89952380D01*
X149945238Y-89047619D02*
X149992857Y-89000000D01*
X150088095Y-88952380D01*
X150326190Y-88952380D01*
X150421428Y-89000000D01*
X150469047Y-89047619D01*
X150516666Y-89142857D01*
X150516666Y-89238095D01*
X150469047Y-89380952D01*
X149897619Y-89952380D01*
X150516666Y-89952380D01*
%TO.C,J3*%
X143176666Y-88952380D02*
X143176666Y-89666666D01*
X143129047Y-89809523D01*
X143033809Y-89904761D01*
X142890952Y-89952380D01*
X142795714Y-89952380D01*
X143557619Y-88952380D02*
X144176666Y-88952380D01*
X143843333Y-89333333D01*
X143986190Y-89333333D01*
X144081428Y-89380952D01*
X144129047Y-89428571D01*
X144176666Y-89523809D01*
X144176666Y-89761904D01*
X144129047Y-89857142D01*
X144081428Y-89904761D01*
X143986190Y-89952380D01*
X143700476Y-89952380D01*
X143605238Y-89904761D01*
X143557619Y-89857142D01*
%TO.C,J5*%
X143216666Y-72752380D02*
X143216666Y-73466666D01*
X143169047Y-73609523D01*
X143073809Y-73704761D01*
X142930952Y-73752380D01*
X142835714Y-73752380D01*
X144169047Y-72752380D02*
X143692857Y-72752380D01*
X143645238Y-73228571D01*
X143692857Y-73180952D01*
X143788095Y-73133333D01*
X144026190Y-73133333D01*
X144121428Y-73180952D01*
X144169047Y-73228571D01*
X144216666Y-73323809D01*
X144216666Y-73561904D01*
X144169047Y-73657142D01*
X144121428Y-73704761D01*
X144026190Y-73752380D01*
X143788095Y-73752380D01*
X143692857Y-73704761D01*
X143645238Y-73657142D01*
%TO.C,U1*%
X150588095Y-77852380D02*
X150588095Y-78661904D01*
X150635714Y-78757142D01*
X150683333Y-78804761D01*
X150778571Y-78852380D01*
X150969047Y-78852380D01*
X151064285Y-78804761D01*
X151111904Y-78757142D01*
X151159523Y-78661904D01*
X151159523Y-77852380D01*
X152159523Y-78852380D02*
X151588095Y-78852380D01*
X151873809Y-78852380D02*
X151873809Y-77852380D01*
X151778571Y-77995238D01*
X151683333Y-78090476D01*
X151588095Y-78138095D01*
%TD*%
M02*
