%TF.GenerationSoftware,KiCad,Pcbnew,(5.1.6)-1*%
%TF.CreationDate,2020-09-24T16:39:52+02:00*%
%TF.ProjectId,rainbow-ledbar-CMS,7261696e-626f-4772-9d6c-65646261722d,rev?*%
%TF.SameCoordinates,Original*%
%TF.FileFunction,Copper,L1,Top*%
%TF.FilePolarity,Positive*%
%FSLAX46Y46*%
G04 Gerber Fmt 4.6, Leading zero omitted, Abs format (unit mm)*
G04 Created by KiCad (PCBNEW (5.1.6)-1) date 2020-09-24 16:39:52*
%MOMM*%
%LPD*%
G01*
G04 APERTURE LIST*
%TA.AperFunction,ComponentPad*%
%ADD10R,1.700000X1.700000*%
%TD*%
%TA.AperFunction,ComponentPad*%
%ADD11O,1.700000X1.700000*%
%TD*%
%TA.AperFunction,ComponentPad*%
%ADD12R,1.600000X1.600000*%
%TD*%
%TA.AperFunction,ComponentPad*%
%ADD13O,1.600000X1.600000*%
%TD*%
%TA.AperFunction,ViaPad*%
%ADD14C,0.800000*%
%TD*%
%TA.AperFunction,Conductor*%
%ADD15C,0.250000*%
%TD*%
%TA.AperFunction,Conductor*%
%ADD16C,0.254000*%
%TD*%
G04 APERTURE END LIST*
%TO.P,R1,1*%
%TO.N,B*%
%TA.AperFunction,SMDPad,CuDef*%
G36*
G01*
X159865000Y-79831250D02*
X159865000Y-78918750D01*
G75*
G02*
X160108750Y-78675000I243750J0D01*
G01*
X160596250Y-78675000D01*
G75*
G02*
X160840000Y-78918750I0J-243750D01*
G01*
X160840000Y-79831250D01*
G75*
G02*
X160596250Y-80075000I-243750J0D01*
G01*
X160108750Y-80075000D01*
G75*
G02*
X159865000Y-79831250I0J243750D01*
G01*
G37*
%TD.AperFunction*%
%TO.P,R1,2*%
%TO.N,Net-(Q1-Pad2)*%
%TA.AperFunction,SMDPad,CuDef*%
G36*
G01*
X161740000Y-79831250D02*
X161740000Y-78918750D01*
G75*
G02*
X161983750Y-78675000I243750J0D01*
G01*
X162471250Y-78675000D01*
G75*
G02*
X162715000Y-78918750I0J-243750D01*
G01*
X162715000Y-79831250D01*
G75*
G02*
X162471250Y-80075000I-243750J0D01*
G01*
X161983750Y-80075000D01*
G75*
G02*
X161740000Y-79831250I0J243750D01*
G01*
G37*
%TD.AperFunction*%
%TD*%
%TO.P,R2,2*%
%TO.N,Net-(Q2-Pad2)*%
%TA.AperFunction,SMDPad,CuDef*%
G36*
G01*
X161740000Y-83006250D02*
X161740000Y-82093750D01*
G75*
G02*
X161983750Y-81850000I243750J0D01*
G01*
X162471250Y-81850000D01*
G75*
G02*
X162715000Y-82093750I0J-243750D01*
G01*
X162715000Y-83006250D01*
G75*
G02*
X162471250Y-83250000I-243750J0D01*
G01*
X161983750Y-83250000D01*
G75*
G02*
X161740000Y-83006250I0J243750D01*
G01*
G37*
%TD.AperFunction*%
%TO.P,R2,1*%
%TO.N,G*%
%TA.AperFunction,SMDPad,CuDef*%
G36*
G01*
X159865000Y-83006250D02*
X159865000Y-82093750D01*
G75*
G02*
X160108750Y-81850000I243750J0D01*
G01*
X160596250Y-81850000D01*
G75*
G02*
X160840000Y-82093750I0J-243750D01*
G01*
X160840000Y-83006250D01*
G75*
G02*
X160596250Y-83250000I-243750J0D01*
G01*
X160108750Y-83250000D01*
G75*
G02*
X159865000Y-83006250I0J243750D01*
G01*
G37*
%TD.AperFunction*%
%TD*%
%TO.P,R3,1*%
%TO.N,R*%
%TA.AperFunction,SMDPad,CuDef*%
G36*
G01*
X159865000Y-76656250D02*
X159865000Y-75743750D01*
G75*
G02*
X160108750Y-75500000I243750J0D01*
G01*
X160596250Y-75500000D01*
G75*
G02*
X160840000Y-75743750I0J-243750D01*
G01*
X160840000Y-76656250D01*
G75*
G02*
X160596250Y-76900000I-243750J0D01*
G01*
X160108750Y-76900000D01*
G75*
G02*
X159865000Y-76656250I0J243750D01*
G01*
G37*
%TD.AperFunction*%
%TO.P,R3,2*%
%TO.N,Net-(Q3-Pad2)*%
%TA.AperFunction,SMDPad,CuDef*%
G36*
G01*
X161740000Y-76656250D02*
X161740000Y-75743750D01*
G75*
G02*
X161983750Y-75500000I243750J0D01*
G01*
X162471250Y-75500000D01*
G75*
G02*
X162715000Y-75743750I0J-243750D01*
G01*
X162715000Y-76656250D01*
G75*
G02*
X162471250Y-76900000I-243750J0D01*
G01*
X161983750Y-76900000D01*
G75*
G02*
X161740000Y-76656250I0J243750D01*
G01*
G37*
%TD.AperFunction*%
%TD*%
D10*
%TO.P,J1,1*%
%TO.N,GNDREF*%
X171069000Y-85300000D03*
D11*
%TO.P,J1,2*%
%TO.N,Net-(J1-Pad2)*%
X171069000Y-82760000D03*
%TO.P,J1,3*%
%TO.N,Net-(J1-Pad3)*%
X171069000Y-80220000D03*
%TO.P,J1,4*%
%TO.N,Net-(J1-Pad4)*%
X171069000Y-77680000D03*
%TD*%
D10*
%TO.P,J2,1*%
%TO.N,GNDREF*%
X148590000Y-86995000D03*
D11*
%TO.P,J2,2*%
%TO.N,Net-(D1-Pad2)*%
X151130000Y-86995000D03*
%TD*%
%TO.P,J3,2*%
%TO.N,PushButton*%
X143510000Y-86995000D03*
D10*
%TO.P,J3,1*%
%TO.N,GNDREF*%
X143510000Y-84455000D03*
%TD*%
%TO.P,J5,1*%
%TO.N,GNDREF*%
X143510000Y-75565000D03*
D11*
%TO.P,J5,2*%
%TO.N,Potentiom\u00E8tre*%
X143510000Y-78105000D03*
%TO.P,J5,3*%
%TO.N,VCC*%
X143510000Y-80645000D03*
%TD*%
D12*
%TO.P,U1,1*%
%TO.N,Net-(U1-Pad1)*%
X155575000Y-74930000D03*
D13*
%TO.P,U1,5*%
%TO.N,B*%
X147955000Y-82550000D03*
%TO.P,U1,2*%
%TO.N,R*%
X153035000Y-74930000D03*
%TO.P,U1,6*%
%TO.N,G*%
X150495000Y-82550000D03*
%TO.P,U1,3*%
%TO.N,Potentiom\u00E8tre*%
X150495000Y-74930000D03*
%TO.P,U1,7*%
%TO.N,PushButton*%
X153035000Y-82550000D03*
%TO.P,U1,4*%
%TO.N,GNDREF*%
X147955000Y-74930000D03*
%TO.P,U1,8*%
%TO.N,VCC*%
X155575000Y-82550000D03*
%TD*%
D14*
%TO.N,GNDREF*%
X153000000Y-78000000D03*
X173000000Y-74000000D03*
X173000000Y-89000000D03*
X156210000Y-84455000D03*
X146050000Y-88900000D03*
X159385000Y-73660000D03*
%TO.N,Net-(Q1-Pad2)*%
X164465000Y-84455000D03*
%TO.N,Net-(Q2-Pad2)*%
X163830000Y-88900000D03*
%TO.N,Net-(Q3-Pad2)*%
X164465000Y-78740000D03*
%TD*%
D15*
%TO.N,Potentiom\u00E8tre*%
X143510000Y-78105000D02*
X149479000Y-78105000D01*
X150495000Y-77089000D02*
X150495000Y-74930000D01*
X149479000Y-78105000D02*
X150495000Y-77089000D01*
%TO.N,Net-(Q1-Pad2)*%
X162227500Y-79375000D02*
X162227500Y-80312500D01*
X162227500Y-80312500D02*
X164465000Y-82550000D01*
X164465000Y-82550000D02*
X164465000Y-84455000D01*
%TO.N,Net-(Q2-Pad2)*%
X163195000Y-88265000D02*
X163830000Y-88900000D01*
X162227500Y-82550000D02*
X162227500Y-87297500D01*
X162227500Y-87297500D02*
X163195000Y-88265000D01*
%TO.N,Net-(Q3-Pad2)*%
X162227500Y-76200000D02*
X164465000Y-78437500D01*
X164465000Y-78437500D02*
X164465000Y-78740000D01*
%TO.N,B*%
X147955000Y-82550000D02*
X147955000Y-80010000D01*
X148590000Y-79375000D02*
X160352500Y-79375000D01*
X147955000Y-80010000D02*
X148590000Y-79375000D01*
%TO.N,G*%
X150495000Y-82550000D02*
X150495000Y-81280000D01*
X150495000Y-81280000D02*
X151130000Y-80645000D01*
X158447500Y-80645000D02*
X160352500Y-82550000D01*
X151130000Y-80645000D02*
X158447500Y-80645000D01*
%TO.N,R*%
X153035000Y-74930000D02*
X153035000Y-75565000D01*
X153670000Y-76200000D02*
X160352500Y-76200000D01*
X153035000Y-75565000D02*
X153670000Y-76200000D01*
%TD*%
D16*
%TO.N,GNDREF*%
G36*
X174340001Y-90340000D02*
G01*
X140660000Y-90340000D01*
X140660000Y-85305000D01*
X142021928Y-85305000D01*
X142034188Y-85429482D01*
X142070498Y-85549180D01*
X142129463Y-85659494D01*
X142208815Y-85756185D01*
X142305506Y-85835537D01*
X142415820Y-85894502D01*
X142488380Y-85916513D01*
X142356525Y-86048368D01*
X142194010Y-86291589D01*
X142082068Y-86561842D01*
X142025000Y-86848740D01*
X142025000Y-87141260D01*
X142082068Y-87428158D01*
X142194010Y-87698411D01*
X142356525Y-87941632D01*
X142563368Y-88148475D01*
X142806589Y-88310990D01*
X143076842Y-88422932D01*
X143363740Y-88480000D01*
X143656260Y-88480000D01*
X143943158Y-88422932D01*
X144213411Y-88310990D01*
X144456632Y-88148475D01*
X144663475Y-87941632D01*
X144728042Y-87845000D01*
X147101928Y-87845000D01*
X147114188Y-87969482D01*
X147150498Y-88089180D01*
X147209463Y-88199494D01*
X147288815Y-88296185D01*
X147385506Y-88375537D01*
X147495820Y-88434502D01*
X147615518Y-88470812D01*
X147740000Y-88483072D01*
X148304250Y-88480000D01*
X148463000Y-88321250D01*
X148463000Y-87122000D01*
X147263750Y-87122000D01*
X147105000Y-87280750D01*
X147101928Y-87845000D01*
X144728042Y-87845000D01*
X144825990Y-87698411D01*
X144937932Y-87428158D01*
X144995000Y-87141260D01*
X144995000Y-86848740D01*
X144937932Y-86561842D01*
X144825990Y-86291589D01*
X144728043Y-86145000D01*
X147101928Y-86145000D01*
X147105000Y-86709250D01*
X147263750Y-86868000D01*
X148463000Y-86868000D01*
X148463000Y-85668750D01*
X148717000Y-85668750D01*
X148717000Y-86868000D01*
X148737000Y-86868000D01*
X148737000Y-87122000D01*
X148717000Y-87122000D01*
X148717000Y-88321250D01*
X148875750Y-88480000D01*
X149440000Y-88483072D01*
X149564482Y-88470812D01*
X149684180Y-88434502D01*
X149794494Y-88375537D01*
X149891185Y-88296185D01*
X149970537Y-88199494D01*
X150029502Y-88089180D01*
X150051513Y-88016620D01*
X150183368Y-88148475D01*
X150426589Y-88310990D01*
X150696842Y-88422932D01*
X150983740Y-88480000D01*
X151276260Y-88480000D01*
X151563158Y-88422932D01*
X151833411Y-88310990D01*
X152076632Y-88148475D01*
X152283475Y-87941632D01*
X152445990Y-87698411D01*
X152557932Y-87428158D01*
X152615000Y-87141260D01*
X152615000Y-86848740D01*
X152557932Y-86561842D01*
X152445990Y-86291589D01*
X152283475Y-86048368D01*
X152076632Y-85841525D01*
X151833411Y-85679010D01*
X151563158Y-85567068D01*
X151276260Y-85510000D01*
X150983740Y-85510000D01*
X150696842Y-85567068D01*
X150426589Y-85679010D01*
X150183368Y-85841525D01*
X150051513Y-85973380D01*
X150029502Y-85900820D01*
X149970537Y-85790506D01*
X149891185Y-85693815D01*
X149794494Y-85614463D01*
X149684180Y-85555498D01*
X149564482Y-85519188D01*
X149440000Y-85506928D01*
X148875750Y-85510000D01*
X148717000Y-85668750D01*
X148463000Y-85668750D01*
X148304250Y-85510000D01*
X147740000Y-85506928D01*
X147615518Y-85519188D01*
X147495820Y-85555498D01*
X147385506Y-85614463D01*
X147288815Y-85693815D01*
X147209463Y-85790506D01*
X147150498Y-85900820D01*
X147114188Y-86020518D01*
X147101928Y-86145000D01*
X144728043Y-86145000D01*
X144663475Y-86048368D01*
X144531620Y-85916513D01*
X144604180Y-85894502D01*
X144714494Y-85835537D01*
X144811185Y-85756185D01*
X144890537Y-85659494D01*
X144949502Y-85549180D01*
X144985812Y-85429482D01*
X144998072Y-85305000D01*
X144995000Y-84740750D01*
X144836250Y-84582000D01*
X143637000Y-84582000D01*
X143637000Y-84602000D01*
X143383000Y-84602000D01*
X143383000Y-84582000D01*
X142183750Y-84582000D01*
X142025000Y-84740750D01*
X142021928Y-85305000D01*
X140660000Y-85305000D01*
X140660000Y-83605000D01*
X142021928Y-83605000D01*
X142025000Y-84169250D01*
X142183750Y-84328000D01*
X143383000Y-84328000D01*
X143383000Y-83128750D01*
X143637000Y-83128750D01*
X143637000Y-84328000D01*
X144836250Y-84328000D01*
X144995000Y-84169250D01*
X144998072Y-83605000D01*
X144985812Y-83480518D01*
X144949502Y-83360820D01*
X144890537Y-83250506D01*
X144811185Y-83153815D01*
X144714494Y-83074463D01*
X144604180Y-83015498D01*
X144484482Y-82979188D01*
X144360000Y-82966928D01*
X143795750Y-82970000D01*
X143637000Y-83128750D01*
X143383000Y-83128750D01*
X143224250Y-82970000D01*
X142660000Y-82966928D01*
X142535518Y-82979188D01*
X142415820Y-83015498D01*
X142305506Y-83074463D01*
X142208815Y-83153815D01*
X142129463Y-83250506D01*
X142070498Y-83360820D01*
X142034188Y-83480518D01*
X142021928Y-83605000D01*
X140660000Y-83605000D01*
X140660000Y-76415000D01*
X142021928Y-76415000D01*
X142034188Y-76539482D01*
X142070498Y-76659180D01*
X142129463Y-76769494D01*
X142208815Y-76866185D01*
X142305506Y-76945537D01*
X142415820Y-77004502D01*
X142488380Y-77026513D01*
X142356525Y-77158368D01*
X142194010Y-77401589D01*
X142082068Y-77671842D01*
X142025000Y-77958740D01*
X142025000Y-78251260D01*
X142082068Y-78538158D01*
X142194010Y-78808411D01*
X142356525Y-79051632D01*
X142563368Y-79258475D01*
X142737760Y-79375000D01*
X142563368Y-79491525D01*
X142356525Y-79698368D01*
X142194010Y-79941589D01*
X142082068Y-80211842D01*
X142025000Y-80498740D01*
X142025000Y-80791260D01*
X142082068Y-81078158D01*
X142194010Y-81348411D01*
X142356525Y-81591632D01*
X142563368Y-81798475D01*
X142806589Y-81960990D01*
X143076842Y-82072932D01*
X143363740Y-82130000D01*
X143656260Y-82130000D01*
X143943158Y-82072932D01*
X144213411Y-81960990D01*
X144456632Y-81798475D01*
X144663475Y-81591632D01*
X144825990Y-81348411D01*
X144937932Y-81078158D01*
X144995000Y-80791260D01*
X144995000Y-80498740D01*
X144937932Y-80211842D01*
X144825990Y-79941589D01*
X144663475Y-79698368D01*
X144456632Y-79491525D01*
X144282240Y-79375000D01*
X144456632Y-79258475D01*
X144663475Y-79051632D01*
X144788178Y-78865000D01*
X148025198Y-78865000D01*
X147443998Y-79446201D01*
X147415000Y-79469999D01*
X147391202Y-79498997D01*
X147391201Y-79498998D01*
X147320026Y-79585724D01*
X147249454Y-79717754D01*
X147228497Y-79786842D01*
X147205998Y-79861014D01*
X147202552Y-79895998D01*
X147191324Y-80010000D01*
X147195001Y-80047332D01*
X147195000Y-81331956D01*
X147040241Y-81435363D01*
X146840363Y-81635241D01*
X146683320Y-81870273D01*
X146575147Y-82131426D01*
X146520000Y-82408665D01*
X146520000Y-82691335D01*
X146575147Y-82968574D01*
X146683320Y-83229727D01*
X146840363Y-83464759D01*
X147040241Y-83664637D01*
X147275273Y-83821680D01*
X147536426Y-83929853D01*
X147813665Y-83985000D01*
X148096335Y-83985000D01*
X148373574Y-83929853D01*
X148634727Y-83821680D01*
X148869759Y-83664637D01*
X149069637Y-83464759D01*
X149225000Y-83232241D01*
X149380363Y-83464759D01*
X149580241Y-83664637D01*
X149815273Y-83821680D01*
X150076426Y-83929853D01*
X150353665Y-83985000D01*
X150636335Y-83985000D01*
X150913574Y-83929853D01*
X151174727Y-83821680D01*
X151409759Y-83664637D01*
X151609637Y-83464759D01*
X151765000Y-83232241D01*
X151920363Y-83464759D01*
X152120241Y-83664637D01*
X152355273Y-83821680D01*
X152616426Y-83929853D01*
X152893665Y-83985000D01*
X153176335Y-83985000D01*
X153453574Y-83929853D01*
X153714727Y-83821680D01*
X153949759Y-83664637D01*
X154149637Y-83464759D01*
X154305000Y-83232241D01*
X154460363Y-83464759D01*
X154660241Y-83664637D01*
X154895273Y-83821680D01*
X155156426Y-83929853D01*
X155433665Y-83985000D01*
X155716335Y-83985000D01*
X155993574Y-83929853D01*
X156254727Y-83821680D01*
X156489759Y-83664637D01*
X156689637Y-83464759D01*
X156846680Y-83229727D01*
X156954853Y-82968574D01*
X157010000Y-82691335D01*
X157010000Y-82408665D01*
X156954853Y-82131426D01*
X156846680Y-81870273D01*
X156689637Y-81635241D01*
X156489759Y-81435363D01*
X156444317Y-81405000D01*
X158132699Y-81405000D01*
X159226928Y-82499230D01*
X159226928Y-83006250D01*
X159243872Y-83178285D01*
X159294053Y-83343709D01*
X159375542Y-83496164D01*
X159485208Y-83629792D01*
X159618836Y-83739458D01*
X159771291Y-83820947D01*
X159936715Y-83871128D01*
X160108750Y-83888072D01*
X160596250Y-83888072D01*
X160768285Y-83871128D01*
X160933709Y-83820947D01*
X161086164Y-83739458D01*
X161219792Y-83629792D01*
X161290000Y-83544244D01*
X161360208Y-83629792D01*
X161467500Y-83717845D01*
X161467501Y-87260168D01*
X161463824Y-87297500D01*
X161478498Y-87446485D01*
X161521954Y-87589746D01*
X161592526Y-87721776D01*
X161663701Y-87808502D01*
X161687500Y-87837501D01*
X161716498Y-87861299D01*
X162683997Y-88828799D01*
X162684002Y-88828803D01*
X162795000Y-88939801D01*
X162795000Y-89001939D01*
X162834774Y-89201898D01*
X162912795Y-89390256D01*
X163026063Y-89559774D01*
X163170226Y-89703937D01*
X163339744Y-89817205D01*
X163528102Y-89895226D01*
X163728061Y-89935000D01*
X163931939Y-89935000D01*
X164131898Y-89895226D01*
X164320256Y-89817205D01*
X164489774Y-89703937D01*
X164633937Y-89559774D01*
X164747205Y-89390256D01*
X164825226Y-89201898D01*
X164865000Y-89001939D01*
X164865000Y-88798061D01*
X164825226Y-88598102D01*
X164747205Y-88409744D01*
X164633937Y-88240226D01*
X164489774Y-88096063D01*
X164320256Y-87982795D01*
X164131898Y-87904774D01*
X163931939Y-87865000D01*
X163869801Y-87865000D01*
X163758803Y-87754002D01*
X163758799Y-87753997D01*
X162987500Y-86982699D01*
X162987500Y-86150000D01*
X169580928Y-86150000D01*
X169593188Y-86274482D01*
X169629498Y-86394180D01*
X169688463Y-86504494D01*
X169767815Y-86601185D01*
X169864506Y-86680537D01*
X169974820Y-86739502D01*
X170094518Y-86775812D01*
X170219000Y-86788072D01*
X170783250Y-86785000D01*
X170942000Y-86626250D01*
X170942000Y-85427000D01*
X171196000Y-85427000D01*
X171196000Y-86626250D01*
X171354750Y-86785000D01*
X171919000Y-86788072D01*
X172043482Y-86775812D01*
X172163180Y-86739502D01*
X172273494Y-86680537D01*
X172370185Y-86601185D01*
X172449537Y-86504494D01*
X172508502Y-86394180D01*
X172544812Y-86274482D01*
X172557072Y-86150000D01*
X172554000Y-85585750D01*
X172395250Y-85427000D01*
X171196000Y-85427000D01*
X170942000Y-85427000D01*
X169742750Y-85427000D01*
X169584000Y-85585750D01*
X169580928Y-86150000D01*
X162987500Y-86150000D01*
X162987500Y-83717845D01*
X163094792Y-83629792D01*
X163204458Y-83496164D01*
X163285947Y-83343709D01*
X163336128Y-83178285D01*
X163353072Y-83006250D01*
X163353072Y-82512874D01*
X163705000Y-82864802D01*
X163705001Y-83751288D01*
X163661063Y-83795226D01*
X163547795Y-83964744D01*
X163469774Y-84153102D01*
X163430000Y-84353061D01*
X163430000Y-84556939D01*
X163469774Y-84756898D01*
X163547795Y-84945256D01*
X163661063Y-85114774D01*
X163805226Y-85258937D01*
X163974744Y-85372205D01*
X164163102Y-85450226D01*
X164363061Y-85490000D01*
X164566939Y-85490000D01*
X164766898Y-85450226D01*
X164955256Y-85372205D01*
X165124774Y-85258937D01*
X165268937Y-85114774D01*
X165382205Y-84945256D01*
X165460226Y-84756898D01*
X165500000Y-84556939D01*
X165500000Y-84450000D01*
X169580928Y-84450000D01*
X169584000Y-85014250D01*
X169742750Y-85173000D01*
X170942000Y-85173000D01*
X170942000Y-85153000D01*
X171196000Y-85153000D01*
X171196000Y-85173000D01*
X172395250Y-85173000D01*
X172554000Y-85014250D01*
X172557072Y-84450000D01*
X172544812Y-84325518D01*
X172508502Y-84205820D01*
X172449537Y-84095506D01*
X172370185Y-83998815D01*
X172273494Y-83919463D01*
X172163180Y-83860498D01*
X172090620Y-83838487D01*
X172222475Y-83706632D01*
X172384990Y-83463411D01*
X172496932Y-83193158D01*
X172554000Y-82906260D01*
X172554000Y-82613740D01*
X172496932Y-82326842D01*
X172384990Y-82056589D01*
X172222475Y-81813368D01*
X172015632Y-81606525D01*
X171841240Y-81490000D01*
X172015632Y-81373475D01*
X172222475Y-81166632D01*
X172384990Y-80923411D01*
X172496932Y-80653158D01*
X172554000Y-80366260D01*
X172554000Y-80073740D01*
X172496932Y-79786842D01*
X172384990Y-79516589D01*
X172222475Y-79273368D01*
X172015632Y-79066525D01*
X171841240Y-78950000D01*
X172015632Y-78833475D01*
X172222475Y-78626632D01*
X172384990Y-78383411D01*
X172496932Y-78113158D01*
X172554000Y-77826260D01*
X172554000Y-77533740D01*
X172496932Y-77246842D01*
X172384990Y-76976589D01*
X172222475Y-76733368D01*
X172015632Y-76526525D01*
X171772411Y-76364010D01*
X171502158Y-76252068D01*
X171215260Y-76195000D01*
X170922740Y-76195000D01*
X170635842Y-76252068D01*
X170365589Y-76364010D01*
X170122368Y-76526525D01*
X169915525Y-76733368D01*
X169753010Y-76976589D01*
X169641068Y-77246842D01*
X169584000Y-77533740D01*
X169584000Y-77826260D01*
X169641068Y-78113158D01*
X169753010Y-78383411D01*
X169915525Y-78626632D01*
X170122368Y-78833475D01*
X170296760Y-78950000D01*
X170122368Y-79066525D01*
X169915525Y-79273368D01*
X169753010Y-79516589D01*
X169641068Y-79786842D01*
X169584000Y-80073740D01*
X169584000Y-80366260D01*
X169641068Y-80653158D01*
X169753010Y-80923411D01*
X169915525Y-81166632D01*
X170122368Y-81373475D01*
X170296760Y-81490000D01*
X170122368Y-81606525D01*
X169915525Y-81813368D01*
X169753010Y-82056589D01*
X169641068Y-82326842D01*
X169584000Y-82613740D01*
X169584000Y-82906260D01*
X169641068Y-83193158D01*
X169753010Y-83463411D01*
X169915525Y-83706632D01*
X170047380Y-83838487D01*
X169974820Y-83860498D01*
X169864506Y-83919463D01*
X169767815Y-83998815D01*
X169688463Y-84095506D01*
X169629498Y-84205820D01*
X169593188Y-84325518D01*
X169580928Y-84450000D01*
X165500000Y-84450000D01*
X165500000Y-84353061D01*
X165460226Y-84153102D01*
X165382205Y-83964744D01*
X165268937Y-83795226D01*
X165225000Y-83751289D01*
X165225000Y-82587323D01*
X165228676Y-82550000D01*
X165225000Y-82512677D01*
X165225000Y-82512667D01*
X165214003Y-82401014D01*
X165170546Y-82257753D01*
X165099974Y-82125724D01*
X165005001Y-82009999D01*
X164976004Y-81986202D01*
X163241557Y-80251756D01*
X163285947Y-80168709D01*
X163336128Y-80003285D01*
X163353072Y-79831250D01*
X163353072Y-78918750D01*
X163336128Y-78746715D01*
X163285947Y-78581291D01*
X163204458Y-78428836D01*
X163094792Y-78295208D01*
X162961164Y-78185542D01*
X162808709Y-78104053D01*
X162643285Y-78053872D01*
X162471250Y-78036928D01*
X161983750Y-78036928D01*
X161811715Y-78053872D01*
X161646291Y-78104053D01*
X161493836Y-78185542D01*
X161360208Y-78295208D01*
X161290000Y-78380756D01*
X161219792Y-78295208D01*
X161086164Y-78185542D01*
X160933709Y-78104053D01*
X160768285Y-78053872D01*
X160596250Y-78036928D01*
X160108750Y-78036928D01*
X159936715Y-78053872D01*
X159771291Y-78104053D01*
X159618836Y-78185542D01*
X159485208Y-78295208D01*
X159375542Y-78428836D01*
X159294053Y-78581291D01*
X159283827Y-78615000D01*
X150043801Y-78615000D01*
X151006004Y-77652798D01*
X151035001Y-77629001D01*
X151087526Y-77564999D01*
X151129974Y-77513277D01*
X151200546Y-77381247D01*
X151211541Y-77345000D01*
X151244003Y-77237986D01*
X151255000Y-77126333D01*
X151255000Y-77126323D01*
X151258676Y-77089000D01*
X151255000Y-77051678D01*
X151255000Y-76148043D01*
X151409759Y-76044637D01*
X151609637Y-75844759D01*
X151765000Y-75612241D01*
X151920363Y-75844759D01*
X152120241Y-76044637D01*
X152355273Y-76201680D01*
X152616426Y-76309853D01*
X152727058Y-76331859D01*
X153106200Y-76711002D01*
X153129999Y-76740001D01*
X153158997Y-76763799D01*
X153245724Y-76834974D01*
X153377753Y-76905546D01*
X153521014Y-76949003D01*
X153670000Y-76963677D01*
X153707333Y-76960000D01*
X159283827Y-76960000D01*
X159294053Y-76993709D01*
X159375542Y-77146164D01*
X159485208Y-77279792D01*
X159618836Y-77389458D01*
X159771291Y-77470947D01*
X159936715Y-77521128D01*
X160108750Y-77538072D01*
X160596250Y-77538072D01*
X160768285Y-77521128D01*
X160933709Y-77470947D01*
X161086164Y-77389458D01*
X161219792Y-77279792D01*
X161290000Y-77194244D01*
X161360208Y-77279792D01*
X161493836Y-77389458D01*
X161646291Y-77470947D01*
X161811715Y-77521128D01*
X161983750Y-77538072D01*
X162471250Y-77538072D01*
X162489020Y-77536322D01*
X163456671Y-78503973D01*
X163430000Y-78638061D01*
X163430000Y-78841939D01*
X163469774Y-79041898D01*
X163547795Y-79230256D01*
X163661063Y-79399774D01*
X163805226Y-79543937D01*
X163974744Y-79657205D01*
X164163102Y-79735226D01*
X164363061Y-79775000D01*
X164566939Y-79775000D01*
X164766898Y-79735226D01*
X164955256Y-79657205D01*
X165124774Y-79543937D01*
X165268937Y-79399774D01*
X165382205Y-79230256D01*
X165460226Y-79041898D01*
X165500000Y-78841939D01*
X165500000Y-78638061D01*
X165460226Y-78438102D01*
X165382205Y-78249744D01*
X165268937Y-78080226D01*
X165124774Y-77936063D01*
X164955256Y-77822795D01*
X164903771Y-77801469D01*
X163353072Y-76250771D01*
X163353072Y-75743750D01*
X163336128Y-75571715D01*
X163285947Y-75406291D01*
X163204458Y-75253836D01*
X163094792Y-75120208D01*
X162961164Y-75010542D01*
X162808709Y-74929053D01*
X162643285Y-74878872D01*
X162471250Y-74861928D01*
X161983750Y-74861928D01*
X161811715Y-74878872D01*
X161646291Y-74929053D01*
X161493836Y-75010542D01*
X161360208Y-75120208D01*
X161290000Y-75205756D01*
X161219792Y-75120208D01*
X161086164Y-75010542D01*
X160933709Y-74929053D01*
X160768285Y-74878872D01*
X160596250Y-74861928D01*
X160108750Y-74861928D01*
X159936715Y-74878872D01*
X159771291Y-74929053D01*
X159618836Y-75010542D01*
X159485208Y-75120208D01*
X159375542Y-75253836D01*
X159294053Y-75406291D01*
X159283827Y-75440000D01*
X157013072Y-75440000D01*
X157013072Y-74130000D01*
X157000812Y-74005518D01*
X156964502Y-73885820D01*
X156905537Y-73775506D01*
X156826185Y-73678815D01*
X156729494Y-73599463D01*
X156619180Y-73540498D01*
X156499482Y-73504188D01*
X156375000Y-73491928D01*
X154775000Y-73491928D01*
X154650518Y-73504188D01*
X154530820Y-73540498D01*
X154420506Y-73599463D01*
X154323815Y-73678815D01*
X154244463Y-73775506D01*
X154185498Y-73885820D01*
X154149188Y-74005518D01*
X154148357Y-74013961D01*
X153949759Y-73815363D01*
X153714727Y-73658320D01*
X153453574Y-73550147D01*
X153176335Y-73495000D01*
X152893665Y-73495000D01*
X152616426Y-73550147D01*
X152355273Y-73658320D01*
X152120241Y-73815363D01*
X151920363Y-74015241D01*
X151765000Y-74247759D01*
X151609637Y-74015241D01*
X151409759Y-73815363D01*
X151174727Y-73658320D01*
X150913574Y-73550147D01*
X150636335Y-73495000D01*
X150353665Y-73495000D01*
X150076426Y-73550147D01*
X149815273Y-73658320D01*
X149580241Y-73815363D01*
X149380363Y-74015241D01*
X149223320Y-74250273D01*
X149218933Y-74260865D01*
X149107385Y-74074869D01*
X148918414Y-73866481D01*
X148692420Y-73698963D01*
X148438087Y-73578754D01*
X148304039Y-73538096D01*
X148082000Y-73660085D01*
X148082000Y-74803000D01*
X148102000Y-74803000D01*
X148102000Y-75057000D01*
X148082000Y-75057000D01*
X148082000Y-76199915D01*
X148304039Y-76321904D01*
X148438087Y-76281246D01*
X148692420Y-76161037D01*
X148918414Y-75993519D01*
X149107385Y-75785131D01*
X149218933Y-75599135D01*
X149223320Y-75609727D01*
X149380363Y-75844759D01*
X149580241Y-76044637D01*
X149735000Y-76148044D01*
X149735000Y-76774198D01*
X149164199Y-77345000D01*
X144788178Y-77345000D01*
X144663475Y-77158368D01*
X144531620Y-77026513D01*
X144604180Y-77004502D01*
X144714494Y-76945537D01*
X144811185Y-76866185D01*
X144890537Y-76769494D01*
X144949502Y-76659180D01*
X144985812Y-76539482D01*
X144998072Y-76415000D01*
X144995000Y-75850750D01*
X144836250Y-75692000D01*
X143637000Y-75692000D01*
X143637000Y-75712000D01*
X143383000Y-75712000D01*
X143383000Y-75692000D01*
X142183750Y-75692000D01*
X142025000Y-75850750D01*
X142021928Y-76415000D01*
X140660000Y-76415000D01*
X140660000Y-74715000D01*
X142021928Y-74715000D01*
X142025000Y-75279250D01*
X142183750Y-75438000D01*
X143383000Y-75438000D01*
X143383000Y-74238750D01*
X143637000Y-74238750D01*
X143637000Y-75438000D01*
X144836250Y-75438000D01*
X144995000Y-75279250D01*
X144995001Y-75279040D01*
X146563091Y-75279040D01*
X146657930Y-75543881D01*
X146802615Y-75785131D01*
X146991586Y-75993519D01*
X147217580Y-76161037D01*
X147471913Y-76281246D01*
X147605961Y-76321904D01*
X147828000Y-76199915D01*
X147828000Y-75057000D01*
X146684376Y-75057000D01*
X146563091Y-75279040D01*
X144995001Y-75279040D01*
X144998072Y-74715000D01*
X144985812Y-74590518D01*
X144982913Y-74580960D01*
X146563091Y-74580960D01*
X146684376Y-74803000D01*
X147828000Y-74803000D01*
X147828000Y-73660085D01*
X147605961Y-73538096D01*
X147471913Y-73578754D01*
X147217580Y-73698963D01*
X146991586Y-73866481D01*
X146802615Y-74074869D01*
X146657930Y-74316119D01*
X146563091Y-74580960D01*
X144982913Y-74580960D01*
X144949502Y-74470820D01*
X144890537Y-74360506D01*
X144811185Y-74263815D01*
X144714494Y-74184463D01*
X144604180Y-74125498D01*
X144484482Y-74089188D01*
X144360000Y-74076928D01*
X143795750Y-74080000D01*
X143637000Y-74238750D01*
X143383000Y-74238750D01*
X143224250Y-74080000D01*
X142660000Y-74076928D01*
X142535518Y-74089188D01*
X142415820Y-74125498D01*
X142305506Y-74184463D01*
X142208815Y-74263815D01*
X142129463Y-74360506D01*
X142070498Y-74470820D01*
X142034188Y-74590518D01*
X142021928Y-74715000D01*
X140660000Y-74715000D01*
X140660000Y-72660000D01*
X174340000Y-72660000D01*
X174340001Y-90340000D01*
G37*
X174340001Y-90340000D02*
X140660000Y-90340000D01*
X140660000Y-85305000D01*
X142021928Y-85305000D01*
X142034188Y-85429482D01*
X142070498Y-85549180D01*
X142129463Y-85659494D01*
X142208815Y-85756185D01*
X142305506Y-85835537D01*
X142415820Y-85894502D01*
X142488380Y-85916513D01*
X142356525Y-86048368D01*
X142194010Y-86291589D01*
X142082068Y-86561842D01*
X142025000Y-86848740D01*
X142025000Y-87141260D01*
X142082068Y-87428158D01*
X142194010Y-87698411D01*
X142356525Y-87941632D01*
X142563368Y-88148475D01*
X142806589Y-88310990D01*
X143076842Y-88422932D01*
X143363740Y-88480000D01*
X143656260Y-88480000D01*
X143943158Y-88422932D01*
X144213411Y-88310990D01*
X144456632Y-88148475D01*
X144663475Y-87941632D01*
X144728042Y-87845000D01*
X147101928Y-87845000D01*
X147114188Y-87969482D01*
X147150498Y-88089180D01*
X147209463Y-88199494D01*
X147288815Y-88296185D01*
X147385506Y-88375537D01*
X147495820Y-88434502D01*
X147615518Y-88470812D01*
X147740000Y-88483072D01*
X148304250Y-88480000D01*
X148463000Y-88321250D01*
X148463000Y-87122000D01*
X147263750Y-87122000D01*
X147105000Y-87280750D01*
X147101928Y-87845000D01*
X144728042Y-87845000D01*
X144825990Y-87698411D01*
X144937932Y-87428158D01*
X144995000Y-87141260D01*
X144995000Y-86848740D01*
X144937932Y-86561842D01*
X144825990Y-86291589D01*
X144728043Y-86145000D01*
X147101928Y-86145000D01*
X147105000Y-86709250D01*
X147263750Y-86868000D01*
X148463000Y-86868000D01*
X148463000Y-85668750D01*
X148717000Y-85668750D01*
X148717000Y-86868000D01*
X148737000Y-86868000D01*
X148737000Y-87122000D01*
X148717000Y-87122000D01*
X148717000Y-88321250D01*
X148875750Y-88480000D01*
X149440000Y-88483072D01*
X149564482Y-88470812D01*
X149684180Y-88434502D01*
X149794494Y-88375537D01*
X149891185Y-88296185D01*
X149970537Y-88199494D01*
X150029502Y-88089180D01*
X150051513Y-88016620D01*
X150183368Y-88148475D01*
X150426589Y-88310990D01*
X150696842Y-88422932D01*
X150983740Y-88480000D01*
X151276260Y-88480000D01*
X151563158Y-88422932D01*
X151833411Y-88310990D01*
X152076632Y-88148475D01*
X152283475Y-87941632D01*
X152445990Y-87698411D01*
X152557932Y-87428158D01*
X152615000Y-87141260D01*
X152615000Y-86848740D01*
X152557932Y-86561842D01*
X152445990Y-86291589D01*
X152283475Y-86048368D01*
X152076632Y-85841525D01*
X151833411Y-85679010D01*
X151563158Y-85567068D01*
X151276260Y-85510000D01*
X150983740Y-85510000D01*
X150696842Y-85567068D01*
X150426589Y-85679010D01*
X150183368Y-85841525D01*
X150051513Y-85973380D01*
X150029502Y-85900820D01*
X149970537Y-85790506D01*
X149891185Y-85693815D01*
X149794494Y-85614463D01*
X149684180Y-85555498D01*
X149564482Y-85519188D01*
X149440000Y-85506928D01*
X148875750Y-85510000D01*
X148717000Y-85668750D01*
X148463000Y-85668750D01*
X148304250Y-85510000D01*
X147740000Y-85506928D01*
X147615518Y-85519188D01*
X147495820Y-85555498D01*
X147385506Y-85614463D01*
X147288815Y-85693815D01*
X147209463Y-85790506D01*
X147150498Y-85900820D01*
X147114188Y-86020518D01*
X147101928Y-86145000D01*
X144728043Y-86145000D01*
X144663475Y-86048368D01*
X144531620Y-85916513D01*
X144604180Y-85894502D01*
X144714494Y-85835537D01*
X144811185Y-85756185D01*
X144890537Y-85659494D01*
X144949502Y-85549180D01*
X144985812Y-85429482D01*
X144998072Y-85305000D01*
X144995000Y-84740750D01*
X144836250Y-84582000D01*
X143637000Y-84582000D01*
X143637000Y-84602000D01*
X143383000Y-84602000D01*
X143383000Y-84582000D01*
X142183750Y-84582000D01*
X142025000Y-84740750D01*
X142021928Y-85305000D01*
X140660000Y-85305000D01*
X140660000Y-83605000D01*
X142021928Y-83605000D01*
X142025000Y-84169250D01*
X142183750Y-84328000D01*
X143383000Y-84328000D01*
X143383000Y-83128750D01*
X143637000Y-83128750D01*
X143637000Y-84328000D01*
X144836250Y-84328000D01*
X144995000Y-84169250D01*
X144998072Y-83605000D01*
X144985812Y-83480518D01*
X144949502Y-83360820D01*
X144890537Y-83250506D01*
X144811185Y-83153815D01*
X144714494Y-83074463D01*
X144604180Y-83015498D01*
X144484482Y-82979188D01*
X144360000Y-82966928D01*
X143795750Y-82970000D01*
X143637000Y-83128750D01*
X143383000Y-83128750D01*
X143224250Y-82970000D01*
X142660000Y-82966928D01*
X142535518Y-82979188D01*
X142415820Y-83015498D01*
X142305506Y-83074463D01*
X142208815Y-83153815D01*
X142129463Y-83250506D01*
X142070498Y-83360820D01*
X142034188Y-83480518D01*
X142021928Y-83605000D01*
X140660000Y-83605000D01*
X140660000Y-76415000D01*
X142021928Y-76415000D01*
X142034188Y-76539482D01*
X142070498Y-76659180D01*
X142129463Y-76769494D01*
X142208815Y-76866185D01*
X142305506Y-76945537D01*
X142415820Y-77004502D01*
X142488380Y-77026513D01*
X142356525Y-77158368D01*
X142194010Y-77401589D01*
X142082068Y-77671842D01*
X142025000Y-77958740D01*
X142025000Y-78251260D01*
X142082068Y-78538158D01*
X142194010Y-78808411D01*
X142356525Y-79051632D01*
X142563368Y-79258475D01*
X142737760Y-79375000D01*
X142563368Y-79491525D01*
X142356525Y-79698368D01*
X142194010Y-79941589D01*
X142082068Y-80211842D01*
X142025000Y-80498740D01*
X142025000Y-80791260D01*
X142082068Y-81078158D01*
X142194010Y-81348411D01*
X142356525Y-81591632D01*
X142563368Y-81798475D01*
X142806589Y-81960990D01*
X143076842Y-82072932D01*
X143363740Y-82130000D01*
X143656260Y-82130000D01*
X143943158Y-82072932D01*
X144213411Y-81960990D01*
X144456632Y-81798475D01*
X144663475Y-81591632D01*
X144825990Y-81348411D01*
X144937932Y-81078158D01*
X144995000Y-80791260D01*
X144995000Y-80498740D01*
X144937932Y-80211842D01*
X144825990Y-79941589D01*
X144663475Y-79698368D01*
X144456632Y-79491525D01*
X144282240Y-79375000D01*
X144456632Y-79258475D01*
X144663475Y-79051632D01*
X144788178Y-78865000D01*
X148025198Y-78865000D01*
X147443998Y-79446201D01*
X147415000Y-79469999D01*
X147391202Y-79498997D01*
X147391201Y-79498998D01*
X147320026Y-79585724D01*
X147249454Y-79717754D01*
X147228497Y-79786842D01*
X147205998Y-79861014D01*
X147202552Y-79895998D01*
X147191324Y-80010000D01*
X147195001Y-80047332D01*
X147195000Y-81331956D01*
X147040241Y-81435363D01*
X146840363Y-81635241D01*
X146683320Y-81870273D01*
X146575147Y-82131426D01*
X146520000Y-82408665D01*
X146520000Y-82691335D01*
X146575147Y-82968574D01*
X146683320Y-83229727D01*
X146840363Y-83464759D01*
X147040241Y-83664637D01*
X147275273Y-83821680D01*
X147536426Y-83929853D01*
X147813665Y-83985000D01*
X148096335Y-83985000D01*
X148373574Y-83929853D01*
X148634727Y-83821680D01*
X148869759Y-83664637D01*
X149069637Y-83464759D01*
X149225000Y-83232241D01*
X149380363Y-83464759D01*
X149580241Y-83664637D01*
X149815273Y-83821680D01*
X150076426Y-83929853D01*
X150353665Y-83985000D01*
X150636335Y-83985000D01*
X150913574Y-83929853D01*
X151174727Y-83821680D01*
X151409759Y-83664637D01*
X151609637Y-83464759D01*
X151765000Y-83232241D01*
X151920363Y-83464759D01*
X152120241Y-83664637D01*
X152355273Y-83821680D01*
X152616426Y-83929853D01*
X152893665Y-83985000D01*
X153176335Y-83985000D01*
X153453574Y-83929853D01*
X153714727Y-83821680D01*
X153949759Y-83664637D01*
X154149637Y-83464759D01*
X154305000Y-83232241D01*
X154460363Y-83464759D01*
X154660241Y-83664637D01*
X154895273Y-83821680D01*
X155156426Y-83929853D01*
X155433665Y-83985000D01*
X155716335Y-83985000D01*
X155993574Y-83929853D01*
X156254727Y-83821680D01*
X156489759Y-83664637D01*
X156689637Y-83464759D01*
X156846680Y-83229727D01*
X156954853Y-82968574D01*
X157010000Y-82691335D01*
X157010000Y-82408665D01*
X156954853Y-82131426D01*
X156846680Y-81870273D01*
X156689637Y-81635241D01*
X156489759Y-81435363D01*
X156444317Y-81405000D01*
X158132699Y-81405000D01*
X159226928Y-82499230D01*
X159226928Y-83006250D01*
X159243872Y-83178285D01*
X159294053Y-83343709D01*
X159375542Y-83496164D01*
X159485208Y-83629792D01*
X159618836Y-83739458D01*
X159771291Y-83820947D01*
X159936715Y-83871128D01*
X160108750Y-83888072D01*
X160596250Y-83888072D01*
X160768285Y-83871128D01*
X160933709Y-83820947D01*
X161086164Y-83739458D01*
X161219792Y-83629792D01*
X161290000Y-83544244D01*
X161360208Y-83629792D01*
X161467500Y-83717845D01*
X161467501Y-87260168D01*
X161463824Y-87297500D01*
X161478498Y-87446485D01*
X161521954Y-87589746D01*
X161592526Y-87721776D01*
X161663701Y-87808502D01*
X161687500Y-87837501D01*
X161716498Y-87861299D01*
X162683997Y-88828799D01*
X162684002Y-88828803D01*
X162795000Y-88939801D01*
X162795000Y-89001939D01*
X162834774Y-89201898D01*
X162912795Y-89390256D01*
X163026063Y-89559774D01*
X163170226Y-89703937D01*
X163339744Y-89817205D01*
X163528102Y-89895226D01*
X163728061Y-89935000D01*
X163931939Y-89935000D01*
X164131898Y-89895226D01*
X164320256Y-89817205D01*
X164489774Y-89703937D01*
X164633937Y-89559774D01*
X164747205Y-89390256D01*
X164825226Y-89201898D01*
X164865000Y-89001939D01*
X164865000Y-88798061D01*
X164825226Y-88598102D01*
X164747205Y-88409744D01*
X164633937Y-88240226D01*
X164489774Y-88096063D01*
X164320256Y-87982795D01*
X164131898Y-87904774D01*
X163931939Y-87865000D01*
X163869801Y-87865000D01*
X163758803Y-87754002D01*
X163758799Y-87753997D01*
X162987500Y-86982699D01*
X162987500Y-86150000D01*
X169580928Y-86150000D01*
X169593188Y-86274482D01*
X169629498Y-86394180D01*
X169688463Y-86504494D01*
X169767815Y-86601185D01*
X169864506Y-86680537D01*
X169974820Y-86739502D01*
X170094518Y-86775812D01*
X170219000Y-86788072D01*
X170783250Y-86785000D01*
X170942000Y-86626250D01*
X170942000Y-85427000D01*
X171196000Y-85427000D01*
X171196000Y-86626250D01*
X171354750Y-86785000D01*
X171919000Y-86788072D01*
X172043482Y-86775812D01*
X172163180Y-86739502D01*
X172273494Y-86680537D01*
X172370185Y-86601185D01*
X172449537Y-86504494D01*
X172508502Y-86394180D01*
X172544812Y-86274482D01*
X172557072Y-86150000D01*
X172554000Y-85585750D01*
X172395250Y-85427000D01*
X171196000Y-85427000D01*
X170942000Y-85427000D01*
X169742750Y-85427000D01*
X169584000Y-85585750D01*
X169580928Y-86150000D01*
X162987500Y-86150000D01*
X162987500Y-83717845D01*
X163094792Y-83629792D01*
X163204458Y-83496164D01*
X163285947Y-83343709D01*
X163336128Y-83178285D01*
X163353072Y-83006250D01*
X163353072Y-82512874D01*
X163705000Y-82864802D01*
X163705001Y-83751288D01*
X163661063Y-83795226D01*
X163547795Y-83964744D01*
X163469774Y-84153102D01*
X163430000Y-84353061D01*
X163430000Y-84556939D01*
X163469774Y-84756898D01*
X163547795Y-84945256D01*
X163661063Y-85114774D01*
X163805226Y-85258937D01*
X163974744Y-85372205D01*
X164163102Y-85450226D01*
X164363061Y-85490000D01*
X164566939Y-85490000D01*
X164766898Y-85450226D01*
X164955256Y-85372205D01*
X165124774Y-85258937D01*
X165268937Y-85114774D01*
X165382205Y-84945256D01*
X165460226Y-84756898D01*
X165500000Y-84556939D01*
X165500000Y-84450000D01*
X169580928Y-84450000D01*
X169584000Y-85014250D01*
X169742750Y-85173000D01*
X170942000Y-85173000D01*
X170942000Y-85153000D01*
X171196000Y-85153000D01*
X171196000Y-85173000D01*
X172395250Y-85173000D01*
X172554000Y-85014250D01*
X172557072Y-84450000D01*
X172544812Y-84325518D01*
X172508502Y-84205820D01*
X172449537Y-84095506D01*
X172370185Y-83998815D01*
X172273494Y-83919463D01*
X172163180Y-83860498D01*
X172090620Y-83838487D01*
X172222475Y-83706632D01*
X172384990Y-83463411D01*
X172496932Y-83193158D01*
X172554000Y-82906260D01*
X172554000Y-82613740D01*
X172496932Y-82326842D01*
X172384990Y-82056589D01*
X172222475Y-81813368D01*
X172015632Y-81606525D01*
X171841240Y-81490000D01*
X172015632Y-81373475D01*
X172222475Y-81166632D01*
X172384990Y-80923411D01*
X172496932Y-80653158D01*
X172554000Y-80366260D01*
X172554000Y-80073740D01*
X172496932Y-79786842D01*
X172384990Y-79516589D01*
X172222475Y-79273368D01*
X172015632Y-79066525D01*
X171841240Y-78950000D01*
X172015632Y-78833475D01*
X172222475Y-78626632D01*
X172384990Y-78383411D01*
X172496932Y-78113158D01*
X172554000Y-77826260D01*
X172554000Y-77533740D01*
X172496932Y-77246842D01*
X172384990Y-76976589D01*
X172222475Y-76733368D01*
X172015632Y-76526525D01*
X171772411Y-76364010D01*
X171502158Y-76252068D01*
X171215260Y-76195000D01*
X170922740Y-76195000D01*
X170635842Y-76252068D01*
X170365589Y-76364010D01*
X170122368Y-76526525D01*
X169915525Y-76733368D01*
X169753010Y-76976589D01*
X169641068Y-77246842D01*
X169584000Y-77533740D01*
X169584000Y-77826260D01*
X169641068Y-78113158D01*
X169753010Y-78383411D01*
X169915525Y-78626632D01*
X170122368Y-78833475D01*
X170296760Y-78950000D01*
X170122368Y-79066525D01*
X169915525Y-79273368D01*
X169753010Y-79516589D01*
X169641068Y-79786842D01*
X169584000Y-80073740D01*
X169584000Y-80366260D01*
X169641068Y-80653158D01*
X169753010Y-80923411D01*
X169915525Y-81166632D01*
X170122368Y-81373475D01*
X170296760Y-81490000D01*
X170122368Y-81606525D01*
X169915525Y-81813368D01*
X169753010Y-82056589D01*
X169641068Y-82326842D01*
X169584000Y-82613740D01*
X169584000Y-82906260D01*
X169641068Y-83193158D01*
X169753010Y-83463411D01*
X169915525Y-83706632D01*
X170047380Y-83838487D01*
X169974820Y-83860498D01*
X169864506Y-83919463D01*
X169767815Y-83998815D01*
X169688463Y-84095506D01*
X169629498Y-84205820D01*
X169593188Y-84325518D01*
X169580928Y-84450000D01*
X165500000Y-84450000D01*
X165500000Y-84353061D01*
X165460226Y-84153102D01*
X165382205Y-83964744D01*
X165268937Y-83795226D01*
X165225000Y-83751289D01*
X165225000Y-82587323D01*
X165228676Y-82550000D01*
X165225000Y-82512677D01*
X165225000Y-82512667D01*
X165214003Y-82401014D01*
X165170546Y-82257753D01*
X165099974Y-82125724D01*
X165005001Y-82009999D01*
X164976004Y-81986202D01*
X163241557Y-80251756D01*
X163285947Y-80168709D01*
X163336128Y-80003285D01*
X163353072Y-79831250D01*
X163353072Y-78918750D01*
X163336128Y-78746715D01*
X163285947Y-78581291D01*
X163204458Y-78428836D01*
X163094792Y-78295208D01*
X162961164Y-78185542D01*
X162808709Y-78104053D01*
X162643285Y-78053872D01*
X162471250Y-78036928D01*
X161983750Y-78036928D01*
X161811715Y-78053872D01*
X161646291Y-78104053D01*
X161493836Y-78185542D01*
X161360208Y-78295208D01*
X161290000Y-78380756D01*
X161219792Y-78295208D01*
X161086164Y-78185542D01*
X160933709Y-78104053D01*
X160768285Y-78053872D01*
X160596250Y-78036928D01*
X160108750Y-78036928D01*
X159936715Y-78053872D01*
X159771291Y-78104053D01*
X159618836Y-78185542D01*
X159485208Y-78295208D01*
X159375542Y-78428836D01*
X159294053Y-78581291D01*
X159283827Y-78615000D01*
X150043801Y-78615000D01*
X151006004Y-77652798D01*
X151035001Y-77629001D01*
X151087526Y-77564999D01*
X151129974Y-77513277D01*
X151200546Y-77381247D01*
X151211541Y-77345000D01*
X151244003Y-77237986D01*
X151255000Y-77126333D01*
X151255000Y-77126323D01*
X151258676Y-77089000D01*
X151255000Y-77051678D01*
X151255000Y-76148043D01*
X151409759Y-76044637D01*
X151609637Y-75844759D01*
X151765000Y-75612241D01*
X151920363Y-75844759D01*
X152120241Y-76044637D01*
X152355273Y-76201680D01*
X152616426Y-76309853D01*
X152727058Y-76331859D01*
X153106200Y-76711002D01*
X153129999Y-76740001D01*
X153158997Y-76763799D01*
X153245724Y-76834974D01*
X153377753Y-76905546D01*
X153521014Y-76949003D01*
X153670000Y-76963677D01*
X153707333Y-76960000D01*
X159283827Y-76960000D01*
X159294053Y-76993709D01*
X159375542Y-77146164D01*
X159485208Y-77279792D01*
X159618836Y-77389458D01*
X159771291Y-77470947D01*
X159936715Y-77521128D01*
X160108750Y-77538072D01*
X160596250Y-77538072D01*
X160768285Y-77521128D01*
X160933709Y-77470947D01*
X161086164Y-77389458D01*
X161219792Y-77279792D01*
X161290000Y-77194244D01*
X161360208Y-77279792D01*
X161493836Y-77389458D01*
X161646291Y-77470947D01*
X161811715Y-77521128D01*
X161983750Y-77538072D01*
X162471250Y-77538072D01*
X162489020Y-77536322D01*
X163456671Y-78503973D01*
X163430000Y-78638061D01*
X163430000Y-78841939D01*
X163469774Y-79041898D01*
X163547795Y-79230256D01*
X163661063Y-79399774D01*
X163805226Y-79543937D01*
X163974744Y-79657205D01*
X164163102Y-79735226D01*
X164363061Y-79775000D01*
X164566939Y-79775000D01*
X164766898Y-79735226D01*
X164955256Y-79657205D01*
X165124774Y-79543937D01*
X165268937Y-79399774D01*
X165382205Y-79230256D01*
X165460226Y-79041898D01*
X165500000Y-78841939D01*
X165500000Y-78638061D01*
X165460226Y-78438102D01*
X165382205Y-78249744D01*
X165268937Y-78080226D01*
X165124774Y-77936063D01*
X164955256Y-77822795D01*
X164903771Y-77801469D01*
X163353072Y-76250771D01*
X163353072Y-75743750D01*
X163336128Y-75571715D01*
X163285947Y-75406291D01*
X163204458Y-75253836D01*
X163094792Y-75120208D01*
X162961164Y-75010542D01*
X162808709Y-74929053D01*
X162643285Y-74878872D01*
X162471250Y-74861928D01*
X161983750Y-74861928D01*
X161811715Y-74878872D01*
X161646291Y-74929053D01*
X161493836Y-75010542D01*
X161360208Y-75120208D01*
X161290000Y-75205756D01*
X161219792Y-75120208D01*
X161086164Y-75010542D01*
X160933709Y-74929053D01*
X160768285Y-74878872D01*
X160596250Y-74861928D01*
X160108750Y-74861928D01*
X159936715Y-74878872D01*
X159771291Y-74929053D01*
X159618836Y-75010542D01*
X159485208Y-75120208D01*
X159375542Y-75253836D01*
X159294053Y-75406291D01*
X159283827Y-75440000D01*
X157013072Y-75440000D01*
X157013072Y-74130000D01*
X157000812Y-74005518D01*
X156964502Y-73885820D01*
X156905537Y-73775506D01*
X156826185Y-73678815D01*
X156729494Y-73599463D01*
X156619180Y-73540498D01*
X156499482Y-73504188D01*
X156375000Y-73491928D01*
X154775000Y-73491928D01*
X154650518Y-73504188D01*
X154530820Y-73540498D01*
X154420506Y-73599463D01*
X154323815Y-73678815D01*
X154244463Y-73775506D01*
X154185498Y-73885820D01*
X154149188Y-74005518D01*
X154148357Y-74013961D01*
X153949759Y-73815363D01*
X153714727Y-73658320D01*
X153453574Y-73550147D01*
X153176335Y-73495000D01*
X152893665Y-73495000D01*
X152616426Y-73550147D01*
X152355273Y-73658320D01*
X152120241Y-73815363D01*
X151920363Y-74015241D01*
X151765000Y-74247759D01*
X151609637Y-74015241D01*
X151409759Y-73815363D01*
X151174727Y-73658320D01*
X150913574Y-73550147D01*
X150636335Y-73495000D01*
X150353665Y-73495000D01*
X150076426Y-73550147D01*
X149815273Y-73658320D01*
X149580241Y-73815363D01*
X149380363Y-74015241D01*
X149223320Y-74250273D01*
X149218933Y-74260865D01*
X149107385Y-74074869D01*
X148918414Y-73866481D01*
X148692420Y-73698963D01*
X148438087Y-73578754D01*
X148304039Y-73538096D01*
X148082000Y-73660085D01*
X148082000Y-74803000D01*
X148102000Y-74803000D01*
X148102000Y-75057000D01*
X148082000Y-75057000D01*
X148082000Y-76199915D01*
X148304039Y-76321904D01*
X148438087Y-76281246D01*
X148692420Y-76161037D01*
X148918414Y-75993519D01*
X149107385Y-75785131D01*
X149218933Y-75599135D01*
X149223320Y-75609727D01*
X149380363Y-75844759D01*
X149580241Y-76044637D01*
X149735000Y-76148044D01*
X149735000Y-76774198D01*
X149164199Y-77345000D01*
X144788178Y-77345000D01*
X144663475Y-77158368D01*
X144531620Y-77026513D01*
X144604180Y-77004502D01*
X144714494Y-76945537D01*
X144811185Y-76866185D01*
X144890537Y-76769494D01*
X144949502Y-76659180D01*
X144985812Y-76539482D01*
X144998072Y-76415000D01*
X144995000Y-75850750D01*
X144836250Y-75692000D01*
X143637000Y-75692000D01*
X143637000Y-75712000D01*
X143383000Y-75712000D01*
X143383000Y-75692000D01*
X142183750Y-75692000D01*
X142025000Y-75850750D01*
X142021928Y-76415000D01*
X140660000Y-76415000D01*
X140660000Y-74715000D01*
X142021928Y-74715000D01*
X142025000Y-75279250D01*
X142183750Y-75438000D01*
X143383000Y-75438000D01*
X143383000Y-74238750D01*
X143637000Y-74238750D01*
X143637000Y-75438000D01*
X144836250Y-75438000D01*
X144995000Y-75279250D01*
X144995001Y-75279040D01*
X146563091Y-75279040D01*
X146657930Y-75543881D01*
X146802615Y-75785131D01*
X146991586Y-75993519D01*
X147217580Y-76161037D01*
X147471913Y-76281246D01*
X147605961Y-76321904D01*
X147828000Y-76199915D01*
X147828000Y-75057000D01*
X146684376Y-75057000D01*
X146563091Y-75279040D01*
X144995001Y-75279040D01*
X144998072Y-74715000D01*
X144985812Y-74590518D01*
X144982913Y-74580960D01*
X146563091Y-74580960D01*
X146684376Y-74803000D01*
X147828000Y-74803000D01*
X147828000Y-73660085D01*
X147605961Y-73538096D01*
X147471913Y-73578754D01*
X147217580Y-73698963D01*
X146991586Y-73866481D01*
X146802615Y-74074869D01*
X146657930Y-74316119D01*
X146563091Y-74580960D01*
X144982913Y-74580960D01*
X144949502Y-74470820D01*
X144890537Y-74360506D01*
X144811185Y-74263815D01*
X144714494Y-74184463D01*
X144604180Y-74125498D01*
X144484482Y-74089188D01*
X144360000Y-74076928D01*
X143795750Y-74080000D01*
X143637000Y-74238750D01*
X143383000Y-74238750D01*
X143224250Y-74080000D01*
X142660000Y-74076928D01*
X142535518Y-74089188D01*
X142415820Y-74125498D01*
X142305506Y-74184463D01*
X142208815Y-74263815D01*
X142129463Y-74360506D01*
X142070498Y-74470820D01*
X142034188Y-74590518D01*
X142021928Y-74715000D01*
X140660000Y-74715000D01*
X140660000Y-72660000D01*
X174340000Y-72660000D01*
X174340001Y-90340000D01*
%TD*%
M02*
